<svg xmlns="http://www.w3.org/2000/svg" xmlns:xlink="http://www.w3.org/1999/xlink" id="body_66" preserveAspectRatio="xMinYMin meet" viewBox="0 0 816 1056"><defs><clipPath id="1"><path clip-rule="evenodd" d="M0 792L0 0L0 0L612 0L612 0L612 792L612 792L0 792z" /></clipPath><clipPath id="2"><path clip-rule="evenodd" d="M0 792L612 792L612 792L612 0L612 0L0 0z" /></clipPath></defs><g transform="matrix(1.333333 0 0 1.333333 0 0)"><g clip-path="url(#1)"><g clip-path="url(#2)"><path transform="matrix(1 0 0 -1 0 792)" d="M90.24 99.24L148.08 99.24L148.08 99.24L148.08 99.96L148.08 99.96L90.24 99.96z" stroke="none" fill="#000000" fill-rule="evenodd" /><path transform="matrix(1 0 0 -1 0 792)" d="M214.2 99.24L298.08 99.24L298.08 99.24L298.08 99.96L298.08 99.96L214.2 99.96z" stroke="none" fill="#000000" fill-rule="evenodd" /><path transform="matrix(1 0 0 -1 0 792)" d="M303.72 99.24L329.16 99.24L329.16 99.24L329.16 99.96L329.16 99.96L303.72 99.96z" stroke="none" fill="#000000" fill-rule="evenodd" /><path transform="matrix(1 0 0 -1 0 792)" d="M354.24 99.24L543.72 99.24L543.72 99.24L543.72 99.96L543.72 99.96L354.24 99.96z" stroke="none" fill="#000000" fill-rule="evenodd" /><path transform="matrix(1 0 0 -1 0 792)" d="M79.2 87.72L127.44 87.72L127.44 87.72L127.44 88.44L127.44 88.44L79.2 88.44z" stroke="none" fill="#000000" fill-rule="evenodd" /></g></g></g></svg>