<svg xmlns="http://www.w3.org/2000/svg" xmlns:xlink="http://www.w3.org/1999/xlink" id="body_5" preserveAspectRatio="xMinYMin meet" viewBox="0 0 816 1056"><defs><clipPath id="1"><path clip-rule="evenodd" d="M0 792L0 0L0 0L612 0L612 0L612 792L612 792L0 792z" /></clipPath><clipPath id="2"><path clip-rule="evenodd" d="M0 792L612 792L612 792L612 0L612 0L0 0z" /></clipPath></defs><g transform="matrix(1.333333 0 0 1.333333 0 0)"><g clip-path="url(#1)"><g clip-path="url(#2)"><path transform="matrix(1 0 0 -1 0 792)" d="M102.12 625.2L102.6 625.2L102.6 625.2L102.6 625.68L102.6 625.68L102.12 625.68z" stroke="none" fill="#000000" fill-rule="evenodd" /><path transform="matrix(1 0 0 -1 0 792)" d="M102.12 625.2L102.6 625.2L102.6 625.2L102.6 625.68L102.6 625.68L102.12 625.68z" stroke="none" fill="#000000" fill-rule="evenodd" /><path transform="matrix(1 0 0 -1 0 792)" d="M102.6 625.2L545.4 625.2L545.4 625.2L545.4 625.68L545.4 625.68L102.6 625.68z" stroke="none" fill="#000000" fill-rule="evenodd" /><path transform="matrix(1 0 0 -1 0 792)" d="M545.4 625.2L545.88 625.2L545.88 625.2L545.88 625.68L545.88 625.68L545.4 625.68z" stroke="none" fill="#000000" fill-rule="evenodd" /><path transform="matrix(1 0 0 -1 0 792)" d="M545.4 625.2L545.88 625.2L545.88 625.2L545.88 625.68L545.88 625.68L545.4 625.68z" stroke="none" fill="#000000" fill-rule="evenodd" /><path transform="matrix(1 0 0 -1 0 792)" d="M102.12 607.2L102.6 607.2L102.6 607.2L102.6 607.68L102.6 607.68L102.12 607.68z" stroke="none" fill="#000000" fill-rule="evenodd" /><path transform="matrix(1 0 0 -1 0 792)" d="M102.12 607.2L102.6 607.2L102.6 607.2L102.6 607.68L102.6 607.68L102.12 607.68z" stroke="none" fill="#000000" fill-rule="evenodd" /><path transform="matrix(1 0 0 -1 0 792)" d="M102.6 607.2L545.4 607.2L545.4 607.2L545.4 607.68L545.4 607.68L102.6 607.68z" stroke="none" fill="#000000" fill-rule="evenodd" /><path transform="matrix(1 0 0 -1 0 792)" d="M545.4 607.2L545.88 607.2L545.88 607.2L545.88 607.68L545.88 607.68L545.4 607.68z" stroke="none" fill="#000000" fill-rule="evenodd" /><path transform="matrix(1 0 0 -1 0 792)" d="M545.4 607.2L545.88 607.2L545.88 607.2L545.88 607.68L545.88 607.68L545.4 607.68z" stroke="none" fill="#000000" fill-rule="evenodd" /><path transform="matrix(1 0 0 -1 0 792)" d="M102.12 607.68L102.6 607.68L102.6 607.68L102.6 625.2L102.6 625.2L102.12 625.2z" stroke="none" fill="#000000" fill-rule="evenodd" /><path transform="matrix(1 0 0 -1 0 792)" d="M545.4 607.68L545.88 607.68L545.88 607.68L545.88 625.2L545.88 625.2L545.4 625.2z" stroke="none" fill="#000000" fill-rule="evenodd" /></g></g></g></svg>