<svg xmlns="http://www.w3.org/2000/svg" xmlns:xlink="http://www.w3.org/1999/xlink" id="body_21" preserveAspectRatio="xMinYMin meet" viewBox="0 0 816 1056"><defs><clipPath id="1"><path clip-rule="evenodd" d="M0 792L0 0L0 0L612 0L612 0L612 792L612 792L0 792z" /></clipPath><clipPath id="2"><path clip-rule="evenodd" d="M0 792L612 792L612 792L612 0L612 0L0 0z" /></clipPath><clipPath id="3"><path clip-rule="evenodd" d="M153.6841 294.9823L208.6434 294.9823L208.6434 294.9823L208.6434 281.7256L208.6434 281.7256L153.6841 281.7256z" /></clipPath><clipPath id="4"><path clip-rule="evenodd" d="M153.6841 294.9823L208.6434 294.9823L208.6434 294.9823L208.6434 281.7256L208.6434 281.7256L153.6841 281.7256z" /></clipPath><clipPath id="5"><path clip-rule="evenodd" d="M71.99004 318.0085L514.8515 318.0085L514.8515 318.0085L514.8515 281.7043L514.8515 281.7043L71.99004 281.7043z" /></clipPath><clipPath id="6"><path clip-rule="evenodd" d="M71.99004 318.0085L514.8515 318.0085L514.8515 318.0085L514.8515 281.7043L514.8515 281.7043L71.99004 281.7043z" /></clipPath><clipPath id="7"><path clip-rule="evenodd" d="M142.4272 520.4714L360.8799 520.4714L360.8799 520.4714L360.8799 507.2147L360.8799 507.2147L142.4272 507.2147z" /></clipPath><clipPath id="8"><path clip-rule="evenodd" d="M142.4272 520.4714L360.8799 520.4714L360.8799 520.4714L360.8799 507.2147L360.8799 507.2147L142.4272 507.2147z" /></clipPath><clipPath id="9"><path clip-rule="evenodd" d="M72 531.9951L531.3652 531.9951L531.3652 531.9951L531.3652 507.2147L531.3652 507.2147L72 507.2147z" /></clipPath><clipPath id="10"><path clip-rule="evenodd" d="M72 531.9951L531.3652 531.9951L531.3652 531.9951L531.3652 507.2147L531.3652 507.2147L72 507.2147z" /></clipPath><clipPath id="11"><path clip-rule="evenodd" d="M72 566.4468L530.3792 566.4468L530.3792 566.4468L530.3792 541.6663L530.3792 541.6663L72 541.6663z" /></clipPath><clipPath id="12"><path clip-rule="evenodd" d="M72 566.4468L530.3792 566.4468L530.3792 566.4468L530.3792 541.6663L530.3792 541.6663L72 541.6663z" /></clipPath><clipPath id="13"><path clip-rule="evenodd" d="M288.578 656.371L427.4369 656.371L427.4369 656.371L427.4369 645.6697L427.4369 645.6697L288.578 645.6697z" /></clipPath><clipPath id="14"><path clip-rule="evenodd" d="M288.578 656.371L427.4369 656.371L427.4369 656.371L427.4369 645.6697L427.4369 645.6697L288.578 645.6697z" /></clipPath><clipPath id="15"><path clip-rule="evenodd" d="M71.99652 674.7263L533.7418 674.7263L533.7418 674.7263L533.7418 654.7871L533.7418 654.7871L71.99652 654.7871z" /></clipPath><clipPath id="16"><path clip-rule="evenodd" d="M71.99652 674.7263L533.7418 674.7263L533.7418 674.7263L533.7418 654.7871L533.7418 654.7871L71.99652 654.7871z" /></clipPath></defs><g transform="matrix(1.333333 0 0 1.333333 0 0)"><g clip-path="url(#1)"><g clip-path="url(#2)"><path transform="matrix(1 0 0 -1 0 792)" d="M72 194.64L216 194.64L216 194.64L216 195.36L216 195.36L72 195.36z" stroke="none" fill="#000000" fill-rule="evenodd" /><path transform="matrix(1 0 0 -1 0 792)" d="M66.12 417L66.60001 417L66.60001 417L66.60001 417.48L66.60001 417.48L66.12 417.48z" stroke="none" fill="#000000" fill-rule="evenodd" /><path transform="matrix(1 0 0 -1 0 792)" d="M66.12 417L66.60001 417L66.60001 417L66.60001 417.48L66.60001 417.48L66.12 417.48z" stroke="none" fill="#000000" fill-rule="evenodd" /><path transform="matrix(1 0 0 -1 0 792)" d="M66.6 417L545.4 417L545.4 417L545.4 417.48L545.4 417.48L66.6 417.48z" stroke="none" fill="#000000" fill-rule="evenodd" /><path transform="matrix(1 0 0 -1 0 792)" d="M545.4 417L545.88 417L545.88 417L545.88 417.48L545.88 417.48L545.4 417.48z" stroke="none" fill="#000000" fill-rule="evenodd" /><path transform="matrix(1 0 0 -1 0 792)" d="M545.4 417L545.88 417L545.88 417L545.88 417.48L545.88 417.48L545.4 417.48z" stroke="none" fill="#000000" fill-rule="evenodd" /><path transform="matrix(1 0 0 -1 0 792)" d="M66.12 402.48L66.60001 402.48L66.60001 402.48L66.60001 417L66.60001 417L66.12 417z" stroke="none" fill="#000000" fill-rule="evenodd" /><path transform="matrix(1 0 0 -1 0 792)" d="M545.4 402.48L545.88 402.48L545.88 402.48L545.88 417L545.88 417L545.4 417z" stroke="none" fill="#000000" fill-rule="evenodd" /><path transform="matrix(1 0 0 -1 0 792)" d="M66.12 387.48L66.60001 387.48L66.60001 387.48L66.60001 387.96L66.60001 387.96L66.12 387.96z" stroke="none" fill="#000000" fill-rule="evenodd" /><path transform="matrix(1 0 0 -1 0 792)" d="M66.12 387.48L66.60001 387.48L66.60001 387.48L66.60001 387.96L66.60001 387.96L66.12 387.96z" stroke="none" fill="#000000" fill-rule="evenodd" /><path transform="matrix(1 0 0 -1 0 792)" d="M66.6 387.48L545.4 387.48L545.4 387.48L545.4 387.96L545.4 387.96L66.6 387.96z" stroke="none" fill="#000000" fill-rule="evenodd" /><path transform="matrix(1 0 0 -1 0 792)" d="M545.4 387.48L545.88 387.48L545.88 387.48L545.88 387.96L545.88 387.96L545.4 387.96z" stroke="none" fill="#000000" fill-rule="evenodd" /><path transform="matrix(1 0 0 -1 0 792)" d="M545.4 387.48L545.88 387.48L545.88 387.48L545.88 387.96L545.88 387.96L545.4 387.96z" stroke="none" fill="#000000" fill-rule="evenodd" /><path transform="matrix(1 0 0 -1 0 792)" d="M66.12 387.96L66.60001 387.96L66.60001 387.96L66.60001 402.48L66.60001 402.48L66.12 402.48z" stroke="none" fill="#000000" fill-rule="evenodd" /><path transform="matrix(1 0 0 -1 0 792)" d="M545.4 387.96L545.88 387.96L545.88 387.96L545.88 402.48L545.88 402.48L545.4 402.48z" stroke="none" fill="#000000" fill-rule="evenodd" /><g transform="matrix(0.7499063 0 0 0.7499064 73.5 72)"><g transform="matrix(1 0 0 1 0 0)"><image x="0" y="0" xlink:href="img_25.png" width="601" height="204" /></g></g></g><g clip-path="url(#3)"><g clip-path="url(#4)"><path transform="matrix(1 0 0 -1 0 792)" d="M152.3584 495.692L209.9691 495.692L209.9691 511.6001L152.3584 511.6001z" stroke="none" fill="#F6DB09" fill-rule="nonzero" /></g></g><g clip-path="url(#5)"><g clip-path="url(#6)"><path transform="matrix(1 0 0 -1 0 792)" d="M236.7673 495.7132L505.022 495.7132L505.022 511.6214L236.7673 511.6214z" stroke="none" fill="#F6DB09" fill-rule="nonzero" /><path transform="matrix(1 0 0 -1 0 792)" d="M70.66436 484.1895L516.1771 484.1895L516.1771 500.0977L70.66436 500.0977z" stroke="none" fill="#F6DB09" fill-rule="nonzero" /><path transform="matrix(1 0 0 -1 0 792)" d="M70.66438 472.6658L119.5102 472.6658L119.5102 488.5739L70.66438 488.5739z" stroke="none" fill="#F6DB09" fill-rule="nonzero" /></g></g><g clip-path="url(#7)"><g clip-path="url(#8)"><path transform="matrix(1 0 0 -1 0 792)" d="M141.1015 270.2029L362.2056 270.2029L362.2056 286.111L141.1015 286.111z" stroke="none" fill="#F6DB09" fill-rule="nonzero" /></g></g><g clip-path="url(#9)"><g clip-path="url(#10)"><path transform="matrix(1 0 0 -1 0 792)" d="M404.5435 270.2029L532.6908 270.2029L532.6908 286.111L404.5435 286.111z" stroke="none" fill="#F6DB09" fill-rule="nonzero" /><path transform="matrix(1 0 0 -1 0 792)" d="M70.67433 258.6792L304.4873 258.6792L304.4873 274.5873L70.67433 274.5873z" stroke="none" fill="#F6DB09" fill-rule="nonzero" /></g></g><g clip-path="url(#11)"><g clip-path="url(#12)"><path transform="matrix(1 0 0 -1 0 792)" d="M431.2661 235.7512L531.7049 235.7512L531.7049 251.6594L431.2661 251.6594z" stroke="none" fill="#F6DB09" fill-rule="nonzero" /><path transform="matrix(1 0 0 -1 0 792)" d="M70.67432 224.2275L382.8427 224.2275L382.8427 240.1357L70.67432 240.1357z" stroke="none" fill="#F6DB09" fill-rule="nonzero" /></g></g><g clip-path="url(#13)"><g clip-path="url(#14)"><path transform="matrix(1 0 0 -1 0 792)" d="M287.5079 134.5589L428.5071 134.5589L428.5071 147.4004L287.5079 147.4004z" stroke="none" fill="#F6DB09" fill-rule="nonzero" /></g></g><g clip-path="url(#15)"><g clip-path="url(#16)"><path transform="matrix(1 0 0 -1 0 792)" d="M336.4876 125.4416L534.8119 125.4416L534.8119 138.283L336.4876 138.283z" stroke="none" fill="#F6DB09" fill-rule="nonzero" /><path transform="matrix(1 0 0 -1 0 792)" d="M70.92639 116.2036L156.2163 116.2036L156.2163 129.0451L70.92639 129.0451z" stroke="none" fill="#F6DB09" fill-rule="nonzero" /></g></g></g></g></svg>