<svg xmlns="http://www.w3.org/2000/svg" xmlns:xlink="http://www.w3.org/1999/xlink" id="body_34" preserveAspectRatio="xMinYMin meet" viewBox="0 0 816 1056"><defs><clipPath id="1"><path clip-rule="evenodd" d="M0 792L0 0L0 0L612 0L612 0L612 792L612 792L0 792z" /></clipPath><clipPath id="2"><path clip-rule="evenodd" d="M0 792L612 792L612 792L612 0L612 0L0 0z" /></clipPath><clipPath id="3"><path clip-rule="evenodd" d="M71.98008 202.1282L525.2498 202.1282L525.2498 202.1282L525.2498 176.9195L525.2498 176.9195L71.98008 176.9195z" /></clipPath><clipPath id="4"><path clip-rule="evenodd" d="M71.98008 202.1282L525.2498 202.1282L525.2498 202.1282L525.2498 176.9195L525.2498 176.9195L71.98008 176.9195z" /></clipPath><clipPath id="5"><path clip-rule="evenodd" d="M72 659.5472L356.4576 659.5472L356.4576 659.5472L356.4576 646.2905L356.4576 646.2905L72 646.2905z" /></clipPath><clipPath id="6"><path clip-rule="evenodd" d="M72 659.5472L356.4576 659.5472L356.4576 659.5472L356.4576 646.2905L356.4576 646.2905L72 646.2905z" /></clipPath><clipPath id="7"><path clip-rule="evenodd" d="M200.8426 648.0235L393.21 648.0235L393.21 648.0235L393.21 634.7668L393.21 634.7668L200.8426 634.7668z" /></clipPath><clipPath id="8"><path clip-rule="evenodd" d="M200.8426 648.0235L393.21 648.0235L393.21 648.0235L393.21 634.7668L393.21 634.7668L200.8426 634.7668z" /></clipPath></defs><g transform="matrix(1.333333 0 0 1.333333 0 0)"><g clip-path="url(#1)"><g clip-path="url(#2)"><path transform="matrix(1 0 0 -1 0 792)" d="M66.12 349.2L66.60001 349.2L66.60001 349.2L66.60001 349.68L66.60001 349.68L66.12 349.68z" stroke="none" fill="#000000" fill-rule="evenodd" /><path transform="matrix(1 0 0 -1 0 792)" d="M66.12 349.2L66.60001 349.2L66.60001 349.2L66.60001 349.68L66.60001 349.68L66.12 349.68z" stroke="none" fill="#000000" fill-rule="evenodd" /><path transform="matrix(1 0 0 -1 0 792)" d="M66.6 349.2L545.4 349.2L545.4 349.2L545.4 349.68L545.4 349.68L66.6 349.68z" stroke="none" fill="#000000" fill-rule="evenodd" /><path transform="matrix(1 0 0 -1 0 792)" d="M545.4 349.2L545.88 349.2L545.88 349.2L545.88 349.68L545.88 349.68L545.4 349.68z" stroke="none" fill="#000000" fill-rule="evenodd" /><path transform="matrix(1 0 0 -1 0 792)" d="M545.4 349.2L545.88 349.2L545.88 349.2L545.88 349.68L545.88 349.68L545.4 349.68z" stroke="none" fill="#000000" fill-rule="evenodd" /><path transform="matrix(1 0 0 -1 0 792)" d="M66.12 334.68L66.60001 334.68L66.60001 334.68L66.60001 349.2L66.60001 349.2L66.12 349.2z" stroke="none" fill="#000000" fill-rule="evenodd" /><path transform="matrix(1 0 0 -1 0 792)" d="M545.4 334.68L545.88 334.68L545.88 334.68L545.88 349.2L545.88 349.2L545.4 349.2z" stroke="none" fill="#000000" fill-rule="evenodd" /><path transform="matrix(1 0 0 -1 0 792)" d="M66.12 323.28L66.60001 323.28L66.60001 323.28L66.60001 334.68L66.60001 334.68L66.12 334.68z" stroke="none" fill="#000000" fill-rule="evenodd" /><path transform="matrix(1 0 0 -1 0 792)" d="M545.4 323.28L545.88 323.28L545.88 323.28L545.88 334.68L545.88 334.68L545.4 334.68z" stroke="none" fill="#000000" fill-rule="evenodd" /><path transform="matrix(1 0 0 -1 0 792)" d="M66.12 311.76L66.60001 311.76L66.60001 311.76L66.60001 323.28L66.60001 323.28L66.12 323.28z" stroke="none" fill="#000000" fill-rule="evenodd" /><path transform="matrix(1 0 0 -1 0 792)" d="M545.4 311.76L545.88 311.76L545.88 311.76L545.88 323.28L545.88 323.28L545.4 323.28z" stroke="none" fill="#000000" fill-rule="evenodd" /><path transform="matrix(1 0 0 -1 0 792)" d="M66.12 300.24L66.60001 300.24L66.60001 300.24L66.60001 311.76L66.60001 311.76L66.12 311.76z" stroke="none" fill="#000000" fill-rule="evenodd" /><path transform="matrix(1 0 0 -1 0 792)" d="M545.4 300.24L545.88 300.24L545.88 300.24L545.88 311.76L545.88 311.76L545.4 311.76z" stroke="none" fill="#000000" fill-rule="evenodd" /><path transform="matrix(1 0 0 -1 0 792)" d="M66.12 288.72L66.60001 288.72L66.60001 288.72L66.60001 300.24L66.60001 300.24L66.12 300.24z" stroke="none" fill="#000000" fill-rule="evenodd" /><path transform="matrix(1 0 0 -1 0 792)" d="M545.4 288.72L545.88 288.72L545.88 288.72L545.88 300.24L545.88 300.24L545.4 300.24z" stroke="none" fill="#000000" fill-rule="evenodd" /><path transform="matrix(1 0 0 -1 0 792)" d="M66.12 273.72L66.60001 273.72L66.60001 273.72L66.60001 274.2L66.60001 274.2L66.12 274.2z" stroke="none" fill="#000000" fill-rule="evenodd" /><path transform="matrix(1 0 0 -1 0 792)" d="M66.12 273.72L66.60001 273.72L66.60001 273.72L66.60001 274.2L66.60001 274.2L66.12 274.2z" stroke="none" fill="#000000" fill-rule="evenodd" /><path transform="matrix(1 0 0 -1 0 792)" d="M66.6 273.72L545.4 273.72L545.4 273.72L545.4 274.2L545.4 274.2L66.6 274.2z" stroke="none" fill="#000000" fill-rule="evenodd" /><path transform="matrix(1 0 0 -1 0 792)" d="M545.4 273.72L545.88 273.72L545.88 273.72L545.88 274.2L545.88 274.2L545.4 274.2z" stroke="none" fill="#000000" fill-rule="evenodd" /><path transform="matrix(1 0 0 -1 0 792)" d="M545.4 273.72L545.88 273.72L545.88 273.72L545.88 274.2L545.88 274.2L545.4 274.2z" stroke="none" fill="#000000" fill-rule="evenodd" /><path transform="matrix(1 0 0 -1 0 792)" d="M66.12 274.2L66.60001 274.2L66.60001 274.2L66.60001 288.72L66.60001 288.72L66.12 288.72z" stroke="none" fill="#000000" fill-rule="evenodd" /><path transform="matrix(1 0 0 -1 0 792)" d="M545.4 274.2L545.88 274.2L545.88 274.2L545.88 288.72L545.88 288.72L545.4 288.72z" stroke="none" fill="#000000" fill-rule="evenodd" /></g><g clip-path="url(#3)"><g clip-path="url(#4)"><path transform="matrix(1 0 0 -1 0 792)" d="M286.1839 599.8954L526.6302 599.8954L526.6302 616.4609L286.1839 616.4609z" stroke="none" fill="#F6DB09" fill-rule="nonzero" /><path transform="matrix(1 0 0 -1 0 792)" d="M70.59963 588.4914L224.9518 588.4914L224.9518 605.0568L70.59963 605.0568z" stroke="none" fill="#F6DB09" fill-rule="nonzero" /></g></g><g clip-path="url(#5)"><g clip-path="url(#6)"><path transform="matrix(1 0 0 -1 0 792)" d="M70.67433 131.1271L357.7832 131.1271L357.7832 147.0352L70.67433 147.0352z" stroke="none" fill="#F6DB09" fill-rule="nonzero" /></g></g><g clip-path="url(#7)"><g clip-path="url(#8)"><path transform="matrix(1 0 0 -1 0 792)" d="M199.5169 142.6508L394.5356 142.6508L394.5356 158.5589L199.5169 158.5589z" stroke="none" fill="#F6DB09" fill-rule="nonzero" /></g></g></g></g></svg>