<svg xmlns="http://www.w3.org/2000/svg" xmlns:xlink="http://www.w3.org/1999/xlink" id="body_6" preserveAspectRatio="xMinYMin meet" viewBox="0 0 816 1056"><defs><clipPath id="1"><path clip-rule="evenodd" d="M0 792L0 0L0 0L612 0L612 0L612 792L612 792L0 792z" /></clipPath><clipPath id="2"><path clip-rule="evenodd" d="M0 792L612 792L612 792L612 0L612 0L0 0z" /></clipPath></defs><g transform="matrix(1.333333 0 0 1.333333 0 0)"><g clip-path="url(#1)"><g clip-path="url(#2)"><path transform="matrix(1 0 0 -1 0 792)" d="M114.6 692.64L454.8 692.64L454.8 692.64L454.8 695.16L454.8 695.16L114.6 695.16z" stroke="none" fill="#000000" fill-rule="evenodd" /><path transform="matrix(1 0 0 -1 0 792)" d="M454.8 692.64L497.4 692.64L497.4 692.64L497.4 695.16L497.4 695.16L454.8 695.16z" stroke="none" fill="#000000" fill-rule="evenodd" /><path transform="matrix(1 0 0 -1 0 792)" d="M248.64 665.04L363.36 665.04L363.36 665.04L363.36 667.56L363.36 667.56L248.64 667.56z" stroke="none" fill="#000000" fill-rule="evenodd" /><path transform="matrix(1 0 0 -1 0 792)" d="M72 148.56L216 148.56L216 148.56L216 149.28L216 149.28L72 149.28z" stroke="none" fill="#000000" fill-rule="evenodd" /></g></g></g></svg>