<svg xmlns="http://www.w3.org/2000/svg" xmlns:xlink="http://www.w3.org/1999/xlink" id="body_10" preserveAspectRatio="xMinYMin meet" viewBox="0 0 816 1056"><defs><clipPath id="1"><path clip-rule="evenodd" d="M0 792L0 0L0 0L612 0L612 0L612 792L612 792L0 792z" /></clipPath><clipPath id="2"><path clip-rule="evenodd" d="M0 792L612 792L612 792L612 0L612 0L0 0z" /></clipPath><clipPath id="3"><path clip-rule="evenodd" d="M162.9469 117.8039L386.3298 117.8039L386.3298 117.8039L386.3298 106.6786L386.3298 106.6786L162.9469 106.6786z" /></clipPath><clipPath id="4"><path clip-rule="evenodd" d="M162.9469 117.8039L386.3298 117.8039L386.3298 117.8039L386.3298 106.6786L386.3298 106.6786L162.9469 106.6786z" /></clipPath><clipPath id="5"><path clip-rule="evenodd" d="M107.9976 152.375L532.0148 152.375L532.0148 152.375L532.0148 118.2023L532.0148 118.2023L107.9976 118.2023z" /></clipPath><clipPath id="6"><path clip-rule="evenodd" d="M107.9976 152.375L532.0148 152.375L532.0148 152.375L532.0148 118.2023L532.0148 118.2023L107.9976 118.2023z" /></clipPath><clipPath id="7"><path clip-rule="evenodd" d="M107.9976 175.4225L538.2397 175.4225L538.2397 175.4225L538.2397 141.2497L538.2397 141.2497L107.9976 141.2497z" /></clipPath><clipPath id="8"><path clip-rule="evenodd" d="M107.9976 175.4225L538.2397 175.4225L538.2397 175.4225L538.2397 141.2497L538.2397 141.2497L107.9976 141.2497z" /></clipPath><clipPath id="9"><path clip-rule="evenodd" d="M107.9976 221.3978L529.6841 221.3978L529.6841 221.3978L529.6841 198.7488L529.6841 198.7488L107.9976 198.7488z" /></clipPath><clipPath id="10"><path clip-rule="evenodd" d="M107.9976 221.3978L529.6841 221.3978L529.6841 221.3978L529.6841 198.7488L529.6841 198.7488L107.9976 198.7488z" /></clipPath></defs><g transform="matrix(1.333333 0 0 1.333333 0 0)"><g clip-path="url(#1)"><g clip-path="url(#2)"><path transform="matrix(1 0 0 -1 0 792)" d="M72 213L216 213L216 213L216 213.72L216 213.72L72 213.72z" stroke="none" fill="#000000" fill-rule="evenodd" /></g><g clip-path="url(#3)"><g clip-path="url(#4)"><path transform="matrix(1 0 0 -1 0 792)" d="M161.8344 673.0836L387.4424 673.0836L387.4424 686.434L161.8344 686.434z" stroke="none" fill="#F8E29D" fill-rule="nonzero" /></g></g><g clip-path="url(#5)"><g clip-path="url(#6)"><path transform="matrix(1 0 0 -1 0 792)" d="M323.0071 661.5599L513.6355 661.5599L513.6355 674.9103L323.0071 674.9103z" stroke="none" fill="#F8E29D" fill-rule="nonzero" /><path transform="matrix(1 0 0 -1 0 792)" d="M106.8851 650.0362L533.1274 650.0362L533.1274 663.3865L106.8851 663.3865z" stroke="none" fill="#F8E29D" fill-rule="nonzero" /><path transform="matrix(1 0 0 -1 0 792)" d="M106.8851 638.5125L288.6889 638.5125L288.6889 651.8629L106.8851 651.8629z" stroke="none" fill="#F8E29D" fill-rule="nonzero" /></g></g><g clip-path="url(#7)"><g clip-path="url(#8)"><path transform="matrix(1 0 0 -1 0 792)" d="M289.2128 638.5125L531.4939 638.5125L531.4939 651.8629L289.2128 651.8629z" stroke="none" fill="#F8E29D" fill-rule="nonzero" /><path transform="matrix(1 0 0 -1 0 792)" d="M106.8851 626.9888L539.3523 626.9888L539.3523 640.3391L106.8851 640.3391z" stroke="none" fill="#F8E29D" fill-rule="nonzero" /><path transform="matrix(1 0 0 -1 0 792)" d="M106.8851 615.465L270.2132 615.465L270.2132 628.8154L106.8851 628.8154z" stroke="none" fill="#F8E29D" fill-rule="nonzero" /></g></g><g clip-path="url(#9)"><g clip-path="url(#10)"><path transform="matrix(1 0 0 -1 0 792)" d="M106.8851 581.0134L530.7967 581.0134L530.7967 594.3638L106.8851 594.3638z" stroke="none" fill="#F8E29D" fill-rule="nonzero" /><path transform="matrix(1 0 0 -1 0 792)" d="M106.8851 569.4896L391.8547 569.4896L391.8547 582.84L106.8851 582.84z" stroke="none" fill="#F8E29D" fill-rule="nonzero" /></g></g></g></g></svg>