<svg xmlns="http://www.w3.org/2000/svg" xmlns:xlink="http://www.w3.org/1999/xlink" id="body_8" preserveAspectRatio="xMinYMin meet" viewBox="0 0 816 1056"><defs><clipPath id="1"><path clip-rule="evenodd" d="M0 792L0 0L0 0L612 0L612 0L612 792L612 792L0 792z" /></clipPath><clipPath id="2"><path clip-rule="evenodd" d="M0 792L612 792L612 792L612 0L612 0L0 0z" /></clipPath><clipPath id="3"><path clip-rule="evenodd" d="M71.99988 659.9683L537.4407 659.9683L537.4407 659.9683L537.4407 588.6647L537.4407 588.6647L71.99988 588.6647z" /></clipPath><clipPath id="4"><path clip-rule="evenodd" d="M71.99988 659.9683L537.4407 659.9683L537.4407 659.9683L537.4407 588.6647L537.4407 588.6647L71.99988 588.6647z" /></clipPath></defs><g transform="matrix(1.333333 0 0 1.333333 0 0)"><g clip-path="url(#1)"><g clip-path="url(#2)"><path transform="matrix(1 0 0 -1 0 792)" d="M72 111.84L216 111.84L216 111.84L216 112.56L216 112.56L72 112.56z" stroke="none" fill="#000000" fill-rule="evenodd" /></g><g clip-path="url(#3)"><g clip-path="url(#4)"><path transform="matrix(1 0 0 -1 0 792)" d="M175.1596 188.1503L507.5567 188.1503L507.5567 204.7158L175.1596 204.7158z" stroke="none" fill="#F7DC0A" fill-rule="nonzero" /><path transform="matrix(1 0 0 -1 0 792)" d="M70.61942 176.6265L538.821 176.6265L538.821 193.1921L70.61942 193.1921z" stroke="none" fill="#F7DC0A" fill-rule="nonzero" /><path transform="matrix(1 0 0 -1 0 792)" d="M70.61942 165.1028L534.8372 165.1028L534.8372 181.6684L70.61942 181.6684z" stroke="none" fill="#F7DC0A" fill-rule="nonzero" /><path transform="matrix(1 0 0 -1 0 792)" d="M70.61942 153.5791L498.4533 153.5791L498.4533 170.1447L70.61942 170.1447z" stroke="none" fill="#F7DC0A" fill-rule="nonzero" /><path transform="matrix(1 0 0 -1 0 792)" d="M70.61942 142.1749L518.3035 142.1749L518.3035 158.7404L70.61942 158.7404z" stroke="none" fill="#F7DC0A" fill-rule="nonzero" /><path transform="matrix(1 0 0 -1 0 792)" d="M70.61943 130.6512L254.3734 130.6512L254.3734 147.2166L70.61943 147.2166z" stroke="none" fill="#F7DC0A" fill-rule="nonzero" /></g></g></g></g></svg>