<svg xmlns="http://www.w3.org/2000/svg" xmlns:xlink="http://www.w3.org/1999/xlink" id="body_32" preserveAspectRatio="xMinYMin meet" viewBox="0 0 816 1056"><defs><clipPath id="1"><path clip-rule="evenodd" d="M0 792L0 0L0 0L612 0L612 0L612 792L612 792L0 792z" /></clipPath><clipPath id="2"><path clip-rule="evenodd" d="M0 792L612 792L612 792L612 0L612 0L0 0z" /></clipPath><clipPath id="3"><path clip-rule="evenodd" d="M72 717.4236L535.8174 717.4236L535.8174 717.4236L535.8174 692.0953L535.8174 692.0953L72 692.0953z" /></clipPath><clipPath id="4"><path clip-rule="evenodd" d="M72 717.4236L535.8174 717.4236L535.8174 717.4236L535.8174 692.0953L535.8174 692.0953L72 692.0953z" /></clipPath></defs><g transform="matrix(1.333333 0 0 1.333333 0 0)"><g clip-path="url(#1)"><g clip-path="url(#2)"><path transform="matrix(1 0 0 -1 0 792)" d="M66.12 372.24L66.60001 372.24L66.60001 372.24L66.60001 372.72L66.60001 372.72L66.12 372.72z" stroke="none" fill="#000000" fill-rule="evenodd" /><path transform="matrix(1 0 0 -1 0 792)" d="M66.12 372.24L66.60001 372.24L66.60001 372.24L66.60001 372.72L66.60001 372.72L66.12 372.72z" stroke="none" fill="#000000" fill-rule="evenodd" /><path transform="matrix(1 0 0 -1 0 792)" d="M66.6 372.24L545.4 372.24L545.4 372.24L545.4 372.72L545.4 372.72L66.6 372.72z" stroke="none" fill="#000000" fill-rule="evenodd" /><path transform="matrix(1 0 0 -1 0 792)" d="M545.4 372.24L545.88 372.24L545.88 372.24L545.88 372.72L545.88 372.72L545.4 372.72z" stroke="none" fill="#000000" fill-rule="evenodd" /><path transform="matrix(1 0 0 -1 0 792)" d="M545.4 372.24L545.88 372.24L545.88 372.24L545.88 372.72L545.88 372.72L545.4 372.72z" stroke="none" fill="#000000" fill-rule="evenodd" /><path transform="matrix(1 0 0 -1 0 792)" d="M66.12 357.72L66.60001 357.72L66.60001 357.72L66.60001 372.24L66.60001 372.24L66.12 372.24z" stroke="none" fill="#000000" fill-rule="evenodd" /><path transform="matrix(1 0 0 -1 0 792)" d="M545.4 357.72L545.88 357.72L545.88 357.72L545.88 372.24L545.88 372.24L545.4 372.24z" stroke="none" fill="#000000" fill-rule="evenodd" /><path transform="matrix(1 0 0 -1 0 792)" d="M66.12 346.2L66.60001 346.2L66.60001 346.2L66.60001 357.72L66.60001 357.72L66.12 357.72z" stroke="none" fill="#000000" fill-rule="evenodd" /><path transform="matrix(1 0 0 -1 0 792)" d="M545.4 346.2L545.88 346.2L545.88 346.2L545.88 357.72L545.88 357.72L545.4 357.72z" stroke="none" fill="#000000" fill-rule="evenodd" /><path transform="matrix(1 0 0 -1 0 792)" d="M66.12 334.68L66.60001 334.68L66.60001 334.68L66.60001 346.2L66.60001 346.2L66.12 346.2z" stroke="none" fill="#000000" fill-rule="evenodd" /><path transform="matrix(1 0 0 -1 0 792)" d="M545.4 334.68L545.88 334.68L545.88 334.68L545.88 346.2L545.88 346.2L545.4 346.2z" stroke="none" fill="#000000" fill-rule="evenodd" /><path transform="matrix(1 0 0 -1 0 792)" d="M66.12 323.28L66.60001 323.28L66.60001 323.28L66.60001 334.68L66.60001 334.68L66.12 334.68z" stroke="none" fill="#000000" fill-rule="evenodd" /><path transform="matrix(1 0 0 -1 0 792)" d="M545.4 323.28L545.88 323.28L545.88 323.28L545.88 334.68L545.88 334.68L545.4 334.68z" stroke="none" fill="#000000" fill-rule="evenodd" /><path transform="matrix(1 0 0 -1 0 792)" d="M66.12 311.76L66.60001 311.76L66.60001 311.76L66.60001 323.28L66.60001 323.28L66.12 323.28z" stroke="none" fill="#000000" fill-rule="evenodd" /><path transform="matrix(1 0 0 -1 0 792)" d="M545.4 311.76L545.88 311.76L545.88 311.76L545.88 323.28L545.88 323.28L545.4 323.28z" stroke="none" fill="#000000" fill-rule="evenodd" /><path transform="matrix(1 0 0 -1 0 792)" d="M66.12 300.24L66.60001 300.24L66.60001 300.24L66.60001 311.76L66.60001 311.76L66.12 311.76z" stroke="none" fill="#000000" fill-rule="evenodd" /><path transform="matrix(1 0 0 -1 0 792)" d="M545.4 300.24L545.88 300.24L545.88 300.24L545.88 311.76L545.88 311.76L545.4 311.76z" stroke="none" fill="#000000" fill-rule="evenodd" /><path transform="matrix(1 0 0 -1 0 792)" d="M66.12 288.72L66.60001 288.72L66.60001 288.72L66.60001 300.24L66.60001 300.24L66.12 300.24z" stroke="none" fill="#000000" fill-rule="evenodd" /><path transform="matrix(1 0 0 -1 0 792)" d="M545.4 288.72L545.88 288.72L545.88 288.72L545.88 300.24L545.88 300.24L545.4 300.24z" stroke="none" fill="#000000" fill-rule="evenodd" /><path transform="matrix(1 0 0 -1 0 792)" d="M66.12 277.2L66.60001 277.2L66.60001 277.2L66.60001 288.72L66.60001 288.72L66.12 288.72z" stroke="none" fill="#000000" fill-rule="evenodd" /><path transform="matrix(1 0 0 -1 0 792)" d="M545.4 277.2L545.88 277.2L545.88 277.2L545.88 288.72L545.88 288.72L545.4 288.72z" stroke="none" fill="#000000" fill-rule="evenodd" /><path transform="matrix(1 0 0 -1 0 792)" d="M66.12 265.68L66.60001 265.68L66.60001 265.68L66.60001 277.2L66.60001 277.2L66.12 277.2z" stroke="none" fill="#000000" fill-rule="evenodd" /><path transform="matrix(1 0 0 -1 0 792)" d="M545.4 265.68L545.88 265.68L545.88 265.68L545.88 277.2L545.88 277.2L545.4 277.2z" stroke="none" fill="#000000" fill-rule="evenodd" /><path transform="matrix(1 0 0 -1 0 792)" d="M66.12 254.28L66.60001 254.28L66.60001 254.28L66.60001 265.68L66.60001 265.68L66.12 265.68z" stroke="none" fill="#000000" fill-rule="evenodd" /><path transform="matrix(1 0 0 -1 0 792)" d="M545.4 254.28L545.88 254.28L545.88 254.28L545.88 265.68L545.88 265.68L545.4 265.68z" stroke="none" fill="#000000" fill-rule="evenodd" /><path transform="matrix(1 0 0 -1 0 792)" d="M66.12 239.28L66.60001 239.28L66.60001 239.28L66.60001 239.76L66.60001 239.76L66.12 239.76z" stroke="none" fill="#000000" fill-rule="evenodd" /><path transform="matrix(1 0 0 -1 0 792)" d="M66.12 239.28L66.60001 239.28L66.60001 239.28L66.60001 239.76L66.60001 239.76L66.12 239.76z" stroke="none" fill="#000000" fill-rule="evenodd" /><path transform="matrix(1 0 0 -1 0 792)" d="M66.6 239.28L545.4 239.28L545.4 239.28L545.4 239.76L545.4 239.76L66.6 239.76z" stroke="none" fill="#000000" fill-rule="evenodd" /><path transform="matrix(1 0 0 -1 0 792)" d="M545.4 239.28L545.88 239.28L545.88 239.28L545.88 239.76L545.88 239.76L545.4 239.76z" stroke="none" fill="#000000" fill-rule="evenodd" /><path transform="matrix(1 0 0 -1 0 792)" d="M545.4 239.28L545.88 239.28L545.88 239.28L545.88 239.76L545.88 239.76L545.4 239.76z" stroke="none" fill="#000000" fill-rule="evenodd" /><path transform="matrix(1 0 0 -1 0 792)" d="M66.12 239.76L66.60001 239.76L66.60001 239.76L66.60001 254.28L66.60001 254.28L66.12 254.28z" stroke="none" fill="#000000" fill-rule="evenodd" /><path transform="matrix(1 0 0 -1 0 792)" d="M545.4 239.76L545.88 239.76L545.88 239.76L545.88 254.28L545.88 254.28L545.4 254.28z" stroke="none" fill="#000000" fill-rule="evenodd" /></g><g clip-path="url(#3)"><g clip-path="url(#4)"><path transform="matrix(1 0 0 -1 0 792)" d="M70.61954 84.71966L537.1978 84.71966L537.1978 101.2851L70.61954 101.2851z" stroke="none" fill="#F6DB09" fill-rule="nonzero" /><path transform="matrix(1 0 0 -1 0 792)" d="M70.61954 73.19595L206.0576 73.19595L206.0576 89.76141L70.61954 89.76141z" stroke="none" fill="#F6DB09" fill-rule="nonzero" /></g></g></g></g></svg>