<svg xmlns="http://www.w3.org/2000/svg" xmlns:xlink="http://www.w3.org/1999/xlink" id="body_27" preserveAspectRatio="xMinYMin meet" viewBox="0 0 816 1056"><defs><clipPath id="1"><path clip-rule="evenodd" d="M0 792L0 0L0 0L612 0L612 0L612 792L612 792L0 792z" /></clipPath><clipPath id="2"><path clip-rule="evenodd" d="M0 792L612 792L612 792L612 0L612 0L0 0z" /></clipPath><clipPath id="3"><path clip-rule="evenodd" d="M71.9922 84.47772L294.7078 84.47772L294.7078 84.47772L294.7078 71.22089L294.7078 71.22089L71.9922 71.22089z" /></clipPath><clipPath id="4"><path clip-rule="evenodd" d="M71.9922 84.47772L294.7078 84.47772L294.7078 84.47772L294.7078 71.22089L294.7078 71.22089L71.9922 71.22089z" /></clipPath><clipPath id="5"><path clip-rule="evenodd" d="M326.0021 118.9294L529.5247 118.9294L529.5247 118.9294L529.5247 105.6726L529.5247 105.6726L326.0021 105.6726z" /></clipPath><clipPath id="6"><path clip-rule="evenodd" d="M326.0021 118.9294L529.5247 118.9294L529.5247 118.9294L529.5247 105.6726L529.5247 105.6726L326.0021 105.6726z" /></clipPath><clipPath id="7"><path clip-rule="evenodd" d="M219.1811 153.5005L376.4395 153.5005L376.4395 153.5005L376.4395 140.2438L376.4395 140.2438L219.1811 140.2438z" /></clipPath><clipPath id="8"><path clip-rule="evenodd" d="M219.1811 153.5005L376.4395 153.5005L376.4395 153.5005L376.4395 140.2438L376.4395 140.2438L219.1811 140.2438z" /></clipPath><clipPath id="9"><path clip-rule="evenodd" d="M72.00036 222.4998L528.6664 222.4998L528.6664 222.4998L528.6664 197.7193L528.6664 197.7193L72.00036 197.7193z" /></clipPath><clipPath id="10"><path clip-rule="evenodd" d="M72.00036 222.4998L528.6664 222.4998L528.6664 222.4998L528.6664 197.7193L528.6664 197.7193L72.00036 197.7193z" /></clipPath><clipPath id="11"><path clip-rule="evenodd" d="M340.3526 279.9989L442.5622 279.9989L442.5622 279.9989L442.5622 266.7421L442.5622 266.7421L340.3526 266.7421z" /></clipPath><clipPath id="12"><path clip-rule="evenodd" d="M340.3526 279.9989L442.5622 279.9989L442.5622 279.9989L442.5622 266.7421L442.5622 266.7421L340.3526 266.7421z" /></clipPath><clipPath id="13"><path clip-rule="evenodd" d="M72.00036 291.5226L535.3097 291.5226L535.3097 291.5226L535.3097 266.7421L535.3097 266.7421L72.00036 266.7421z" /></clipPath><clipPath id="14"><path clip-rule="evenodd" d="M72.00036 291.5226L535.3097 291.5226L535.3097 291.5226L535.3097 266.7421L535.3097 266.7421L72.00036 266.7421z" /></clipPath><clipPath id="15"><path clip-rule="evenodd" d="M166.8594 314.9585L366.3184 314.9585L366.3184 314.9585L366.3184 301.1539L366.3184 301.1539L166.8594 301.1539z" /></clipPath><clipPath id="16"><path clip-rule="evenodd" d="M166.8594 314.9585L366.3184 314.9585L366.3184 314.9585L366.3184 301.1539L366.3184 301.1539L166.8594 301.1539z" /></clipPath><clipPath id="17"><path clip-rule="evenodd" d="M72 406.437L380.52 406.437L380.52 406.437L380.52 393.1802L380.52 393.1802L72 393.1802z" /></clipPath><clipPath id="18"><path clip-rule="evenodd" d="M72 406.437L380.52 406.437L380.52 406.437L380.52 393.1802L380.52 393.1802L72 393.1802z" /></clipPath><clipPath id="19"><path clip-rule="evenodd" d="M387.6125 441.019L501.5847 441.019L501.5847 441.019L501.5847 427.7622L501.5847 427.7622L387.6125 427.7622z" /></clipPath><clipPath id="20"><path clip-rule="evenodd" d="M387.6125 441.019L501.5847 441.019L501.5847 441.019L501.5847 427.7622L501.5847 427.7622L387.6125 427.7622z" /></clipPath><clipPath id="21"><path clip-rule="evenodd" d="M72 441.019L131.3218 441.019L131.3218 441.019L131.3218 427.7622L131.3218 427.7622L72 427.7622z" /></clipPath><clipPath id="22"><path clip-rule="evenodd" d="M72 441.019L131.3218 441.019L131.3218 441.019L131.3218 427.7622L131.3218 427.7622L72 427.7622z" /></clipPath><clipPath id="23"><path clip-rule="evenodd" d="M256.4991 441.019L309.4165 441.019L309.4165 441.019L309.4165 427.7622L309.4165 427.7622L256.4991 427.7622z" /></clipPath><clipPath id="24"><path clip-rule="evenodd" d="M256.4991 441.019L309.4165 441.019L309.4165 441.019L309.4165 427.7622L309.4165 427.7622L256.4991 427.7622z" /></clipPath><clipPath id="25"><path clip-rule="evenodd" d="M199.2988 441.019L256.4991 441.019L256.4991 441.019L256.4991 427.7622L256.4991 427.7622L199.2988 427.7622z" /></clipPath><clipPath id="26"><path clip-rule="evenodd" d="M199.2988 441.019L256.4991 441.019L256.4991 441.019L256.4991 427.7622L256.4991 427.7622L199.2988 427.7622z" /></clipPath><clipPath id="27"><path clip-rule="evenodd" d="M72 486.9644L525.4092 486.9644L525.4092 486.9644L525.4092 462.184L525.4092 462.184L72 462.184z" /></clipPath><clipPath id="28"><path clip-rule="evenodd" d="M72 486.9644L525.4092 486.9644L525.4092 486.9644L525.4092 462.184L525.4092 462.184L72 462.184z" /></clipPath><clipPath id="29"><path clip-rule="evenodd" d="M168.5683 510.0044L171.9248 510.0044L171.9248 510.0044L171.9248 496.7477L171.9248 496.7477L168.5683 496.7477z" /></clipPath><clipPath id="30"><path clip-rule="evenodd" d="M168.5683 510.0044L171.9248 510.0044L171.9248 510.0044L171.9248 496.7477L171.9248 496.7477L168.5683 496.7477z" /></clipPath><clipPath id="31"><path clip-rule="evenodd" d="M199.275 510.0044L205.3904 510.0044L205.3904 510.0044L205.3904 496.7477L205.3904 496.7477L199.275 496.7477z" /></clipPath><clipPath id="32"><path clip-rule="evenodd" d="M199.275 510.0044L205.3904 510.0044L205.3904 510.0044L205.3904 496.7477L205.3904 496.7477L199.275 496.7477z" /></clipPath><clipPath id="33"><path clip-rule="evenodd" d="M287.0824 521.4086L503.1447 521.4086L503.1447 521.4086L503.1447 508.1519L503.1447 508.1519L287.0824 508.1519z" /></clipPath><clipPath id="34"><path clip-rule="evenodd" d="M287.0824 521.4086L503.1447 521.4086L503.1447 521.4086L503.1447 508.1519L503.1447 508.1519L287.0824 508.1519z" /></clipPath><clipPath id="35"><path clip-rule="evenodd" d="M71.99616 555.9798L271.2659 555.9798L271.2659 555.9798L271.2659 542.723L271.2659 542.723L71.99616 542.723z" /></clipPath><clipPath id="36"><path clip-rule="evenodd" d="M71.99616 555.9798L271.2659 555.9798L271.2659 555.9798L271.2659 542.723L271.2659 542.723L71.99616 542.723z" /></clipPath><clipPath id="37"><path clip-rule="evenodd" d="M111.9457 567.5035L157.9609 567.5035L157.9609 567.5035L157.9609 554.2468L157.9609 554.2468L111.9457 554.2468z" /></clipPath><clipPath id="38"><path clip-rule="evenodd" d="M111.9457 567.5035L157.9609 567.5035L157.9609 567.5035L157.9609 554.2468L157.9609 554.2468L111.9457 554.2468z" /></clipPath><clipPath id="39"><path clip-rule="evenodd" d="M275.3296 567.5035L372.0013 567.5035L372.0013 567.5035L372.0013 554.2468L372.0013 554.2468L275.3296 554.2468z" /></clipPath><clipPath id="40"><path clip-rule="evenodd" d="M275.3296 567.5035L372.0013 567.5035L372.0013 567.5035L372.0013 554.2468L372.0013 554.2468L275.3296 554.2468z" /></clipPath><clipPath id="41"><path clip-rule="evenodd" d="M164.8433 578.9077L273.1782 578.9077L273.1782 578.9077L273.1782 565.651L273.1782 565.651L164.8433 565.651z" /></clipPath><clipPath id="42"><path clip-rule="evenodd" d="M164.8433 578.9077L273.1782 578.9077L273.1782 578.9077L273.1782 565.651L273.1782 565.651L164.8433 565.651z" /></clipPath></defs><g transform="matrix(1.333333 0 0 1.333333 0 0)"><g clip-path="url(#1)"><g clip-path="url(#2)"><path transform="matrix(1 0 0 -1 0 792)" d="M72 176.16L216 176.16L216 176.16L216 176.88L216 176.88L72 176.88z" stroke="none" fill="#000000" fill-rule="evenodd" /></g><g clip-path="url(#3)"><g clip-path="url(#4)"><path transform="matrix(1 0 0 -1 0 792)" d="M70.66652 706.1966L296.0335 706.1966L296.0335 722.1048L70.66652 722.1048z" stroke="none" fill="#B3E508" fill-rule="nonzero" /></g></g><g clip-path="url(#5)"><g clip-path="url(#6)"><path transform="matrix(1 0 0 -1 0 792)" d="M324.6764 671.7449L530.8505 671.7449L530.8505 687.6531L324.6764 687.6531z" stroke="none" fill="#B3E508" fill-rule="nonzero" /></g></g><g clip-path="url(#7)"><g clip-path="url(#8)"><path transform="matrix(1 0 0 -1 0 792)" d="M217.8554 637.1738L377.7651 637.1738L377.7651 653.0819L217.8554 653.0819z" stroke="none" fill="#B3E508" fill-rule="nonzero" /></g></g><g clip-path="url(#9)"><g clip-path="url(#10)"><path transform="matrix(1 0 0 -1 0 792)" d="M344.6744 579.6982L529.9922 579.6982L529.9922 595.6064L344.6744 595.6064z" stroke="none" fill="#B3E508" fill-rule="nonzero" /><path transform="matrix(1 0 0 -1 0 792)" d="M70.67467 568.1745L193.9217 568.1745L193.9217 584.0827L70.67467 584.0827z" stroke="none" fill="#B3E508" fill-rule="nonzero" /></g></g><g clip-path="url(#11)"><g clip-path="url(#12)"><path transform="matrix(1 0 0 -1 0 792)" d="M339.0269 510.6754L443.8879 510.6754L443.8879 526.5836L339.0269 526.5836z" stroke="none" fill="#F6DB09" fill-rule="nonzero" /></g></g><g clip-path="url(#13)"><g clip-path="url(#14)"><path transform="matrix(1 0 0 -1 0 792)" d="M446.7544 510.6754L536.6355 510.6754L536.6355 526.5836L446.7544 526.5836z" stroke="none" fill="#F6DB09" fill-rule="nonzero" /><path transform="matrix(1 0 0 -1 0 792)" d="M70.67469 499.1517L149.5101 499.1517L149.5101 515.0598L70.67469 515.0598z" stroke="none" fill="#F6DB09" fill-rule="nonzero" /></g></g><g clip-path="url(#15)"><g clip-path="url(#16)"><path transform="matrix(1 0 0 -1 0 792)" d="M165.4789 475.661L367.6988 475.661L367.6988 492.2266L165.4789 492.2266z" stroke="none" fill="#F6DB09" fill-rule="nonzero" /></g></g><g clip-path="url(#17)"><g clip-path="url(#18)"><path transform="matrix(1 0 0 -1 0 792)" d="M70.67432 384.2373L381.8457 384.2373L381.8457 400.1455L70.67432 400.1455z" stroke="none" fill="#F6DB09" fill-rule="nonzero" /></g></g><g clip-path="url(#19)"><g clip-path="url(#20)"><path transform="matrix(1 0 0 -1 0 792)" d="M386.2868 349.6553L502.9104 349.6553L502.9104 365.5635L386.2868 365.5635z" stroke="none" fill="#F6DB09" fill-rule="nonzero" /></g></g><g clip-path="url(#21)"><g clip-path="url(#22)"><path transform="matrix(1 0 0 -1 0 792)" d="M70.67432 349.6553L132.6475 349.6553L132.6475 365.5635L70.67432 365.5635z" stroke="none" fill="#F6DB09" fill-rule="nonzero" /></g></g><g clip-path="url(#23)"><g clip-path="url(#24)"><path transform="matrix(1 0 0 -1 0 792)" d="M255.1734 349.6553L310.7422 349.6553L310.7422 365.5635L255.1734 365.5635z" stroke="none" fill="#F6DB09" fill-rule="nonzero" /></g></g><g clip-path="url(#25)"><g clip-path="url(#26)"><path transform="matrix(1 0 0 -1 0 792)" d="M197.9731 349.6553L257.8248 349.6553L257.8248 365.5635L197.9731 365.5635z" stroke="none" fill="#F6DB09" fill-rule="nonzero" /></g></g><g clip-path="url(#27)"><g clip-path="url(#28)"><path transform="matrix(1 0 0 -1 0 792)" d="M400.2308 315.2336L526.7347 315.2336L526.7347 331.1417L400.2308 331.1417z" stroke="none" fill="#F6DB09" fill-rule="nonzero" /><path transform="matrix(1 0 0 -1 0 792)" d="M70.67433 303.7099L190.6098 303.7099L190.6098 319.618L70.67433 319.618z" stroke="none" fill="#F6DB09" fill-rule="nonzero" /></g></g><g clip-path="url(#29)"><g clip-path="url(#30)"><path transform="matrix(1 0 0 -1 0 792)" d="M167.2426 280.6699L173.2505 280.6699L173.2505 296.5779L167.2426 296.5779z" stroke="none" fill="#F6DB09" fill-rule="nonzero" /></g></g><g clip-path="url(#31)"><g clip-path="url(#32)"><path transform="matrix(1 0 0 -1 0 792)" d="M197.9493 280.6699L206.7161 280.6699L206.7161 296.5779L197.9493 296.5779z" stroke="none" fill="#F6DB09" fill-rule="nonzero" /></g></g><g clip-path="url(#33)"><g clip-path="url(#34)"><path transform="matrix(1 0 0 -1 0 792)" d="M285.7567 269.2657L504.4703 269.2657L504.4703 285.1738L285.7567 285.1738z" stroke="none" fill="#F6DB09" fill-rule="nonzero" /></g></g><g clip-path="url(#35)"><g clip-path="url(#36)"><path transform="matrix(1 0 0 -1 0 792)" d="M70.67048 234.6945L272.5916 234.6945L272.5916 250.6027L70.67048 250.6027z" stroke="none" fill="#F6DB09" fill-rule="nonzero" /></g></g><g clip-path="url(#37)"><g clip-path="url(#38)"><path transform="matrix(1 0 0 -1 0 792)" d="M110.62 223.1708L159.2866 223.1708L159.2866 239.0789L110.62 239.0789z" stroke="none" fill="#F6DB09" fill-rule="nonzero" /></g></g><g clip-path="url(#39)"><g clip-path="url(#40)"><path transform="matrix(1 0 0 -1 0 792)" d="M274.0039 223.1708L373.327 223.1708L373.327 239.0789L274.0039 239.0789z" stroke="none" fill="#F6DB09" fill-rule="nonzero" /></g></g><g clip-path="url(#41)"><g clip-path="url(#42)"><path transform="matrix(1 0 0 -1 0 792)" d="M163.5176 211.7666L274.5038 211.7666L274.5038 227.6747L163.5176 227.6747z" stroke="none" fill="#B3E508" fill-rule="nonzero" /></g></g></g></g></svg>