<svg xmlns="http://www.w3.org/2000/svg" xmlns:xlink="http://www.w3.org/1999/xlink" id="body_43" preserveAspectRatio="xMinYMin meet" viewBox="0 0 816 1056"><defs><clipPath id="1"><path clip-rule="evenodd" d="M0 792L0 0L0 0L612 0L612 0L612 792L612 792L0 792z" /></clipPath><clipPath id="2"><path clip-rule="evenodd" d="M0 792L612 792L612 792L612 0L612 0L0 0z" /></clipPath></defs><g transform="matrix(1.333333 0 0 1.333333 0 0)"><g clip-path="url(#1)"><g clip-path="url(#2)"><path transform="matrix(1 0 0 -1 0 792)" d="M94.92 479.52L95.4 479.52L95.4 479.52L95.4 480L95.4 480L94.92 480z" stroke="none" fill="#000000" fill-rule="evenodd" /><path transform="matrix(1 0 0 -1 0 792)" d="M94.92 479.52L95.4 479.52L95.4 479.52L95.4 480L95.4 480L94.92 480z" stroke="none" fill="#000000" fill-rule="evenodd" /><path transform="matrix(1 0 0 -1 0 792)" d="M95.4 479.52L545.4 479.52L545.4 479.52L545.4 480L545.4 480L95.4 480z" stroke="none" fill="#000000" fill-rule="evenodd" /><path transform="matrix(1 0 0 -1 0 792)" d="M545.4 479.52L545.88 479.52L545.88 479.52L545.88 480L545.88 480L545.4 480z" stroke="none" fill="#000000" fill-rule="evenodd" /><path transform="matrix(1 0 0 -1 0 792)" d="M545.4 479.52L545.88 479.52L545.88 479.52L545.88 480L545.88 480L545.4 480z" stroke="none" fill="#000000" fill-rule="evenodd" /><path transform="matrix(1 0 0 -1 0 792)" d="M94.92 461.52L95.4 461.52L95.4 461.52L95.4 462L95.4 462L94.92 462z" stroke="none" fill="#000000" fill-rule="evenodd" /><path transform="matrix(1 0 0 -1 0 792)" d="M94.92 461.52L95.4 461.52L95.4 461.52L95.4 462L95.4 462L94.92 462z" stroke="none" fill="#000000" fill-rule="evenodd" /><path transform="matrix(1 0 0 -1 0 792)" d="M95.4 461.52L545.4 461.52L545.4 461.52L545.4 462L545.4 462L95.4 462z" stroke="none" fill="#000000" fill-rule="evenodd" /><path transform="matrix(1 0 0 -1 0 792)" d="M545.4 461.52L545.88 461.52L545.88 461.52L545.88 462L545.88 462L545.4 462z" stroke="none" fill="#000000" fill-rule="evenodd" /><path transform="matrix(1 0 0 -1 0 792)" d="M545.4 461.52L545.88 461.52L545.88 461.52L545.88 462L545.88 462L545.4 462z" stroke="none" fill="#000000" fill-rule="evenodd" /><path transform="matrix(1 0 0 -1 0 792)" d="M94.92 462L95.4 462L95.4 462L95.4 479.52L95.4 479.52L94.92 479.52z" stroke="none" fill="#000000" fill-rule="evenodd" /><path transform="matrix(1 0 0 -1 0 792)" d="M545.4 462L545.88 462L545.88 462L545.88 479.52L545.88 479.52L545.4 479.52z" stroke="none" fill="#000000" fill-rule="evenodd" /><path transform="matrix(1 0 0 -1 0 792)" d="M94.92 263.28L95.4 263.28L95.4 263.28L95.4 263.76L95.4 263.76L94.92 263.76z" stroke="none" fill="#000000" fill-rule="evenodd" /><path transform="matrix(1 0 0 -1 0 792)" d="M94.92 263.28L95.4 263.28L95.4 263.28L95.4 263.76L95.4 263.76L94.92 263.76z" stroke="none" fill="#000000" fill-rule="evenodd" /><path transform="matrix(1 0 0 -1 0 792)" d="M95.4 263.28L545.4 263.28L545.4 263.28L545.4 263.76L545.4 263.76L95.4 263.76z" stroke="none" fill="#000000" fill-rule="evenodd" /><path transform="matrix(1 0 0 -1 0 792)" d="M545.4 263.28L545.88 263.28L545.88 263.28L545.88 263.76L545.88 263.76L545.4 263.76z" stroke="none" fill="#000000" fill-rule="evenodd" /><path transform="matrix(1 0 0 -1 0 792)" d="M545.4 263.28L545.88 263.28L545.88 263.28L545.88 263.76L545.88 263.76L545.4 263.76z" stroke="none" fill="#000000" fill-rule="evenodd" /><path transform="matrix(1 0 0 -1 0 792)" d="M94.92 245.28L95.4 245.28L95.4 245.28L95.4 245.76L95.4 245.76L94.92 245.76z" stroke="none" fill="#000000" fill-rule="evenodd" /><path transform="matrix(1 0 0 -1 0 792)" d="M94.92 245.28L95.4 245.28L95.4 245.28L95.4 245.76L95.4 245.76L94.92 245.76z" stroke="none" fill="#000000" fill-rule="evenodd" /><path transform="matrix(1 0 0 -1 0 792)" d="M95.4 245.28L545.4 245.28L545.4 245.28L545.4 245.76L545.4 245.76L95.4 245.76z" stroke="none" fill="#000000" fill-rule="evenodd" /><path transform="matrix(1 0 0 -1 0 792)" d="M545.4 245.28L545.88 245.28L545.88 245.28L545.88 245.76L545.88 245.76L545.4 245.76z" stroke="none" fill="#000000" fill-rule="evenodd" /><path transform="matrix(1 0 0 -1 0 792)" d="M545.4 245.28L545.88 245.28L545.88 245.28L545.88 245.76L545.88 245.76L545.4 245.76z" stroke="none" fill="#000000" fill-rule="evenodd" /><path transform="matrix(1 0 0 -1 0 792)" d="M94.92 245.76L95.4 245.76L95.4 245.76L95.4 263.28L95.4 263.28L94.92 263.28z" stroke="none" fill="#000000" fill-rule="evenodd" /><path transform="matrix(1 0 0 -1 0 792)" d="M545.4 245.76L545.88 245.76L545.88 245.76L545.88 263.28L545.88 263.28L545.4 263.28z" stroke="none" fill="#000000" fill-rule="evenodd" /></g></g></g></svg>