<svg xmlns="http://www.w3.org/2000/svg" xmlns:xlink="http://www.w3.org/1999/xlink" id="body_51" preserveAspectRatio="xMinYMin meet" viewBox="0 0 816 1056"><defs><clipPath id="1"><path clip-rule="evenodd" d="M0 792L0 0L0 0L612 0L612 0L612 792L612 792L0 792z" /></clipPath><clipPath id="2"><path clip-rule="evenodd" d="M0 792L612 792L612 792L612 0L612 0L0 0z" /></clipPath></defs><g transform="matrix(1.333333 0 0 1.333333 0 0)"><g clip-path="url(#1)"><g clip-path="url(#2)"><path transform="matrix(1 0 0 -1 0 792)" d="M103.08 530.16L103.56 530.16L103.56 530.16L103.56 530.64L103.56 530.64L103.08 530.64z" stroke="none" fill="#000000" fill-rule="evenodd" /><path transform="matrix(1 0 0 -1 0 792)" d="M103.08 530.16L103.56 530.16L103.56 530.16L103.56 530.64L103.56 530.64L103.08 530.64z" stroke="none" fill="#000000" fill-rule="evenodd" /><path transform="matrix(1 0 0 -1 0 792)" d="M103.56 530.16L541.44 530.16L541.44 530.16L541.44 530.64L541.44 530.64L103.56 530.64z" stroke="none" fill="#000000" fill-rule="evenodd" /><path transform="matrix(1 0 0 -1 0 792)" d="M541.44 530.16L541.92 530.16L541.92 530.16L541.92 530.64L541.92 530.64L541.44 530.64z" stroke="none" fill="#000000" fill-rule="evenodd" /><path transform="matrix(1 0 0 -1 0 792)" d="M541.44 530.16L541.92 530.16L541.92 530.16L541.92 530.64L541.92 530.64L541.44 530.64z" stroke="none" fill="#000000" fill-rule="evenodd" /><path transform="matrix(1 0 0 -1 0 792)" d="M103.08 503.88L103.56 503.88L103.56 503.88L103.56 530.16L103.56 530.16L103.08 530.16z" stroke="none" fill="#000000" fill-rule="evenodd" /><path transform="matrix(1 0 0 -1 0 792)" d="M541.44 503.88L541.92 503.88L541.92 503.88L541.92 530.16L541.92 530.16L541.44 530.16z" stroke="none" fill="#000000" fill-rule="evenodd" /><path transform="matrix(1 0 0 -1 0 792)" d="M103.08 487.2L103.56 487.2L103.56 487.2L103.56 487.68L103.56 487.68L103.08 487.68z" stroke="none" fill="#000000" fill-rule="evenodd" /><path transform="matrix(1 0 0 -1 0 792)" d="M103.08 487.2L103.56 487.2L103.56 487.2L103.56 487.68L103.56 487.68L103.08 487.68z" stroke="none" fill="#000000" fill-rule="evenodd" /><path transform="matrix(1 0 0 -1 0 792)" d="M103.56 487.2L541.44 487.2L541.44 487.2L541.44 487.68L541.44 487.68L103.56 487.68z" stroke="none" fill="#000000" fill-rule="evenodd" /><path transform="matrix(1 0 0 -1 0 792)" d="M541.44 487.2L541.92 487.2L541.92 487.2L541.92 487.68L541.92 487.68L541.44 487.68z" stroke="none" fill="#000000" fill-rule="evenodd" /><path transform="matrix(1 0 0 -1 0 792)" d="M541.44 487.2L541.92 487.2L541.92 487.2L541.92 487.68L541.92 487.68L541.44 487.68z" stroke="none" fill="#000000" fill-rule="evenodd" /><path transform="matrix(1 0 0 -1 0 792)" d="M103.08 487.68L103.56 487.68L103.56 487.68L103.56 503.88L103.56 503.88L103.08 503.88z" stroke="none" fill="#000000" fill-rule="evenodd" /><path transform="matrix(1 0 0 -1 0 792)" d="M541.44 487.68L541.92 487.68L541.92 487.68L541.92 503.88L541.92 503.88L541.44 503.88z" stroke="none" fill="#000000" fill-rule="evenodd" /><path transform="matrix(1 0 0 -1 0 792)" d="M103.08 284.16L103.56 284.16L103.56 284.16L103.56 284.64L103.56 284.64L103.08 284.64z" stroke="none" fill="#000000" fill-rule="evenodd" /><path transform="matrix(1 0 0 -1 0 792)" d="M103.08 284.16L103.56 284.16L103.56 284.16L103.56 284.64L103.56 284.64L103.08 284.64z" stroke="none" fill="#000000" fill-rule="evenodd" /><path transform="matrix(1 0 0 -1 0 792)" d="M103.56 284.16L541.44 284.16L541.44 284.16L541.44 284.64L541.44 284.64L103.56 284.64z" stroke="none" fill="#000000" fill-rule="evenodd" /><path transform="matrix(1 0 0 -1 0 792)" d="M541.44 284.16L541.92 284.16L541.92 284.16L541.92 284.64L541.92 284.64L541.44 284.64z" stroke="none" fill="#000000" fill-rule="evenodd" /><path transform="matrix(1 0 0 -1 0 792)" d="M541.44 284.16L541.92 284.16L541.92 284.16L541.92 284.64L541.92 284.64L541.44 284.64z" stroke="none" fill="#000000" fill-rule="evenodd" /><path transform="matrix(1 0 0 -1 0 792)" d="M103.08 257.88L103.56 257.88L103.56 257.88L103.56 284.16L103.56 284.16L103.08 284.16z" stroke="none" fill="#000000" fill-rule="evenodd" /><path transform="matrix(1 0 0 -1 0 792)" d="M541.44 257.88L541.92 257.88L541.92 257.88L541.92 284.16L541.92 284.16L541.44 284.16z" stroke="none" fill="#000000" fill-rule="evenodd" /><path transform="matrix(1 0 0 -1 0 792)" d="M103.08 241.08L103.56 241.08L103.56 241.08L103.56 241.56L103.56 241.56L103.08 241.56z" stroke="none" fill="#000000" fill-rule="evenodd" /><path transform="matrix(1 0 0 -1 0 792)" d="M103.08 241.08L103.56 241.08L103.56 241.08L103.56 241.56L103.56 241.56L103.08 241.56z" stroke="none" fill="#000000" fill-rule="evenodd" /><path transform="matrix(1 0 0 -1 0 792)" d="M103.56 241.08L541.44 241.08L541.44 241.08L541.44 241.56L541.44 241.56L103.56 241.56z" stroke="none" fill="#000000" fill-rule="evenodd" /><path transform="matrix(1 0 0 -1 0 792)" d="M541.44 241.08L541.92 241.08L541.92 241.08L541.92 241.56L541.92 241.56L541.44 241.56z" stroke="none" fill="#000000" fill-rule="evenodd" /><path transform="matrix(1 0 0 -1 0 792)" d="M541.44 241.08L541.92 241.08L541.92 241.08L541.92 241.56L541.92 241.56L541.44 241.56z" stroke="none" fill="#000000" fill-rule="evenodd" /><path transform="matrix(1 0 0 -1 0 792)" d="M103.08 241.56L103.56 241.56L103.56 241.56L103.56 257.88L103.56 257.88L103.08 257.88z" stroke="none" fill="#000000" fill-rule="evenodd" /><path transform="matrix(1 0 0 -1 0 792)" d="M541.44 241.56L541.92 241.56L541.92 241.56L541.92 257.88L541.92 257.88L541.44 257.88z" stroke="none" fill="#000000" fill-rule="evenodd" /><path transform="matrix(1 0 0 -1 0 792)" d="M103.08 117.48L103.56 117.48L103.56 117.48L103.56 117.96L103.56 117.96L103.08 117.96z" stroke="none" fill="#000000" fill-rule="evenodd" /><path transform="matrix(1 0 0 -1 0 792)" d="M103.08 117.48L103.56 117.48L103.56 117.48L103.56 117.96L103.56 117.96L103.08 117.96z" stroke="none" fill="#000000" fill-rule="evenodd" /><path transform="matrix(1 0 0 -1 0 792)" d="M103.56 117.48L541.44 117.48L541.44 117.48L541.44 117.96L541.44 117.96L103.56 117.96z" stroke="none" fill="#000000" fill-rule="evenodd" /><path transform="matrix(1 0 0 -1 0 792)" d="M541.44 117.48L541.92 117.48L541.92 117.48L541.92 117.96L541.92 117.96L541.44 117.96z" stroke="none" fill="#000000" fill-rule="evenodd" /><path transform="matrix(1 0 0 -1 0 792)" d="M541.44 117.48L541.92 117.48L541.92 117.48L541.92 117.96L541.92 117.96L541.44 117.96z" stroke="none" fill="#000000" fill-rule="evenodd" /><path transform="matrix(1 0 0 -1 0 792)" d="M103.08 101.16L103.56 101.16L103.56 101.16L103.56 117.48L103.56 117.48L103.08 117.48z" stroke="none" fill="#000000" fill-rule="evenodd" /><path transform="matrix(1 0 0 -1 0 792)" d="M541.44 101.16L541.92 101.16L541.92 101.16L541.92 117.48L541.92 117.48L541.44 117.48z" stroke="none" fill="#000000" fill-rule="evenodd" /><path transform="matrix(1 0 0 -1 0 792)" d="M103.08 84.48L103.56 84.48L103.56 84.48L103.56 84.96001L103.56 84.96001L103.08 84.96001z" stroke="none" fill="#000000" fill-rule="evenodd" /><path transform="matrix(1 0 0 -1 0 792)" d="M103.08 84.48L103.56 84.48L103.56 84.48L103.56 84.96001L103.56 84.96001L103.08 84.96001z" stroke="none" fill="#000000" fill-rule="evenodd" /><path transform="matrix(1 0 0 -1 0 792)" d="M103.56 84.48L541.44 84.48L541.44 84.48L541.44 84.96001L541.44 84.96001L103.56 84.96001z" stroke="none" fill="#000000" fill-rule="evenodd" /><path transform="matrix(1 0 0 -1 0 792)" d="M541.44 84.48L541.92 84.48L541.92 84.48L541.92 84.96001L541.92 84.96001L541.44 84.96001z" stroke="none" fill="#000000" fill-rule="evenodd" /><path transform="matrix(1 0 0 -1 0 792)" d="M541.44 84.48L541.92 84.48L541.92 84.48L541.92 84.96001L541.92 84.96001L541.44 84.96001z" stroke="none" fill="#000000" fill-rule="evenodd" /><path transform="matrix(1 0 0 -1 0 792)" d="M103.08 84.96L103.56 84.96L103.56 84.96L103.56 101.16L103.56 101.16L103.08 101.16z" stroke="none" fill="#000000" fill-rule="evenodd" /><path transform="matrix(1 0 0 -1 0 792)" d="M541.44 84.96L541.92 84.96L541.92 84.96L541.92 101.16L541.92 101.16L541.44 101.16z" stroke="none" fill="#000000" fill-rule="evenodd" /><path transform="matrix(1 0 0 -1 0 792)" d="M67.56 713.04L68.04 713.04L68.04 713.04L68.04 713.52L68.04 713.52L67.56 713.52z" stroke="none" fill="#000000" fill-rule="evenodd" /><path transform="matrix(1 0 0 -1 0 792)" d="M67.56 713.04L68.04 713.04L68.04 713.04L68.04 713.52L68.04 713.52L67.56 713.52z" stroke="none" fill="#000000" fill-rule="evenodd" /><path transform="matrix(1 0 0 -1 0 792)" d="M68.04 713.04L543.96 713.04L543.96 713.04L543.96 713.52L543.96 713.52L68.04 713.52z" stroke="none" fill="#000000" fill-rule="evenodd" /><path transform="matrix(1 0 0 -1 0 792)" d="M543.96 713.04L544.44 713.04L544.44 713.04L544.44 713.52L544.44 713.52L543.96 713.52z" stroke="none" fill="#000000" fill-rule="evenodd" /><path transform="matrix(1 0 0 -1 0 792)" d="M543.96 713.04L544.44 713.04L544.44 713.04L544.44 713.52L544.44 713.52L543.96 713.52z" stroke="none" fill="#000000" fill-rule="evenodd" /><path transform="matrix(1 0 0 -1 0 792)" d="M67.56 69L68.04 69L68.04 69L68.04 713.04L68.04 713.04L67.56 713.04z" stroke="none" fill="#000000" fill-rule="evenodd" /><path transform="matrix(1 0 0 -1 0 792)" d="M543.96 69L544.44 69L544.44 69L544.44 713.04L544.44 713.04L543.96 713.04z" stroke="none" fill="#000000" fill-rule="evenodd" /><path transform="matrix(1 0 0 -1 0 792)" d="M67.56 68.52L68.04 68.52L68.04 68.52L68.04 69L68.04 69L67.56 69z" stroke="none" fill="#000000" fill-rule="evenodd" /><path transform="matrix(1 0 0 -1 0 792)" d="M67.56 68.52L68.04 68.52L68.04 68.52L68.04 69L68.04 69L67.56 69z" stroke="none" fill="#000000" fill-rule="evenodd" /><path transform="matrix(1 0 0 -1 0 792)" d="M68.04 68.52L543.96 68.52L543.96 68.52L543.96 69L543.96 69L68.04 69z" stroke="none" fill="#000000" fill-rule="evenodd" /><path transform="matrix(1 0 0 -1 0 792)" d="M543.96 68.52L544.44 68.52L544.44 68.52L544.44 69L544.44 69L543.96 69z" stroke="none" fill="#000000" fill-rule="evenodd" /><path transform="matrix(1 0 0 -1 0 792)" d="M543.96 68.52L544.44 68.52L544.44 68.52L544.44 69L544.44 69L543.96 69z" stroke="none" fill="#000000" fill-rule="evenodd" /></g></g></g></svg>