<svg xmlns="http://www.w3.org/2000/svg" xmlns:xlink="http://www.w3.org/1999/xlink" id="body_67" preserveAspectRatio="xMinYMin meet" viewBox="0 0 816 1056"><defs><clipPath id="1"><path clip-rule="evenodd" d="M0 792L0 0L0 0L612 0L612 0L612 792L612 792L0 792z" /></clipPath><clipPath id="2"><path clip-rule="evenodd" d="M0 792L612 792L612 792L612 0L612 0L0 0z" /></clipPath></defs><g transform="matrix(1.333333 0 0 1.333333 0 0)"><g clip-path="url(#1)"><g clip-path="url(#2)"><path transform="matrix(1 0 0 -1 0 792)" d="M90.24 687.48L180.96 687.48L180.96 687.48L180.96 688.2L180.96 688.2L90.24 688.2z" stroke="none" fill="#000000" fill-rule="evenodd" /><path transform="matrix(1 0 0 -1 0 792)" d="M246.96 687.48L293.64 687.48L293.64 687.48L293.64 688.2L293.64 688.2L246.96 688.2z" stroke="none" fill="#000000" fill-rule="evenodd" /><path transform="matrix(1 0 0 -1 0 792)" d="M299.28 687.48L402.6 687.48L402.6 687.48L402.6 688.2L402.6 688.2L299.28 688.2z" stroke="none" fill="#000000" fill-rule="evenodd" /><path transform="matrix(1 0 0 -1 0 792)" d="M441.6 687.48L542.28 687.48L542.28 687.48L542.28 688.2L542.28 688.2L441.6 688.2z" stroke="none" fill="#000000" fill-rule="evenodd" /><path transform="matrix(1 0 0 -1 0 792)" d="M90.24 641.52L134.16 641.52L134.16 641.52L134.16 642.24L134.16 642.24L90.24 642.24z" stroke="none" fill="#000000" fill-rule="evenodd" /><path transform="matrix(1 0 0 -1 0 792)" d="M200.4 641.52L220.92 641.52L220.92 641.52L220.92 642.24L220.92 642.24L200.4 642.24z" stroke="none" fill="#000000" fill-rule="evenodd" /><path transform="matrix(1 0 0 -1 0 792)" d="M226.44 641.52L287.64 641.52L287.64 641.52L287.64 642.24L287.64 642.24L226.44 642.24z" stroke="none" fill="#000000" fill-rule="evenodd" /><path transform="matrix(1 0 0 -1 0 792)" d="M312.6 641.52L392.16 641.52L392.16 641.52L392.16 642.24L392.16 642.24L312.6 642.24z" stroke="none" fill="#000000" fill-rule="evenodd" /><path transform="matrix(1 0 0 -1 0 792)" d="M397.8 641.52L544.44 641.52L544.44 641.52L544.44 642.24L544.44 642.24L397.8 642.24z" stroke="none" fill="#000000" fill-rule="evenodd" /><path transform="matrix(1 0 0 -1 0 792)" d="M79.2 630L277.08 630L277.08 630L277.08 630.72L277.08 630.72L79.2 630.72z" stroke="none" fill="#000000" fill-rule="evenodd" /><path transform="matrix(1 0 0 -1 0 792)" d="M90.24 606.96L121.32 606.96L121.32 606.96L121.32 607.68L121.32 607.68L90.24 607.68z" stroke="none" fill="#000000" fill-rule="evenodd" /><path transform="matrix(1 0 0 -1 0 792)" d="M187.44 606.96L226.92 606.96L226.92 606.96L226.92 607.68L226.92 607.68L187.44 607.68z" stroke="none" fill="#000000" fill-rule="evenodd" /><path transform="matrix(1 0 0 -1 0 792)" d="M249.24 606.96L343.68 606.96L343.68 606.96L343.68 607.68L343.68 607.68L249.24 607.68z" stroke="none" fill="#000000" fill-rule="evenodd" /><path transform="matrix(1 0 0 -1 0 792)" d="M135.84 583.92L159.24 583.92L159.24 583.92L159.24 584.64L159.24 584.64L135.84 584.64z" stroke="none" fill="#000000" fill-rule="evenodd" /><path transform="matrix(1 0 0 -1 0 792)" d="M225.24 583.92L285.84 583.92L285.84 583.92L285.84 584.64L285.84 584.64L225.24 584.64z" stroke="none" fill="#000000" fill-rule="evenodd" /><path transform="matrix(1 0 0 -1 0 792)" d="M308.04 583.92L368.16 583.92L368.16 583.92L368.16 584.64L368.16 584.64L308.04 584.64z" stroke="none" fill="#000000" fill-rule="evenodd" /></g></g></g></svg>