<svg xmlns="http://www.w3.org/2000/svg" xmlns:xlink="http://www.w3.org/1999/xlink" id="body_13" preserveAspectRatio="xMinYMin meet" viewBox="0 0 816 1056"><defs><clipPath id="1"><path clip-rule="evenodd" d="M0 792L0 0L0 0L612 0L612 0L612 792L612 792L0 792z" /></clipPath><clipPath id="2"><path clip-rule="evenodd" d="M0 792L612 792L612 792L612 0L612 0L0 0z" /></clipPath><clipPath id="3"><path clip-rule="evenodd" d="M152.9549 303.3849L228.7604 303.3849L228.7604 303.3849L228.7604 289.5804L228.7604 289.5804L152.9549 289.5804z" /></clipPath><clipPath id="4"><path clip-rule="evenodd" d="M152.9549 303.3849L228.7604 303.3849L228.7604 303.3849L228.7604 289.5804L228.7604 289.5804L152.9549 289.5804z" /></clipPath><clipPath id="5"><path clip-rule="evenodd" d="M72 314.9087L537.4507 314.9087L537.4507 314.9087L537.4507 289.5804L537.4507 289.5804L72 289.5804z" /></clipPath><clipPath id="6"><path clip-rule="evenodd" d="M72 314.9087L537.4507 314.9087L537.4507 314.9087L537.4507 289.5804L537.4507 289.5804L72 289.5804z" /></clipPath><clipPath id="7"><path clip-rule="evenodd" d="M385.8197 314.4007L538.6559 314.4007L538.6559 314.4007L538.6559 301.144L538.6559 301.144L385.8197 301.144z" /></clipPath><clipPath id="8"><path clip-rule="evenodd" d="M385.8197 314.4007L538.6559 314.4007L538.6559 314.4007L538.6559 301.144L538.6559 301.144L385.8197 301.144z" /></clipPath><clipPath id="9"><path clip-rule="evenodd" d="M72 360.4878L534.2834 360.4878L534.2834 360.4878L534.2834 335.7073L534.2834 335.7073L72 335.7073z" /></clipPath><clipPath id="10"><path clip-rule="evenodd" d="M72 360.4878L534.2834 360.4878L534.2834 360.4878L534.2834 335.7073L534.2834 335.7073L72 335.7073z" /></clipPath><clipPath id="11"><path clip-rule="evenodd" d="M188.7611 429.4807L373.2 429.4807L373.2 429.4807L373.2 416.224L373.2 416.224L188.7611 416.224z" /></clipPath><clipPath id="12"><path clip-rule="evenodd" d="M188.7611 429.4807L373.2 429.4807L373.2 429.4807L373.2 416.224L373.2 416.224L188.7611 416.224z" /></clipPath><clipPath id="13"><path clip-rule="evenodd" d="M123.5629 475.476L228.5314 475.476L228.5314 475.476L228.5314 462.2192L228.5314 462.2192L123.5629 462.2192z" /></clipPath><clipPath id="14"><path clip-rule="evenodd" d="M123.5629 475.476L228.5314 475.476L228.5314 475.476L228.5314 462.2192L228.5314 462.2192L123.5629 462.2192z" /></clipPath><clipPath id="15"><path clip-rule="evenodd" d="M71.98008 463.9523L536.913 463.9523L536.913 463.9523L536.913 439.1718L536.913 439.1718L71.98008 439.1718z" /></clipPath><clipPath id="16"><path clip-rule="evenodd" d="M71.98008 463.9523L536.913 463.9523L536.913 463.9523L536.913 439.1718L536.913 439.1718L71.98008 439.1718z" /></clipPath><clipPath id="17"><path clip-rule="evenodd" d="M71.98008 498.5234L538.6459 498.5234L538.6459 498.5234L538.6459 462.2192L538.6459 462.2192L71.98008 462.2192z" /></clipPath><clipPath id="18"><path clip-rule="evenodd" d="M71.98008 498.5234L538.6459 498.5234L538.6459 498.5234L538.6459 462.2192L538.6459 462.2192L71.98008 462.2192z" /></clipPath><clipPath id="19"><path clip-rule="evenodd" d="M71.98008 544.8872L530.3492 544.8872L530.3492 544.8872L530.3492 508.1946L530.3492 508.1946L71.98008 508.1946z" /></clipPath><clipPath id="20"><path clip-rule="evenodd" d="M71.98008 544.8872L530.3492 544.8872L530.3492 544.8872L530.3492 508.1946L530.3492 508.1946L71.98008 508.1946z" /></clipPath><clipPath id="21"><path clip-rule="evenodd" d="M71.98008 544.8872L216.7686 544.8872L216.7686 544.8872L216.7686 531.0827L216.7686 531.0827L71.98008 531.0827z" /></clipPath><clipPath id="22"><path clip-rule="evenodd" d="M71.98008 544.8872L216.7686 544.8872L216.7686 544.8872L216.7686 531.0827L216.7686 531.0827L71.98008 531.0827z" /></clipPath><clipPath id="23"><path clip-rule="evenodd" d="M242.0072 544.3793L264.0288 544.3793L264.0288 544.3793L264.0288 531.1225L264.0288 531.1225L242.0072 531.1225z" /></clipPath><clipPath id="24"><path clip-rule="evenodd" d="M242.0072 544.3793L264.0288 544.3793L264.0288 544.3793L264.0288 531.1225L264.0288 531.1225L242.0072 531.1225z" /></clipPath><clipPath id="25"><path clip-rule="evenodd" d="M72.00456 683.971L528.0977 683.971L528.0977 683.971L528.0977 664.0318L528.0977 664.0318L72.00456 664.0318z" /></clipPath><clipPath id="26"><path clip-rule="evenodd" d="M72.00456 683.971L528.0977 683.971L528.0977 683.971L528.0977 664.0318L528.0977 664.0318L72.00456 664.0318z" /></clipPath><clipPath id="27"><path clip-rule="evenodd" d="M71.9922 232.802L524.3157 232.802L524.3157 232.802L524.3157 210.153L524.3157 210.153L71.9922 210.153z" /></clipPath><clipPath id="28"><path clip-rule="evenodd" d="M71.9922 232.802L524.3157 232.802L524.3157 232.802L524.3157 210.153L524.3157 210.153L71.9922 210.153z" /></clipPath></defs><g transform="matrix(1.333333 0 0 1.333333 0 0)"><g clip-path="url(#1)"><g clip-path="url(#2)"><path transform="matrix(1 0 0 -1 0 792)" d="M72 157.8L216 157.8L216 157.8L216 158.52L216 158.52L72 158.52z" stroke="none" fill="#000000" fill-rule="evenodd" /></g><g clip-path="url(#3)"><g clip-path="url(#4)"><path transform="matrix(1 0 0 -1 0 792)" d="M151.5744 487.2346L230.1409 487.2346L230.1409 503.8L151.5744 503.8z" stroke="none" fill="#F6DB09" fill-rule="nonzero" /></g></g><g clip-path="url(#5)"><g clip-path="url(#6)"><path transform="matrix(1 0 0 -1 0 792)" d="M315.526 487.2346L538.8312 487.2346L538.8312 503.8L315.526 503.8z" stroke="none" fill="#F6DB09" fill-rule="nonzero" /><path transform="matrix(1 0 0 -1 0 792)" d="M70.61954 475.7108L100.5015 475.7108L100.5015 492.2764L70.61954 492.2764z" stroke="none" fill="#F6DB09" fill-rule="nonzero" /></g></g><g clip-path="url(#7)"><g clip-path="url(#8)"><path transform="matrix(1 0 0 -1 0 792)" d="M384.494 476.2736L539.9815 476.2736L539.9815 492.1816L384.494 492.1816z" stroke="none" fill="#F6DB09" fill-rule="nonzero" /></g></g><g clip-path="url(#9)"><g clip-path="url(#10)"><path transform="matrix(1 0 0 -1 0 792)" d="M264.5955 441.7102L535.6091 441.7102L535.6091 457.6184L264.5955 457.6184z" stroke="none" fill="#F6DB09" fill-rule="nonzero" /><path transform="matrix(1 0 0 -1 0 792)" d="M70.67432 430.1865L170.9835 430.1865L170.9835 446.0947L70.67432 446.0947z" stroke="none" fill="#F6DB09" fill-rule="nonzero" /></g></g><g clip-path="url(#11)"><g clip-path="url(#12)"><path transform="matrix(1 0 0 -1 0 792)" d="M187.4354 361.1936L374.5256 361.1936L374.5256 377.1017L187.4354 377.1017z" stroke="none" fill="#F6DB09" fill-rule="nonzero" /></g></g><g clip-path="url(#13)"><g clip-path="url(#14)"><path transform="matrix(1 0 0 -1 0 792)" d="M122.2372 315.1983L229.8571 315.1983L229.8571 331.1065L122.2372 331.1065z" stroke="none" fill="#F6DB09" fill-rule="nonzero" /></g></g><g clip-path="url(#15)"><g clip-path="url(#16)"><path transform="matrix(1 0 0 -1 0 792)" d="M360.5999 338.2457L538.2386 338.2457L538.2386 354.1539L360.5999 354.1539z" stroke="none" fill="#F6DB09" fill-rule="nonzero" /><path transform="matrix(1 0 0 -1 0 792)" d="M70.6544 326.722L120.9943 326.722L120.9943 342.6302L70.6544 342.6302z" stroke="none" fill="#F6DB09" fill-rule="nonzero" /></g></g><g clip-path="url(#17)"><g clip-path="url(#18)"><path transform="matrix(1 0 0 -1 0 792)" d="M360.0023 315.1983L527.7507 315.1983L527.7507 331.1065L360.0023 331.1065z" stroke="none" fill="#F6DB09" fill-rule="nonzero" /><path transform="matrix(1 0 0 -1 0 792)" d="M70.65441 303.6746L539.9716 303.6746L539.9716 319.5827L70.65441 319.5827z" stroke="none" fill="#F6DB09" fill-rule="nonzero" /><path transform="matrix(1 0 0 -1 0 792)" d="M70.65441 292.1509L175.4057 292.1509L175.4057 308.059L70.65441 308.059z" stroke="none" fill="#F6DB09" fill-rule="nonzero" /></g></g><g clip-path="url(#19)"><g clip-path="url(#20)"><path transform="matrix(1 0 0 -1 0 792)" d="M139.5079 269.2229L531.6749 269.2229L531.6749 285.1311L139.5079 285.1311z" stroke="none" fill="#B4E608" fill-rule="nonzero" /><path transform="matrix(1 0 0 -1 0 792)" d="M70.6544 257.6992L496.9245 257.6992L496.9245 273.6074L70.6544 273.6074z" stroke="none" fill="#B4E608" fill-rule="nonzero" /><path transform="matrix(1 0 0 -1 0 792)" d="M215.3882 245.7323L243.3877 245.7323L243.3877 262.2977L215.3882 262.2977z" stroke="none" fill="#B4E608" fill-rule="nonzero" /><path transform="matrix(1 0 0 -1 0 792)" d="M262.7031 246.295L438.7681 246.295L438.7681 262.2032L262.7031 262.2032z" stroke="none" fill="#B4E608" fill-rule="nonzero" /></g></g><g clip-path="url(#21)"><g clip-path="url(#22)"><path transform="matrix(1 0 0 -1 0 792)" d="M70.59963 245.7323L218.149 245.7323L218.149 262.2978L70.59963 262.2978z" stroke="none" fill="#C486E6" fill-rule="nonzero" /></g></g><g clip-path="url(#23)"><g clip-path="url(#24)"><path transform="matrix(1 0 0 -1 0 792)" d="M240.6815 246.295L265.3545 246.295L265.3545 262.2032L240.6815 262.2032z" stroke="none" fill="#C486E6" fill-rule="nonzero" /></g></g><g clip-path="url(#25)"><g clip-path="url(#26)"><path transform="matrix(1 0 0 -1 0 792)" d="M257.5107 116.1969L529.1678 116.1969L529.1678 129.0383L257.5107 129.0383z" stroke="none" fill="#C486E6" fill-rule="nonzero" /><path transform="matrix(1 0 0 -1 0 792)" d="M70.93443 106.9589L150.0416 106.9589L150.0416 119.8004L70.93443 119.8004z" stroke="none" fill="#C486E6" fill-rule="nonzero" /></g></g><g clip-path="url(#27)"><g clip-path="url(#28)"><path transform="matrix(1 0 0 -1 0 792)" d="M70.87967 569.6091L525.4282 569.6091L525.4282 582.9595L70.87967 582.9595z" stroke="none" fill="#F8E29C" fill-rule="nonzero" /><path transform="matrix(1 0 0 -1 0 792)" d="M70.87967 558.0854L300.2745 558.0854L300.2745 571.4358L70.87967 571.4358z" stroke="none" fill="#F8E29C" fill-rule="nonzero" /></g></g></g></g></svg>