<svg xmlns="http://www.w3.org/2000/svg" xmlns:xlink="http://www.w3.org/1999/xlink" id="body_33" preserveAspectRatio="xMinYMin meet" viewBox="0 0 816 1056"><defs><clipPath id="1"><path clip-rule="evenodd" d="M0 792L0 0L0 0L612 0L612 0L612 792L612 792L0 792z" /></clipPath><clipPath id="2"><path clip-rule="evenodd" d="M0 792L612 792L612 792L612 0L612 0L0 0z" /></clipPath></defs><g transform="matrix(1.333333 0 0 1.333333 0 0)"><g clip-path="url(#1)"><g clip-path="url(#2)"><path transform="matrix(1 0 0 -1 0 792)" d="M66.12 179.04L66.60001 179.04L66.60001 179.04L66.60001 179.52L66.60001 179.52L66.12 179.52z" stroke="none" fill="#000000" fill-rule="evenodd" /><path transform="matrix(1 0 0 -1 0 792)" d="M66.12 179.04L66.60001 179.04L66.60001 179.04L66.60001 179.52L66.60001 179.52L66.12 179.52z" stroke="none" fill="#000000" fill-rule="evenodd" /><path transform="matrix(1 0 0 -1 0 792)" d="M66.6 179.04L545.4 179.04L545.4 179.04L545.4 179.52L545.4 179.52L66.6 179.52z" stroke="none" fill="#000000" fill-rule="evenodd" /><path transform="matrix(1 0 0 -1 0 792)" d="M545.4 179.04L545.88 179.04L545.88 179.04L545.88 179.52L545.88 179.52L545.4 179.52z" stroke="none" fill="#000000" fill-rule="evenodd" /><path transform="matrix(1 0 0 -1 0 792)" d="M545.4 179.04L545.88 179.04L545.88 179.04L545.88 179.52L545.88 179.52L545.4 179.52z" stroke="none" fill="#000000" fill-rule="evenodd" /><path transform="matrix(1 0 0 -1 0 792)" d="M66.12 164.52L66.60001 164.52L66.60001 164.52L66.60001 179.04L66.60001 179.04L66.12 179.04z" stroke="none" fill="#000000" fill-rule="evenodd" /><path transform="matrix(1 0 0 -1 0 792)" d="M545.4 164.52L545.88 164.52L545.88 164.52L545.88 179.04L545.88 179.04L545.4 179.04z" stroke="none" fill="#000000" fill-rule="evenodd" /><path transform="matrix(1 0 0 -1 0 792)" d="M66.12 153L66.60001 153L66.60001 153L66.60001 164.52L66.60001 164.52L66.12 164.52z" stroke="none" fill="#000000" fill-rule="evenodd" /><path transform="matrix(1 0 0 -1 0 792)" d="M545.4 153L545.88 153L545.88 153L545.88 164.52L545.88 164.52L545.4 164.52z" stroke="none" fill="#000000" fill-rule="evenodd" /><path transform="matrix(1 0 0 -1 0 792)" d="M66.12 141.6L66.60001 141.6L66.60001 141.6L66.60001 153L66.60001 153L66.12 153z" stroke="none" fill="#000000" fill-rule="evenodd" /><path transform="matrix(1 0 0 -1 0 792)" d="M545.4 141.6L545.88 141.6L545.88 141.6L545.88 153L545.88 153L545.4 153z" stroke="none" fill="#000000" fill-rule="evenodd" /><path transform="matrix(1 0 0 -1 0 792)" d="M66.12 130.08L66.60001 130.08L66.60001 130.08L66.60001 141.6L66.60001 141.6L66.12 141.6z" stroke="none" fill="#000000" fill-rule="evenodd" /><path transform="matrix(1 0 0 -1 0 792)" d="M545.4 130.08L545.88 130.08L545.88 130.08L545.88 141.6L545.88 141.6L545.4 141.6z" stroke="none" fill="#000000" fill-rule="evenodd" /><path transform="matrix(1 0 0 -1 0 792)" d="M66.12 118.56L66.60001 118.56L66.60001 118.56L66.60001 130.08L66.60001 130.08L66.12 130.08z" stroke="none" fill="#000000" fill-rule="evenodd" /><path transform="matrix(1 0 0 -1 0 792)" d="M545.4 118.56L545.88 118.56L545.88 118.56L545.88 130.08L545.88 130.08L545.4 130.08z" stroke="none" fill="#000000" fill-rule="evenodd" /><path transform="matrix(1 0 0 -1 0 792)" d="M66.12 107.04L66.60001 107.04L66.60001 107.04L66.60001 118.56L66.60001 118.56L66.12 118.56z" stroke="none" fill="#000000" fill-rule="evenodd" /><path transform="matrix(1 0 0 -1 0 792)" d="M545.4 107.04L545.88 107.04L545.88 107.04L545.88 118.56L545.88 118.56L545.4 118.56z" stroke="none" fill="#000000" fill-rule="evenodd" /><path transform="matrix(1 0 0 -1 0 792)" d="M66.12 92.04L66.60001 92.04L66.60001 92.04L66.60001 92.52L66.60001 92.52L66.12 92.52z" stroke="none" fill="#000000" fill-rule="evenodd" /><path transform="matrix(1 0 0 -1 0 792)" d="M66.12 92.04L66.60001 92.04L66.60001 92.04L66.60001 92.52L66.60001 92.52L66.12 92.52z" stroke="none" fill="#000000" fill-rule="evenodd" /><path transform="matrix(1 0 0 -1 0 792)" d="M66.6 92.04L545.4 92.04L545.4 92.04L545.4 92.52L545.4 92.52L66.6 92.52z" stroke="none" fill="#000000" fill-rule="evenodd" /><path transform="matrix(1 0 0 -1 0 792)" d="M545.4 92.04L545.88 92.04L545.88 92.04L545.88 92.52L545.88 92.52L545.4 92.52z" stroke="none" fill="#000000" fill-rule="evenodd" /><path transform="matrix(1 0 0 -1 0 792)" d="M545.4 92.04L545.88 92.04L545.88 92.04L545.88 92.52L545.88 92.52L545.4 92.52z" stroke="none" fill="#000000" fill-rule="evenodd" /><path transform="matrix(1 0 0 -1 0 792)" d="M66.12 92.52L66.60001 92.52L66.60001 92.52L66.60001 107.04L66.60001 107.04L66.12 107.04z" stroke="none" fill="#000000" fill-rule="evenodd" /><path transform="matrix(1 0 0 -1 0 792)" d="M545.4 92.52L545.88 92.52L545.88 92.52L545.88 107.04L545.88 107.04L545.4 107.04z" stroke="none" fill="#000000" fill-rule="evenodd" /></g></g></g></svg>