<svg xmlns="http://www.w3.org/2000/svg" xmlns:xlink="http://www.w3.org/1999/xlink" id="body_52" preserveAspectRatio="xMinYMin meet" viewBox="0 0 816 1056"><defs><clipPath id="1"><path clip-rule="evenodd" d="M0 792L0 0L0 0L612 0L612 0L612 792L612 792L0 792z" /></clipPath><clipPath id="2"><path clip-rule="evenodd" d="M0 792L612 792L612 792L612 0L612 0L0 0z" /></clipPath></defs><g transform="matrix(1.333333 0 0 1.333333 0 0)"><g clip-path="url(#1)"><g clip-path="url(#2)"><path transform="matrix(1 0 0 -1 0 792)" d="M103.08 709.56L103.56 709.56L103.56 709.56L103.56 710.04L103.56 710.04L103.08 710.04z" stroke="none" fill="#000000" fill-rule="evenodd" /><path transform="matrix(1 0 0 -1 0 792)" d="M103.08 709.56L103.56 709.56L103.56 709.56L103.56 710.04L103.56 710.04L103.08 710.04z" stroke="none" fill="#000000" fill-rule="evenodd" /><path transform="matrix(1 0 0 -1 0 792)" d="M103.56 709.56L541.44 709.56L541.44 709.56L541.44 710.04L541.44 710.04L103.56 710.04z" stroke="none" fill="#000000" fill-rule="evenodd" /><path transform="matrix(1 0 0 -1 0 792)" d="M541.44 709.56L541.92 709.56L541.92 709.56L541.92 710.04L541.92 710.04L541.44 710.04z" stroke="none" fill="#000000" fill-rule="evenodd" /><path transform="matrix(1 0 0 -1 0 792)" d="M541.44 709.56L541.92 709.56L541.92 709.56L541.92 710.04L541.92 710.04L541.44 710.04z" stroke="none" fill="#000000" fill-rule="evenodd" /><path transform="matrix(1 0 0 -1 0 792)" d="M103.08 689.76L103.56 689.76L103.56 689.76L103.56 690.24L103.56 690.24L103.08 690.24z" stroke="none" fill="#000000" fill-rule="evenodd" /><path transform="matrix(1 0 0 -1 0 792)" d="M103.08 689.76L103.56 689.76L103.56 689.76L103.56 690.24L103.56 690.24L103.08 690.24z" stroke="none" fill="#000000" fill-rule="evenodd" /><path transform="matrix(1 0 0 -1 0 792)" d="M103.56 689.76L541.44 689.76L541.44 689.76L541.44 690.24L541.44 690.24L103.56 690.24z" stroke="none" fill="#000000" fill-rule="evenodd" /><path transform="matrix(1 0 0 -1 0 792)" d="M541.44 689.76L541.92 689.76L541.92 689.76L541.92 690.24L541.92 690.24L541.44 690.24z" stroke="none" fill="#000000" fill-rule="evenodd" /><path transform="matrix(1 0 0 -1 0 792)" d="M541.44 689.76L541.92 689.76L541.92 689.76L541.92 690.24L541.92 690.24L541.44 690.24z" stroke="none" fill="#000000" fill-rule="evenodd" /><path transform="matrix(1 0 0 -1 0 792)" d="M103.08 690.24L103.56 690.24L103.56 690.24L103.56 709.56L103.56 709.56L103.08 709.56z" stroke="none" fill="#000000" fill-rule="evenodd" /><path transform="matrix(1 0 0 -1 0 792)" d="M541.44 690.24L541.92 690.24L541.92 690.24L541.92 709.56L541.92 709.56L541.44 709.56z" stroke="none" fill="#000000" fill-rule="evenodd" /><path transform="matrix(1 0 0 -1 0 792)" d="M103.08 632.16L103.56 632.16L103.56 632.16L103.56 632.64L103.56 632.64L103.08 632.64z" stroke="none" fill="#000000" fill-rule="evenodd" /><path transform="matrix(1 0 0 -1 0 792)" d="M103.08 632.16L103.56 632.16L103.56 632.16L103.56 632.64L103.56 632.64L103.08 632.64z" stroke="none" fill="#000000" fill-rule="evenodd" /><path transform="matrix(1 0 0 -1 0 792)" d="M103.56 632.16L541.44 632.16L541.44 632.16L541.44 632.64L541.44 632.64L103.56 632.64z" stroke="none" fill="#000000" fill-rule="evenodd" /><path transform="matrix(1 0 0 -1 0 792)" d="M541.44 632.16L541.92 632.16L541.92 632.16L541.92 632.64L541.92 632.64L541.44 632.64z" stroke="none" fill="#000000" fill-rule="evenodd" /><path transform="matrix(1 0 0 -1 0 792)" d="M541.44 632.16L541.92 632.16L541.92 632.16L541.92 632.64L541.92 632.64L541.44 632.64z" stroke="none" fill="#000000" fill-rule="evenodd" /><path transform="matrix(1 0 0 -1 0 792)" d="M103.08 605.88L103.56 605.88L103.56 605.88L103.56 632.16L103.56 632.16L103.08 632.16z" stroke="none" fill="#000000" fill-rule="evenodd" /><path transform="matrix(1 0 0 -1 0 792)" d="M541.44 605.88L541.92 605.88L541.92 605.88L541.92 632.16L541.92 632.16L541.44 632.16z" stroke="none" fill="#000000" fill-rule="evenodd" /><path transform="matrix(1 0 0 -1 0 792)" d="M103.08 589.2L103.56 589.2L103.56 589.2L103.56 589.68L103.56 589.68L103.08 589.68z" stroke="none" fill="#000000" fill-rule="evenodd" /><path transform="matrix(1 0 0 -1 0 792)" d="M103.08 589.2L103.56 589.2L103.56 589.2L103.56 589.68L103.56 589.68L103.08 589.68z" stroke="none" fill="#000000" fill-rule="evenodd" /><path transform="matrix(1 0 0 -1 0 792)" d="M103.56 589.2L541.44 589.2L541.44 589.2L541.44 589.68L541.44 589.68L103.56 589.68z" stroke="none" fill="#000000" fill-rule="evenodd" /><path transform="matrix(1 0 0 -1 0 792)" d="M541.44 589.2L541.92 589.2L541.92 589.2L541.92 589.68L541.92 589.68L541.44 589.68z" stroke="none" fill="#000000" fill-rule="evenodd" /><path transform="matrix(1 0 0 -1 0 792)" d="M541.44 589.2L541.92 589.2L541.92 589.2L541.92 589.68L541.92 589.68L541.44 589.68z" stroke="none" fill="#000000" fill-rule="evenodd" /><path transform="matrix(1 0 0 -1 0 792)" d="M103.08 589.68L103.56 589.68L103.56 589.68L103.56 605.88L103.56 605.88L103.08 605.88z" stroke="none" fill="#000000" fill-rule="evenodd" /><path transform="matrix(1 0 0 -1 0 792)" d="M541.44 589.68L541.92 589.68L541.92 589.68L541.92 605.88L541.92 605.88L541.44 605.88z" stroke="none" fill="#000000" fill-rule="evenodd" /><path transform="matrix(1 0 0 -1 0 792)" d="M103.08 505.2L103.56 505.2L103.56 505.2L103.56 505.68L103.56 505.68L103.08 505.68z" stroke="none" fill="#000000" fill-rule="evenodd" /><path transform="matrix(1 0 0 -1 0 792)" d="M103.08 505.2L103.56 505.2L103.56 505.2L103.56 505.68L103.56 505.68L103.08 505.68z" stroke="none" fill="#000000" fill-rule="evenodd" /><path transform="matrix(1 0 0 -1 0 792)" d="M103.56 505.2L541.44 505.2L541.44 505.2L541.44 505.68L541.44 505.68L103.56 505.68z" stroke="none" fill="#000000" fill-rule="evenodd" /><path transform="matrix(1 0 0 -1 0 792)" d="M541.44 505.2L541.92 505.2L541.92 505.2L541.92 505.68L541.92 505.68L541.44 505.68z" stroke="none" fill="#000000" fill-rule="evenodd" /><path transform="matrix(1 0 0 -1 0 792)" d="M541.44 505.2L541.92 505.2L541.92 505.2L541.92 505.68L541.92 505.68L541.44 505.68z" stroke="none" fill="#000000" fill-rule="evenodd" /><path transform="matrix(1 0 0 -1 0 792)" d="M103.08 478.92L103.56 478.92L103.56 478.92L103.56 505.2L103.56 505.2L103.08 505.2z" stroke="none" fill="#000000" fill-rule="evenodd" /><path transform="matrix(1 0 0 -1 0 792)" d="M541.44 478.92L541.92 478.92L541.92 478.92L541.92 505.2L541.92 505.2L541.44 505.2z" stroke="none" fill="#000000" fill-rule="evenodd" /><path transform="matrix(1 0 0 -1 0 792)" d="M103.08 462.12L103.56 462.12L103.56 462.12L103.56 462.6L103.56 462.6L103.08 462.6z" stroke="none" fill="#000000" fill-rule="evenodd" /><path transform="matrix(1 0 0 -1 0 792)" d="M103.08 462.12L103.56 462.12L103.56 462.12L103.56 462.6L103.56 462.6L103.08 462.6z" stroke="none" fill="#000000" fill-rule="evenodd" /><path transform="matrix(1 0 0 -1 0 792)" d="M103.56 462.12L541.44 462.12L541.44 462.12L541.44 462.6L541.44 462.6L103.56 462.6z" stroke="none" fill="#000000" fill-rule="evenodd" /><path transform="matrix(1 0 0 -1 0 792)" d="M541.44 462.12L541.92 462.12L541.92 462.12L541.92 462.6L541.92 462.6L541.44 462.6z" stroke="none" fill="#000000" fill-rule="evenodd" /><path transform="matrix(1 0 0 -1 0 792)" d="M541.44 462.12L541.92 462.12L541.92 462.12L541.92 462.6L541.92 462.6L541.44 462.6z" stroke="none" fill="#000000" fill-rule="evenodd" /><path transform="matrix(1 0 0 -1 0 792)" d="M103.08 462.6L103.56 462.6L103.56 462.6L103.56 478.92L103.56 478.92L103.08 478.92z" stroke="none" fill="#000000" fill-rule="evenodd" /><path transform="matrix(1 0 0 -1 0 792)" d="M541.44 462.6L541.92 462.6L541.92 462.6L541.92 478.92L541.92 478.92L541.44 478.92z" stroke="none" fill="#000000" fill-rule="evenodd" /><path transform="matrix(1 0 0 -1 0 792)" d="M67.56 713.04L68.04 713.04L68.04 713.04L68.04 713.52L68.04 713.52L67.56 713.52z" stroke="none" fill="#000000" fill-rule="evenodd" /><path transform="matrix(1 0 0 -1 0 792)" d="M67.56 713.04L68.04 713.04L68.04 713.04L68.04 713.52L68.04 713.52L67.56 713.52z" stroke="none" fill="#000000" fill-rule="evenodd" /><path transform="matrix(1 0 0 -1 0 792)" d="M68.04 713.04L543.96 713.04L543.96 713.04L543.96 713.52L543.96 713.52L68.04 713.52z" stroke="none" fill="#000000" fill-rule="evenodd" /><path transform="matrix(1 0 0 -1 0 792)" d="M543.96 713.04L544.44 713.04L544.44 713.04L544.44 713.52L544.44 713.52L543.96 713.52z" stroke="none" fill="#000000" fill-rule="evenodd" /><path transform="matrix(1 0 0 -1 0 792)" d="M543.96 713.04L544.44 713.04L544.44 713.04L544.44 713.52L544.44 713.52L543.96 713.52z" stroke="none" fill="#000000" fill-rule="evenodd" /><path transform="matrix(1 0 0 -1 0 792)" d="M67.56 69L68.04 69L68.04 69L68.04 713.04L68.04 713.04L67.56 713.04z" stroke="none" fill="#000000" fill-rule="evenodd" /><path transform="matrix(1 0 0 -1 0 792)" d="M543.96 69L544.44 69L544.44 69L544.44 713.04L544.44 713.04L543.96 713.04z" stroke="none" fill="#000000" fill-rule="evenodd" /><path transform="matrix(1 0 0 -1 0 792)" d="M67.56 68.52L68.04 68.52L68.04 68.52L68.04 69L68.04 69L67.56 69z" stroke="none" fill="#000000" fill-rule="evenodd" /><path transform="matrix(1 0 0 -1 0 792)" d="M67.56 68.52L68.04 68.52L68.04 68.52L68.04 69L68.04 69L67.56 69z" stroke="none" fill="#000000" fill-rule="evenodd" /><path transform="matrix(1 0 0 -1 0 792)" d="M68.04 68.52L543.96 68.52L543.96 68.52L543.96 69L543.96 69L68.04 69z" stroke="none" fill="#000000" fill-rule="evenodd" /><path transform="matrix(1 0 0 -1 0 792)" d="M543.96 68.52L544.44 68.52L544.44 68.52L544.44 69L544.44 69L543.96 69z" stroke="none" fill="#000000" fill-rule="evenodd" /><path transform="matrix(1 0 0 -1 0 792)" d="M543.96 68.52L544.44 68.52L544.44 68.52L544.44 69L544.44 69L543.96 69z" stroke="none" fill="#000000" fill-rule="evenodd" /></g></g></g></svg>