<svg xmlns="http://www.w3.org/2000/svg" xmlns:xlink="http://www.w3.org/1999/xlink" id="body_22" preserveAspectRatio="xMinYMin meet" viewBox="0 0 816 1056"><defs><clipPath id="1"><path clip-rule="evenodd" d="M0 792L0 0L0 0L612 0L612 0L612 792L612 792L0 792z" /></clipPath><clipPath id="2"><path clip-rule="evenodd" d="M0 792L612 792L612 792L612 0L612 0L0 0z" /></clipPath><clipPath id="3"><path clip-rule="evenodd" d="M278.1521 201.7207L375.8696 201.7207L375.8696 201.7207L375.8696 188.464L375.8696 188.464L278.1521 188.464z" /></clipPath><clipPath id="4"><path clip-rule="evenodd" d="M278.1521 201.7207L375.8696 201.7207L375.8696 201.7207L375.8696 188.464L375.8696 188.464L278.1521 188.464z" /></clipPath><clipPath id="5"><path clip-rule="evenodd" d="M72 580.9776L520.2997 580.9776L520.2997 580.9776L520.2997 556.3166L520.2997 556.3166L72 556.3166z" /></clipPath><clipPath id="6"><path clip-rule="evenodd" d="M72 580.9776L520.2997 580.9776L520.2997 580.9776L520.2997 556.3166L520.2997 556.3166L72 556.3166z" /></clipPath><clipPath id="7"><path clip-rule="evenodd" d="M72 592.5013L530.3891 592.5013L530.3891 592.5013L530.3891 567.7208L530.3891 567.7208L72 567.7208z" /></clipPath><clipPath id="8"><path clip-rule="evenodd" d="M72 592.5013L530.3891 592.5013L530.3891 592.5013L530.3891 567.7208L530.3891 567.7208L72 567.7208z" /></clipPath></defs><g transform="matrix(1.333333 0 0 1.333333 0 0)"><g clip-path="url(#1)"><g clip-path="url(#2)"><g transform="matrix(0.7499062 0 0 0.7499062 106.1502 246.7851)"><g transform="matrix(1 0 0 1 0 0)"><image x="0" y="0" xlink:href="img_27.png" width="535" height="291" /></g></g></g><g clip-path="url(#3)"><g clip-path="url(#4)"><path transform="matrix(1 0 0 -1 0 792)" d="M276.8264 588.9536L377.1952 588.9536L377.1952 604.8617L276.8264 604.8617z" stroke="none" fill="#F6DB09" fill-rule="nonzero" /></g></g><g clip-path="url(#5)"><g clip-path="url(#6)"><path transform="matrix(1 0 0 -1 0 792)" d="M372.2531 221.1009L521.6254 221.1009L521.6254 237.0091L372.2531 237.0091z" stroke="none" fill="#F6DB09" fill-rule="nonzero" /><path transform="matrix(1 0 0 -1 0 792)" d="M70.67432 209.6967L142.6672 209.6967L142.6672 225.6049L70.67432 225.6049z" stroke="none" fill="#F6DB09" fill-rule="nonzero" /></g></g><g clip-path="url(#7)"><g clip-path="url(#8)"><path transform="matrix(1 0 0 -1 0 792)" d="M292.0652 209.6967L531.7148 209.6967L531.7148 225.6049L292.0652 225.6049z" stroke="none" fill="#F6DB09" fill-rule="nonzero" /><path transform="matrix(1 0 0 -1 0 792)" d="M70.67433 198.173L376.8068 198.173L376.8068 214.0811L70.67433 214.0811z" stroke="none" fill="#F6DB09" fill-rule="nonzero" /></g></g></g></g></svg>