<svg xmlns="http://www.w3.org/2000/svg" xmlns:xlink="http://www.w3.org/1999/xlink" id="body_37" preserveAspectRatio="xMinYMin meet" viewBox="0 0 816 1056"><defs><clipPath id="1"><path clip-rule="evenodd" d="M0 792L0 0L0 0L612 0L612 0L612 792L612 792L0 792z" /></clipPath><clipPath id="2"><path clip-rule="evenodd" d="M0 792L612 792L612 792L612 0L612 0L0 0z" /></clipPath><clipPath id="3"><path clip-rule="evenodd" d="M89.98992 179.1612L536.3772 179.1612L536.3772 179.1612L536.3772 71.93811L536.3772 71.93811L89.98992 71.93811z" /></clipPath><clipPath id="4"><path clip-rule="evenodd" d="M89.98992 179.1612L536.3772 179.1612L536.3772 179.1612L536.3772 71.93811L536.3772 71.93811L89.98992 71.93811z" /></clipPath></defs><g transform="matrix(1.333333 0 0 1.333333 0 0)"><g clip-path="url(#1)"><g clip-path="url(#2)"><path transform="matrix(1 0 0 -1 0 792)" d="M72 120.96L216 120.96L216 120.96L216 121.68L216 121.68L72 121.68z" stroke="none" fill="#000000" fill-rule="evenodd" /></g><g clip-path="url(#3)"><g clip-path="url(#4)"><path transform="matrix(1 0 0 -1 0 792)" d="M88.67421 705.4796L534.9041 705.4796L534.9041 721.3876L88.67421 721.3876z" stroke="none" fill="#F7DC0A" fill-rule="nonzero" /><path transform="matrix(1 0 0 -1 0 792)" d="M106.6719 694.0752L176.5135 694.0752L176.5135 709.9834L106.6719 709.9834z" stroke="none" fill="#F7DC0A" fill-rule="nonzero" /><path transform="matrix(1 0 0 -1 0 792)" d="M88.6742 681.8344L537.7028 681.8344L537.7028 697.7426L88.6742 697.7426z" stroke="none" fill="#F7DC0A" fill-rule="nonzero" /><path transform="matrix(1 0 0 -1 0 792)" d="M106.6719 670.3107L514.4164 670.3107L514.4164 686.2189L106.6719 686.2189z" stroke="none" fill="#F7DC0A" fill-rule="nonzero" /><path transform="matrix(1 0 0 -1 0 792)" d="M106.6619 658.787L235.9945 658.787L235.9945 674.6951L106.6619 674.6951z" stroke="none" fill="#F7DC0A" fill-rule="nonzero" /><path transform="matrix(1 0 0 -1 0 792)" d="M88.66424 646.6656L507.1356 646.6656L507.1356 662.5738L88.66424 662.5738z" stroke="none" fill="#F7DC0A" fill-rule="nonzero" /><path transform="matrix(1 0 0 -1 0 792)" d="M106.6619 635.142L147.0499 635.142L147.0499 651.05L106.6619 651.05z" stroke="none" fill="#F7DC0A" fill-rule="nonzero" /><path transform="matrix(1 0 0 -1 0 792)" d="M88.67432 622.9173L524.5359 622.9173L524.5359 638.8255L88.67432 638.8255z" stroke="none" fill="#F7DC0A" fill-rule="nonzero" /><path transform="matrix(1 0 0 -1 0 792)" d="M106.672 611.5131L349.4889 611.5131L349.4889 627.4213L106.672 627.4213z" stroke="none" fill="#F7DC0A" fill-rule="nonzero" /></g></g></g></g></svg>