<svg xmlns="http://www.w3.org/2000/svg" xmlns:xlink="http://www.w3.org/1999/xlink" id="body_9" preserveAspectRatio="xMinYMin meet" viewBox="0 0 816 1056"><defs><clipPath id="1"><path clip-rule="evenodd" d="M0 792L0 0L0 0L612 0L612 0L612 792L612 792L0 792z" /></clipPath><clipPath id="2"><path clip-rule="evenodd" d="M0 792L612 792L612 792L612 0L612 0L0 0z" /></clipPath><clipPath id="3"><path clip-rule="evenodd" d="M107.9876 301.9443L539.2755 301.9443L539.2755 301.9443L539.2755 198.7488L539.2755 198.7488L107.9876 198.7488z" /></clipPath><clipPath id="4"><path clip-rule="evenodd" d="M107.9876 301.9443L539.2755 301.9443L539.2755 301.9443L539.2755 198.7488L539.2755 198.7488L107.9876 198.7488z" /></clipPath><clipPath id="5"><path clip-rule="evenodd" d="M108 451.2757L535.782 451.2757L535.782 451.2757L535.782 428.7462L535.782 428.7462L108 428.7462z" /></clipPath><clipPath id="6"><path clip-rule="evenodd" d="M108 451.2757L535.782 451.2757L535.782 451.2757L535.782 428.7462L535.782 428.7462L108 428.7462z" /></clipPath><clipPath id="7"><path clip-rule="evenodd" d="M72.00456 710.6537L534.0634 710.6537L534.0634 710.6537L534.0634 664.8418L534.0634 664.8418L72.00456 664.8418z" /></clipPath><clipPath id="8"><path clip-rule="evenodd" d="M72.00456 710.6537L534.0634 710.6537L534.0634 710.6537L534.0634 664.8418L534.0634 664.8418L72.00456 664.8418z" /></clipPath></defs><g transform="matrix(1.333333 0 0 1.333333 0 0)"><g clip-path="url(#1)"><g clip-path="url(#2)"><path transform="matrix(1 0 0 -1 0 792)" d="M72 222.12L216 222.12L216 222.12L216 222.84L216 222.84L72 222.84z" stroke="none" fill="#000000" fill-rule="evenodd" /></g><g clip-path="url(#3)"><g clip-path="url(#4)"><path transform="matrix(1 0 0 -1 0 792)" d="M106.8751 581.0134L525.3685 581.0134L525.3685 594.3638L106.8751 594.3638z" stroke="none" fill="#F8E29D" fill-rule="nonzero" /><path transform="matrix(1 0 0 -1 0 792)" d="M106.8751 569.4897L520.8267 569.4897L520.8267 582.84L106.8751 582.84z" stroke="none" fill="#F8E29D" fill-rule="nonzero" /><path transform="matrix(1 0 0 -1 0 792)" d="M106.8751 557.966L532.5197 557.966L532.5197 571.3163L106.8751 571.3163z" stroke="none" fill="#F8E29D" fill-rule="nonzero" /><path transform="matrix(1 0 0 -1 0 792)" d="M106.8751 546.4422L435.7583 546.4422L435.7583 559.7925L106.8751 559.7925z" stroke="none" fill="#F8E29D" fill-rule="nonzero" /><path transform="matrix(1 0 0 -1 0 792)" d="M106.8751 523.5143L532.45 523.5143L532.45 536.8646L106.8751 536.8646z" stroke="none" fill="#F8E29D" fill-rule="nonzero" /><path transform="matrix(1 0 0 -1 0 792)" d="M106.8751 511.9906L534.1731 511.9906L534.1731 525.3409L106.8751 525.3409z" stroke="none" fill="#F8E29D" fill-rule="nonzero" /><path transform="matrix(1 0 0 -1 0 792)" d="M106.8751 500.4669L540.3881 500.4669L540.3881 513.8173L106.8751 513.8173z" stroke="none" fill="#F8E29D" fill-rule="nonzero" /><path transform="matrix(1 0 0 -1 0 792)" d="M106.8751 488.9432L486.4946 488.9432L486.4946 502.2935L106.8751 502.2935z" stroke="none" fill="#F8E29D" fill-rule="nonzero" /></g></g><g clip-path="url(#5)"><g clip-path="url(#6)"><path transform="matrix(1 0 0 -1 0 792)" d="M106.8875 351.016L536.8945 351.016L536.8945 364.3663L106.8875 364.3663z" stroke="none" fill="#F8E29D" fill-rule="nonzero" /><path transform="matrix(1 0 0 -1 0 792)" d="M106.8875 339.6118L404.2173 339.6118L404.2173 352.9621L106.8875 352.9621z" stroke="none" fill="#F8E29D" fill-rule="nonzero" /></g></g><g clip-path="url(#7)"><g clip-path="url(#8)"><path transform="matrix(1 0 0 -1 0 792)" d="M398.7687 117.2794L530.6682 117.2794L530.6682 128.0563L398.7687 128.0563z" stroke="none" fill="#F8E29D" fill-rule="nonzero" /><path transform="matrix(1 0 0 -1 0 792)" d="M71.10649 108.0415L527.5165 108.0415L527.5165 118.8184L71.10649 118.8184z" stroke="none" fill="#F8E29D" fill-rule="nonzero" /><path transform="matrix(1 0 0 -1 0 792)" d="M71.10649 98.92415L534.9615 98.92415L534.9615 109.701L71.10649 109.701z" stroke="none" fill="#F8E29D" fill-rule="nonzero" /><path transform="matrix(1 0 0 -1 0 792)" d="M71.10649 89.68622L531.3436 89.68622L531.3436 100.463L71.10649 100.463z" stroke="none" fill="#F8E29D" fill-rule="nonzero" /><path transform="matrix(1 0 0 -1 0 792)" d="M71.10649 80.44825L370.4148 80.44825L370.4148 91.22507L71.10649 91.22507z" stroke="none" fill="#F8E29D" fill-rule="nonzero" /></g></g></g></g></svg>