<svg xmlns="http://www.w3.org/2000/svg" xmlns:xlink="http://www.w3.org/1999/xlink" id="body_75" preserveAspectRatio="xMinYMin meet" viewBox="0 0 816 1056"><defs><clipPath id="1"><path clip-rule="evenodd" d="M0 792L0 0L0 0L612 0L612 0L612 792L612 792L0 792z" /></clipPath><clipPath id="2"><path clip-rule="evenodd" d="M0 792L612 792L612 792L612 0L612 0L0 0z" /></clipPath><clipPath id="3"><path clip-rule="evenodd" d="M117.9 81.99402L523.651 81.99402L523.651 81.99402L523.651 257.495L523.651 257.495L117.9 257.495z" /></clipPath><clipPath id="4"><path clip-rule="evenodd" d="M0 792L612 792L612 792L612 0L612 0L0 0z" /></clipPath><clipPath id="5"><path clip-rule="evenodd" d="M92.25 372.49L521.248 372.49L521.248 372.49L521.248 562.202L521.248 562.202L92.25 562.202z" /></clipPath><clipPath id="6"><path clip-rule="evenodd" d="M0 792L612 792L612 792L612 0L612 0L0 0z" /></clipPath></defs><g transform="matrix(1.333333 0 0 1.333333 0 0)"><g clip-path="url(#1)"><g clip-path="url(#2)"></g><g clip-path="url(#3)"><g clip-path="url(#4)"><g transform="matrix(0.7472376 0 0 0.7468085 117.8999 81.99597)"><g transform="matrix(1 0 0 1 0 0)"><image x="0" y="0" xlink:href="img_103.png" width="543" height="235" /></g></g></g></g><g clip-path="url(#5)"><g clip-path="url(#6)"><g transform="matrix(0.7486911 0 0 0.7441177 92.25 372.4863)"><g transform="matrix(1 0 0 1 0 0)"><image x="0" y="0" xlink:href="img_104.png" width="573" height="255" /></g></g></g></g></g></g></svg>