<svg xmlns="http://www.w3.org/2000/svg" xmlns:xlink="http://www.w3.org/1999/xlink" id="body_18" preserveAspectRatio="xMinYMin meet" viewBox="0 0 816 1056"><defs><clipPath id="1"><path clip-rule="evenodd" d="M0 792L0 0L0 0L612 0L612 0L612 792L612 792L0 792z" /></clipPath><clipPath id="2"><path clip-rule="evenodd" d="M0 792L612 792L612 792L612 0L612 0L0 0z" /></clipPath><clipPath id="3"><path clip-rule="evenodd" d="M224.64 121.992L387.432 121.992L387.432 121.992L387.432 105.36L387.432 105.36L224.64 105.36z" /></clipPath><clipPath id="4"><path clip-rule="evenodd" d="M224.64 121.992L387.432 121.992L387.432 121.992L387.432 105.36L387.432 105.36L224.64 105.36z" /></clipPath></defs><g transform="matrix(1.333333 0 0 1.333333 0 0)"><g clip-path="url(#1)"><g clip-path="url(#2)"><path transform="matrix(1 0 0 -1 0 792)" d="M66.12 659.76L66.60001 659.76L66.60001 659.76L66.60001 660.24L66.60001 660.24L66.12 660.24z" stroke="none" fill="#000000" fill-rule="evenodd" /><path transform="matrix(1 0 0 -1 0 792)" d="M66.12 659.76L66.60001 659.76L66.60001 659.76L66.60001 660.24L66.60001 660.24L66.12 660.24z" stroke="none" fill="#000000" fill-rule="evenodd" /><path transform="matrix(1 0 0 -1 0 792)" d="M66.6 659.76L527.4 659.76L527.4 659.76L527.4 660.24L527.4 660.24L66.6 660.24z" stroke="none" fill="#000000" fill-rule="evenodd" /><path transform="matrix(1 0 0 -1 0 792)" d="M527.4 659.76L527.88 659.76L527.88 659.76L527.88 660.24L527.88 660.24L527.4 660.24z" stroke="none" fill="#000000" fill-rule="evenodd" /><path transform="matrix(1 0 0 -1 0 792)" d="M527.4 659.76L527.88 659.76L527.88 659.76L527.88 660.24L527.88 660.24L527.4 660.24z" stroke="none" fill="#000000" fill-rule="evenodd" /><path transform="matrix(1 0 0 -1 0 792)" d="M66.12 641.76L66.60001 641.76L66.60001 641.76L66.60001 642.24L66.60001 642.24L66.12 642.24z" stroke="none" fill="#000000" fill-rule="evenodd" /><path transform="matrix(1 0 0 -1 0 792)" d="M66.12 641.76L66.60001 641.76L66.60001 641.76L66.60001 642.24L66.60001 642.24L66.12 642.24z" stroke="none" fill="#000000" fill-rule="evenodd" /><path transform="matrix(1 0 0 -1 0 792)" d="M66.6 641.76L527.4 641.76L527.4 641.76L527.4 642.24L527.4 642.24L66.6 642.24z" stroke="none" fill="#000000" fill-rule="evenodd" /><path transform="matrix(1 0 0 -1 0 792)" d="M527.4 641.76L527.88 641.76L527.88 641.76L527.88 642.24L527.88 642.24L527.4 642.24z" stroke="none" fill="#000000" fill-rule="evenodd" /><path transform="matrix(1 0 0 -1 0 792)" d="M527.4 641.76L527.88 641.76L527.88 641.76L527.88 642.24L527.88 642.24L527.4 642.24z" stroke="none" fill="#000000" fill-rule="evenodd" /><path transform="matrix(1 0 0 -1 0 792)" d="M66.12 642.24L66.60001 642.24L66.60001 642.24L66.60001 659.76L66.60001 659.76L66.12 659.76z" stroke="none" fill="#000000" fill-rule="evenodd" /><path transform="matrix(1 0 0 -1 0 792)" d="M527.4 642.24L527.88 642.24L527.88 642.24L527.88 659.76L527.88 659.76L527.4 659.76z" stroke="none" fill="#000000" fill-rule="evenodd" /><path transform="matrix(1 0 0 -1 0 792)" d="M72 139.44L540 139.44L540 139.44L540 140.16L540 140.16L72 140.16z" stroke="none" fill="#000000" fill-rule="evenodd" /><path transform="matrix(1 0 0 -1 0 792)" d="M66.12 309.24L66.60001 309.24L66.60001 309.24L66.60001 309.72L66.60001 309.72L66.12 309.72z" stroke="none" fill="#000000" fill-rule="evenodd" /><path transform="matrix(1 0 0 -1 0 792)" d="M66.12 309.24L66.60001 309.24L66.60001 309.24L66.60001 309.72L66.60001 309.72L66.12 309.72z" stroke="none" fill="#000000" fill-rule="evenodd" /><path transform="matrix(1 0 0 -1 0 792)" d="M66.6 309.24L545.4 309.24L545.4 309.24L545.4 309.72L545.4 309.72L66.6 309.72z" stroke="none" fill="#000000" fill-rule="evenodd" /><path transform="matrix(1 0 0 -1 0 792)" d="M545.4 309.24L545.88 309.24L545.88 309.24L545.88 309.72L545.88 309.72L545.4 309.72z" stroke="none" fill="#000000" fill-rule="evenodd" /><path transform="matrix(1 0 0 -1 0 792)" d="M545.4 309.24L545.88 309.24L545.88 309.24L545.88 309.72L545.88 309.72L545.4 309.72z" stroke="none" fill="#000000" fill-rule="evenodd" /><path transform="matrix(1 0 0 -1 0 792)" d="M66.12 291.24L66.60001 291.24L66.60001 291.24L66.60001 291.72L66.60001 291.72L66.12 291.72z" stroke="none" fill="#000000" fill-rule="evenodd" /><path transform="matrix(1 0 0 -1 0 792)" d="M66.12 291.24L66.60001 291.24L66.60001 291.24L66.60001 291.72L66.60001 291.72L66.12 291.72z" stroke="none" fill="#000000" fill-rule="evenodd" /><path transform="matrix(1 0 0 -1 0 792)" d="M66.6 291.24L545.4 291.24L545.4 291.24L545.4 291.72L545.4 291.72L66.6 291.72z" stroke="none" fill="#000000" fill-rule="evenodd" /><path transform="matrix(1 0 0 -1 0 792)" d="M545.4 291.24L545.88 291.24L545.88 291.24L545.88 291.72L545.88 291.72L545.4 291.72z" stroke="none" fill="#000000" fill-rule="evenodd" /><path transform="matrix(1 0 0 -1 0 792)" d="M545.4 291.24L545.88 291.24L545.88 291.24L545.88 291.72L545.88 291.72L545.4 291.72z" stroke="none" fill="#000000" fill-rule="evenodd" /><path transform="matrix(1 0 0 -1 0 792)" d="M66.12 291.72L66.60001 291.72L66.60001 291.72L66.60001 309.24L66.60001 309.24L66.12 309.24z" stroke="none" fill="#000000" fill-rule="evenodd" /><path transform="matrix(1 0 0 -1 0 792)" d="M545.4 291.72L545.88 291.72L545.88 291.72L545.88 309.24L545.88 309.24L545.4 309.24z" stroke="none" fill="#000000" fill-rule="evenodd" /><g transform="matrix(0.7499064 0 0 0.7499061 73.5 184.791)"><g transform="matrix(1 0 0 1 0 0)"><image x="0" y="0" xlink:href="img_19.png" width="561" height="179" /></g></g></g><g clip-path="url(#3)"><g clip-path="url(#4)"><path transform="matrix(1 0 0 -1 0 792)" d="M222.9768 668.3448L389.0952 668.3448L389.0952 688.3032L222.9768 688.3032z" stroke="none" fill="#F6DB09" fill-rule="nonzero" /></g></g></g></g></svg>