<svg xmlns="http://www.w3.org/2000/svg" xmlns:xlink="http://www.w3.org/1999/xlink" id="body_24" preserveAspectRatio="xMinYMin meet" viewBox="0 0 816 1056"><defs><clipPath id="1"><path clip-rule="evenodd" d="M0 792L0 0L0 0L612 0L612 0L612 792L612 792L0 792z" /></clipPath><clipPath id="2"><path clip-rule="evenodd" d="M0 792L612 792L612 792L612 0L612 0L0 0z" /></clipPath><clipPath id="3"><path clip-rule="evenodd" d="M149.8374 141.9761L177.9844 141.9761L177.9844 141.9761L177.9844 128.7193L177.9844 128.7193L149.8374 128.7193z" /></clipPath><clipPath id="4"><path clip-rule="evenodd" d="M149.8374 141.9761L177.9844 141.9761L177.9844 141.9761L177.9844 128.7193L177.9844 128.7193L149.8374 128.7193z" /></clipPath><clipPath id="5"><path clip-rule="evenodd" d="M198.0538 141.9761L336.9659 141.9761L336.9659 141.9761L336.9659 128.7193L336.9659 128.7193L198.0538 128.7193z" /></clipPath><clipPath id="6"><path clip-rule="evenodd" d="M198.0538 141.9761L336.9659 141.9761L336.9659 141.9761L336.9659 128.7193L336.9659 128.7193L198.0538 128.7193z" /></clipPath><clipPath id="7"><path clip-rule="evenodd" d="M230.4536 153.4998L261.3994 153.4998L261.3994 153.4998L261.3994 140.243L261.3994 140.243L230.4536 140.243z" /></clipPath><clipPath id="8"><path clip-rule="evenodd" d="M230.4536 153.4998L261.3994 153.4998L261.3994 153.4998L261.3994 140.243L261.3994 140.243L230.4536 140.243z" /></clipPath><clipPath id="9"><path clip-rule="evenodd" d="M293.6698 153.4998L338.679 153.4998L338.679 153.4998L338.679 140.243L338.679 140.243L293.6698 140.243z" /></clipPath><clipPath id="10"><path clip-rule="evenodd" d="M293.6698 153.4998L338.679 153.4998L338.679 153.4998L338.679 140.243L338.679 140.243L293.6698 140.243z" /></clipPath><clipPath id="11"><path clip-rule="evenodd" d="M352.5931 153.4998L386.5169 153.4998L386.5169 153.4998L386.5169 140.243L386.5169 140.243L352.5931 140.243z" /></clipPath><clipPath id="12"><path clip-rule="evenodd" d="M352.5931 153.4998L386.5169 153.4998L386.5169 153.4998L386.5169 140.243L386.5169 140.243L352.5931 140.243z" /></clipPath><clipPath id="13"><path clip-rule="evenodd" d="M71.99004 257.3627L487.5312 257.3627L487.5312 257.3627L487.5312 243.5581L487.5312 243.5581L71.99004 243.5581z" /></clipPath><clipPath id="14"><path clip-rule="evenodd" d="M71.99004 257.3627L487.5312 257.3627L487.5312 257.3627L487.5312 243.5581L487.5312 243.5581L71.99004 243.5581z" /></clipPath><clipPath id="15"><path clip-rule="evenodd" d="M190.8826 450.6366L289.6758 450.6366L289.6758 450.6366L289.6758 436.832L289.6758 436.832L190.8826 436.832z" /></clipPath><clipPath id="16"><path clip-rule="evenodd" d="M190.8826 450.6366L289.6758 450.6366L289.6758 450.6366L289.6758 436.832L289.6758 436.832L190.8826 436.832z" /></clipPath><clipPath id="17"><path clip-rule="evenodd" d="M341.4379 439.1129L405.3313 439.1129L405.3313 439.1129L405.3313 425.3083L405.3313 425.3083L341.4379 425.3083z" /></clipPath><clipPath id="18"><path clip-rule="evenodd" d="M341.4379 439.1129L405.3313 439.1129L405.3313 439.1129L405.3313 425.3083L405.3313 425.3083L341.4379 425.3083z" /></clipPath><clipPath id="19"><path clip-rule="evenodd" d="M474.1748 450.1286L525.2896 450.1286L525.2896 450.1286L525.2896 436.8719L525.2896 436.8719L474.1748 436.8719z" /></clipPath><clipPath id="20"><path clip-rule="evenodd" d="M474.1748 450.1286L525.2896 450.1286L525.2896 450.1286L525.2896 436.8719L525.2896 436.8719L474.1748 436.8719z" /></clipPath><clipPath id="21"><path clip-rule="evenodd" d="M72 439.1129L533.2577 439.1129L533.2577 439.1129L533.2577 413.7846L533.2577 413.7846L72 413.7846z" /></clipPath><clipPath id="22"><path clip-rule="evenodd" d="M72 439.1129L533.2577 439.1129L533.2577 439.1129L533.2577 413.7846L533.2577 413.7846L72 413.7846z" /></clipPath><clipPath id="23"><path clip-rule="evenodd" d="M381.5668 485.2078L497.7502 485.2078L497.7502 485.2078L497.7502 471.4032L497.7502 471.4032L381.5668 471.4032z" /></clipPath><clipPath id="24"><path clip-rule="evenodd" d="M381.5668 485.2078L497.7502 485.2078L497.7502 485.2078L497.7502 471.4032L497.7502 471.4032L381.5668 471.4032z" /></clipPath><clipPath id="25"><path clip-rule="evenodd" d="M71.99004 508.1357L515.22 508.1357L515.22 508.1357L515.22 482.8074L515.22 482.8074L71.99004 482.8074z" /></clipPath><clipPath id="26"><path clip-rule="evenodd" d="M71.99004 508.1357L515.22 508.1357L515.22 508.1357L515.22 482.8074L515.22 482.8074L71.99004 482.8074z" /></clipPath><clipPath id="27"><path clip-rule="evenodd" d="M216.3104 508.1357L259.746 508.1357L259.746 508.1357L259.746 494.3311L259.746 494.3311L216.3104 494.3311z" /></clipPath><clipPath id="28"><path clip-rule="evenodd" d="M216.3104 508.1357L259.746 508.1357L259.746 508.1357L259.746 494.3311L259.746 494.3311L216.3104 494.3311z" /></clipPath></defs><g transform="matrix(1.333333 0 0 1.333333 0 0)"><g clip-path="url(#1)"><g clip-path="url(#2)"><path transform="matrix(1 0 0 -1 0 792)" d="M66.12 512.52L66.60001 512.52L66.60001 512.52L66.60001 513L66.60001 513L66.12 513z" stroke="none" fill="#000000" fill-rule="evenodd" /><path transform="matrix(1 0 0 -1 0 792)" d="M66.12 512.52L66.60001 512.52L66.60001 512.52L66.60001 513L66.60001 513L66.12 513z" stroke="none" fill="#000000" fill-rule="evenodd" /><path transform="matrix(1 0 0 -1 0 792)" d="M66.6 512.52L545.4 512.52L545.4 512.52L545.4 513L545.4 513L66.6 513z" stroke="none" fill="#000000" fill-rule="evenodd" /><path transform="matrix(1 0 0 -1 0 792)" d="M545.4 512.52L545.88 512.52L545.88 512.52L545.88 513L545.88 513L545.4 513z" stroke="none" fill="#000000" fill-rule="evenodd" /><path transform="matrix(1 0 0 -1 0 792)" d="M545.4 512.52L545.88 512.52L545.88 512.52L545.88 513L545.88 513L545.4 513z" stroke="none" fill="#000000" fill-rule="evenodd" /><path transform="matrix(1 0 0 -1 0 792)" d="M66.12 498L66.60001 498L66.60001 498L66.60001 512.52L66.60001 512.52L66.12 512.52z" stroke="none" fill="#000000" fill-rule="evenodd" /><path transform="matrix(1 0 0 -1 0 792)" d="M545.4 498L545.88 498L545.88 498L545.88 512.52L545.88 512.52L545.4 512.52z" stroke="none" fill="#000000" fill-rule="evenodd" /><path transform="matrix(1 0 0 -1 0 792)" d="M66.12 486.48L66.60001 486.48L66.60001 486.48L66.60001 498L66.60001 498L66.12 498z" stroke="none" fill="#000000" fill-rule="evenodd" /><path transform="matrix(1 0 0 -1 0 792)" d="M545.4 486.48L545.88 486.48L545.88 486.48L545.88 498L545.88 498L545.4 498z" stroke="none" fill="#000000" fill-rule="evenodd" /><path transform="matrix(1 0 0 -1 0 792)" d="M66.12 475.08L66.60001 475.08L66.60001 475.08L66.60001 486.48L66.60001 486.48L66.12 486.48z" stroke="none" fill="#000000" fill-rule="evenodd" /><path transform="matrix(1 0 0 -1 0 792)" d="M545.4 475.08L545.88 475.08L545.88 475.08L545.88 486.48L545.88 486.48L545.4 486.48z" stroke="none" fill="#000000" fill-rule="evenodd" /><path transform="matrix(1 0 0 -1 0 792)" d="M66.12 463.56L66.60001 463.56L66.60001 463.56L66.60001 475.08L66.60001 475.08L66.12 475.08z" stroke="none" fill="#000000" fill-rule="evenodd" /><path transform="matrix(1 0 0 -1 0 792)" d="M545.4 463.56L545.88 463.56L545.88 463.56L545.88 475.08L545.88 475.08L545.4 475.08z" stroke="none" fill="#000000" fill-rule="evenodd" /><path transform="matrix(1 0 0 -1 0 792)" d="M66.12 452.04L66.60001 452.04L66.60001 452.04L66.60001 463.56L66.60001 463.56L66.12 463.56z" stroke="none" fill="#000000" fill-rule="evenodd" /><path transform="matrix(1 0 0 -1 0 792)" d="M545.4 452.04L545.88 452.04L545.88 452.04L545.88 463.56L545.88 463.56L545.4 463.56z" stroke="none" fill="#000000" fill-rule="evenodd" /><path transform="matrix(1 0 0 -1 0 792)" d="M66.12 440.52L66.60001 440.52L66.60001 440.52L66.60001 452.04L66.60001 452.04L66.12 452.04z" stroke="none" fill="#000000" fill-rule="evenodd" /><path transform="matrix(1 0 0 -1 0 792)" d="M545.4 440.52L545.88 440.52L545.88 440.52L545.88 452.04L545.88 452.04L545.4 452.04z" stroke="none" fill="#000000" fill-rule="evenodd" /><path transform="matrix(1 0 0 -1 0 792)" d="M66.12 425.52L66.60001 425.52L66.60001 425.52L66.60001 426L66.60001 426L66.12 426z" stroke="none" fill="#000000" fill-rule="evenodd" /><path transform="matrix(1 0 0 -1 0 792)" d="M66.12 425.52L66.60001 425.52L66.60001 425.52L66.60001 426L66.60001 426L66.12 426z" stroke="none" fill="#000000" fill-rule="evenodd" /><path transform="matrix(1 0 0 -1 0 792)" d="M66.6 425.52L545.4 425.52L545.4 425.52L545.4 426L545.4 426L66.6 426z" stroke="none" fill="#000000" fill-rule="evenodd" /><path transform="matrix(1 0 0 -1 0 792)" d="M545.4 425.52L545.88 425.52L545.88 425.52L545.88 426L545.88 426L545.4 426z" stroke="none" fill="#000000" fill-rule="evenodd" /><path transform="matrix(1 0 0 -1 0 792)" d="M545.4 425.52L545.88 425.52L545.88 425.52L545.88 426L545.88 426L545.4 426z" stroke="none" fill="#000000" fill-rule="evenodd" /><path transform="matrix(1 0 0 -1 0 792)" d="M66.12 426L66.60001 426L66.60001 426L66.60001 440.52L66.60001 440.52L66.12 440.52z" stroke="none" fill="#000000" fill-rule="evenodd" /><path transform="matrix(1 0 0 -1 0 792)" d="M545.4 426L545.88 426L545.88 426L545.88 440.52L545.88 440.52L545.4 440.52z" stroke="none" fill="#000000" fill-rule="evenodd" /><path transform="matrix(1 0 0 -1 0 792)" d="M142.68 193.44L168.84 193.44L168.84 193.44L168.84 194.52L168.84 194.52L142.68 194.52z" stroke="none" fill="#000000" fill-rule="evenodd" /><path transform="matrix(1 0 0 -1 0 792)" d="M232.8 170.52L277.68 170.52L277.68 170.52L277.68 171.6L277.68 171.6L232.8 171.6z" stroke="none" fill="#000000" fill-rule="evenodd" /><path transform="matrix(1 0 0 -1 0 792)" d="M143.76 147.48L187.68 147.48L187.68 147.48L187.68 148.56L187.68 148.56L143.76 148.56z" stroke="none" fill="#000000" fill-rule="evenodd" /><path transform="matrix(1 0 0 -1 0 792)" d="M72 120.96L216 120.96L216 120.96L216 121.68L216 121.68L72 121.68z" stroke="none" fill="#000000" fill-rule="evenodd" /></g><g clip-path="url(#3)"><g clip-path="url(#4)"><path transform="matrix(1 0 0 -1 0 792)" d="M148.5117 648.6982L179.3101 648.6982L179.3101 664.6064L148.5117 664.6064z" stroke="none" fill="#F6DB09" fill-rule="nonzero" /></g></g><g clip-path="url(#5)"><g clip-path="url(#6)"><path transform="matrix(1 0 0 -1 0 792)" d="M196.7281 648.6982L338.2916 648.6982L338.2916 664.6064L196.7281 664.6064z" stroke="none" fill="#F6DB09" fill-rule="nonzero" /></g></g><g clip-path="url(#7)"><g clip-path="url(#8)"><path transform="matrix(1 0 0 -1 0 792)" d="M229.1279 637.1745L262.7251 637.1745L262.7251 653.0827L229.1279 653.0827z" stroke="none" fill="#F6DB09" fill-rule="nonzero" /></g></g><g clip-path="url(#9)"><g clip-path="url(#10)"><path transform="matrix(1 0 0 -1 0 792)" d="M292.3441 637.1745L340.0047 637.1745L340.0047 653.0827L292.3441 653.0827z" stroke="none" fill="#F6DB09" fill-rule="nonzero" /></g></g><g clip-path="url(#11)"><g clip-path="url(#12)"><path transform="matrix(1 0 0 -1 0 792)" d="M351.2674 637.1745L387.8426 637.1745L387.8426 653.0827L351.2674 653.0827z" stroke="none" fill="#F6DB09" fill-rule="nonzero" /></g></g><g clip-path="url(#13)"><g clip-path="url(#14)"><path transform="matrix(1 0 0 -1 0 792)" d="M70.60958 533.2569L488.9116 533.2569L488.9116 549.8223L70.60958 549.8223z" stroke="none" fill="#B3E508" fill-rule="nonzero" /></g></g><g clip-path="url(#15)"><g clip-path="url(#16)"><path transform="matrix(1 0 0 -1 0 792)" d="M189.5021 339.9829L291.0562 339.9829L291.0562 356.5485L189.5021 356.5485z" stroke="none" fill="#F6DB09" fill-rule="nonzero" /></g></g><g clip-path="url(#17)"><g clip-path="url(#18)"><path transform="matrix(1 0 0 -1 0 792)" d="M340.0574 351.5066L406.7118 351.5066L406.7118 368.0722L340.0574 368.0722z" stroke="none" fill="#F6DB09" fill-rule="nonzero" /></g></g><g clip-path="url(#19)"><g clip-path="url(#20)"><path transform="matrix(1 0 0 -1 0 792)" d="M472.8491 340.5457L526.6153 340.5457L526.6153 356.4538L472.8491 356.4538z" stroke="none" fill="#F6DB09" fill-rule="nonzero" /></g></g><g clip-path="url(#21)"><g clip-path="url(#22)"><path transform="matrix(1 0 0 -1 0 792)" d="M472.3562 363.0303L534.6381 363.0303L534.6381 379.5959L472.3562 379.5959z" stroke="none" fill="#F6DB09" fill-rule="nonzero" /><path transform="matrix(1 0 0 -1 0 792)" d="M70.61954 351.5066L99.4159 351.5066L99.4159 368.0721L70.61954 368.0721z" stroke="none" fill="#F6DB09" fill-rule="nonzero" /></g></g><g clip-path="url(#23)"><g clip-path="url(#24)"><path transform="matrix(1 0 0 -1 0 792)" d="M380.1863 305.4117L499.1306 305.4117L499.1306 321.9773L380.1863 321.9773z" stroke="none" fill="#F6DB09" fill-rule="nonzero" /></g></g><g clip-path="url(#25)"><g clip-path="url(#26)"><path transform="matrix(1 0 0 -1 0 792)" d="M310.6455 294.0075L516.6003 294.0075L516.6003 310.5731L310.6455 310.5731z" stroke="none" fill="#F6DB09" fill-rule="nonzero" /><path transform="matrix(1 0 0 -1 0 792)" d="M70.60958 282.4838L121.0192 282.4838L121.0192 299.0493L70.60958 299.0493z" stroke="none" fill="#F6DB09" fill-rule="nonzero" /></g></g><g clip-path="url(#27)"><g clip-path="url(#28)"><path transform="matrix(1 0 0 -1 0 792)" d="M214.9299 282.4838L261.1265 282.4838L261.1265 299.0494L214.9299 299.0494z" stroke="none" fill="#F6DB09" fill-rule="nonzero" /></g></g></g></g></svg>