<svg xmlns="http://www.w3.org/2000/svg" xmlns:xlink="http://www.w3.org/1999/xlink" id="body_20" preserveAspectRatio="xMinYMin meet" viewBox="0 0 816 1056"><defs><clipPath id="1"><path clip-rule="evenodd" d="M0 792L0 0L0 0L612 0L612 0L612 792L612 792L0 792z" /></clipPath><clipPath id="2"><path clip-rule="evenodd" d="M0 792L612 792L612 792L612 0L612 0L0 0z" /></clipPath><clipPath id="3"><path clip-rule="evenodd" d="M71.98032 532.2496L531.5148 532.2496L531.5148 532.2496L531.5148 507.4691L531.5148 507.4691L71.98032 507.4691z" /></clipPath><clipPath id="4"><path clip-rule="evenodd" d="M71.98032 532.2496L531.5148 532.2496L531.5148 532.2496L531.5148 507.4691L531.5148 507.4691L71.98032 507.4691z" /></clipPath></defs><g transform="matrix(1.333333 0 0 1.333333 0 0)"><g clip-path="url(#1)"><g clip-path="url(#2)"><path transform="matrix(1 0 0 -1 0 792)" d="M66.12 685.08L66.60001 685.08L66.60001 685.08L66.60001 685.56L66.60001 685.56L66.12 685.56z" stroke="none" fill="#000000" fill-rule="evenodd" /><path transform="matrix(1 0 0 -1 0 792)" d="M66.12 685.08L66.60001 685.08L66.60001 685.08L66.60001 685.56L66.60001 685.56L66.12 685.56z" stroke="none" fill="#000000" fill-rule="evenodd" /><path transform="matrix(1 0 0 -1 0 792)" d="M66.6 685.08L545.4 685.08L545.4 685.08L545.4 685.56L545.4 685.56L66.6 685.56z" stroke="none" fill="#000000" fill-rule="evenodd" /><path transform="matrix(1 0 0 -1 0 792)" d="M545.4 685.08L545.88 685.08L545.88 685.08L545.88 685.56L545.88 685.56L545.4 685.56z" stroke="none" fill="#000000" fill-rule="evenodd" /><path transform="matrix(1 0 0 -1 0 792)" d="M545.4 685.08L545.88 685.08L545.88 685.08L545.88 685.56L545.88 685.56L545.4 685.56z" stroke="none" fill="#000000" fill-rule="evenodd" /><path transform="matrix(1 0 0 -1 0 792)" d="M66.12 666.96L66.60001 666.96L66.60001 666.96L66.60001 667.44L66.60001 667.44L66.12 667.44z" stroke="none" fill="#000000" fill-rule="evenodd" /><path transform="matrix(1 0 0 -1 0 792)" d="M66.12 666.96L66.60001 666.96L66.60001 666.96L66.60001 667.44L66.60001 667.44L66.12 667.44z" stroke="none" fill="#000000" fill-rule="evenodd" /><path transform="matrix(1 0 0 -1 0 792)" d="M66.6 666.96L545.4 666.96L545.4 666.96L545.4 667.44L545.4 667.44L66.6 667.44z" stroke="none" fill="#000000" fill-rule="evenodd" /><path transform="matrix(1 0 0 -1 0 792)" d="M545.4 666.96L545.88 666.96L545.88 666.96L545.88 667.44L545.88 667.44L545.4 667.44z" stroke="none" fill="#000000" fill-rule="evenodd" /><path transform="matrix(1 0 0 -1 0 792)" d="M545.4 666.96L545.88 666.96L545.88 666.96L545.88 667.44L545.88 667.44L545.4 667.44z" stroke="none" fill="#000000" fill-rule="evenodd" /><path transform="matrix(1 0 0 -1 0 792)" d="M66.12 667.44L66.60001 667.44L66.60001 667.44L66.60001 685.08L66.60001 685.08L66.12 685.08z" stroke="none" fill="#000000" fill-rule="evenodd" /><path transform="matrix(1 0 0 -1 0 792)" d="M545.4 667.44L545.88 667.44L545.88 667.44L545.88 685.08L545.88 685.08L545.4 685.08z" stroke="none" fill="#000000" fill-rule="evenodd" /><path transform="matrix(1 0 0 -1 0 792)" d="M72 139.44L216 139.44L216 139.44L216 140.16L216 140.16L72 140.16z" stroke="none" fill="#000000" fill-rule="evenodd" /><path transform="matrix(1 0 0 -1 0 792)" d="M66.12 248.76L66.60001 248.76L66.60001 248.76L66.60001 249.24L66.60001 249.24L66.12 249.24z" stroke="none" fill="#000000" fill-rule="evenodd" /><path transform="matrix(1 0 0 -1 0 792)" d="M66.12 248.76L66.60001 248.76L66.60001 248.76L66.60001 249.24L66.60001 249.24L66.12 249.24z" stroke="none" fill="#000000" fill-rule="evenodd" /><path transform="matrix(1 0 0 -1 0 792)" d="M66.6 248.76L545.4 248.76L545.4 248.76L545.4 249.24L545.4 249.24L66.6 249.24z" stroke="none" fill="#000000" fill-rule="evenodd" /><path transform="matrix(1 0 0 -1 0 792)" d="M545.4 248.76L545.88 248.76L545.88 248.76L545.88 249.24L545.88 249.24L545.4 249.24z" stroke="none" fill="#000000" fill-rule="evenodd" /><path transform="matrix(1 0 0 -1 0 792)" d="M545.4 248.76L545.88 248.76L545.88 248.76L545.88 249.24L545.88 249.24L545.4 249.24z" stroke="none" fill="#000000" fill-rule="evenodd" /><path transform="matrix(1 0 0 -1 0 792)" d="M66.12 233.28L66.60001 233.28L66.60001 233.28L66.60001 248.76L66.60001 248.76L66.12 248.76z" stroke="none" fill="#000000" fill-rule="evenodd" /><path transform="matrix(1 0 0 -1 0 792)" d="M545.4 233.28L545.88 233.28L545.88 233.28L545.88 248.76L545.88 248.76L545.4 248.76z" stroke="none" fill="#000000" fill-rule="evenodd" /><path transform="matrix(1 0 0 -1 0 792)" d="M66.12 217.32L66.60001 217.32L66.60001 217.32L66.60001 217.8L66.60001 217.8L66.12 217.8z" stroke="none" fill="#000000" fill-rule="evenodd" /><path transform="matrix(1 0 0 -1 0 792)" d="M66.12 217.32L66.60001 217.32L66.60001 217.32L66.60001 217.8L66.60001 217.8L66.12 217.8z" stroke="none" fill="#000000" fill-rule="evenodd" /><path transform="matrix(1 0 0 -1 0 792)" d="M66.6 217.32L545.4 217.32L545.4 217.32L545.4 217.8L545.4 217.8L66.6 217.8z" stroke="none" fill="#000000" fill-rule="evenodd" /><path transform="matrix(1 0 0 -1 0 792)" d="M545.4 217.32L545.88 217.32L545.88 217.32L545.88 217.8L545.88 217.8L545.4 217.8z" stroke="none" fill="#000000" fill-rule="evenodd" /><path transform="matrix(1 0 0 -1 0 792)" d="M545.4 217.32L545.88 217.32L545.88 217.32L545.88 217.8L545.88 217.8L545.4 217.8z" stroke="none" fill="#000000" fill-rule="evenodd" /><path transform="matrix(1 0 0 -1 0 792)" d="M66.12 217.8L66.60001 217.8L66.60001 217.8L66.60001 233.28L66.60001 233.28L66.12 233.28z" stroke="none" fill="#000000" fill-rule="evenodd" /><path transform="matrix(1 0 0 -1 0 792)" d="M545.4 217.8L545.88 217.8L545.88 217.8L545.88 233.28L545.88 233.28L545.4 233.28z" stroke="none" fill="#000000" fill-rule="evenodd" /><g transform="matrix(0.7499064 0 0 0.7499059 73.5 159.4932)"><g transform="matrix(1 0 0 1 0 0)"><image x="0" y="0" xlink:href="img_23.png" width="584" height="235" /></g></g></g><g clip-path="url(#3)"><g clip-path="url(#4)"><path transform="matrix(1 0 0 -1 0 792)" d="M314.087 269.9485L532.8404 269.9485L532.8404 285.8566L314.087 285.8566z" stroke="none" fill="#F6DB09" fill-rule="nonzero" /><path transform="matrix(1 0 0 -1 0 792)" d="M70.65464 258.4247L492.8311 258.4247L492.8311 274.3329L70.65464 274.3329z" stroke="none" fill="#F6DB09" fill-rule="nonzero" /></g></g></g></g></svg>