<svg xmlns="http://www.w3.org/2000/svg" xmlns:xlink="http://www.w3.org/1999/xlink" id="body_29" preserveAspectRatio="xMinYMin meet" viewBox="0 0 816 1056"><defs><clipPath id="1"><path clip-rule="evenodd" d="M0 792L0 0L0 0L612 0L612 0L612 792L612 792L0 792z" /></clipPath><clipPath id="2"><path clip-rule="evenodd" d="M0 792L612 792L612 792L612 0L612 0L0 0z" /></clipPath><clipPath id="3"><path clip-rule="evenodd" d="M71.9922 107.9095L534.196 107.9095L534.196 107.9095L534.196 71.06158L534.196 71.06158L71.9922 71.06158z" /></clipPath><clipPath id="4"><path clip-rule="evenodd" d="M71.9922 107.9095L534.196 107.9095L534.196 107.9095L534.196 71.06158L534.196 71.06158L71.9922 71.06158z" /></clipPath><clipPath id="5"><path clip-rule="evenodd" d="M170.7358 223.585L238.5036 223.585L238.5036 223.585L238.5036 209.7804L238.5036 209.7804L170.7358 209.7804z" /></clipPath><clipPath id="6"><path clip-rule="evenodd" d="M170.7358 223.585L238.5036 223.585L238.5036 223.585L238.5036 209.7804L238.5036 209.7804L170.7358 209.7804z" /></clipPath><clipPath id="7"><path clip-rule="evenodd" d="M391.4294 247.2599L420.3533 247.2599L420.3533 247.2599L420.3533 233.4553L420.3533 233.4553L391.4294 233.4553z" /></clipPath><clipPath id="8"><path clip-rule="evenodd" d="M391.4294 247.2599L420.3533 247.2599L420.3533 247.2599L420.3533 233.4553L420.3533 233.4553L391.4294 233.4553z" /></clipPath><clipPath id="9"><path clip-rule="evenodd" d="M385.9116 247.2599L391.4294 247.2599L391.4294 247.2599L391.4294 233.4553L391.4294 233.4553L385.9116 233.4553z" /></clipPath><clipPath id="10"><path clip-rule="evenodd" d="M385.9116 247.2599L391.4294 247.2599L391.4294 247.2599L391.4294 233.4553L391.4294 233.4553L385.9116 233.4553z" /></clipPath><clipPath id="11"><path clip-rule="evenodd" d="M166.7717 270.9049L405.8515 270.9049L405.8515 270.9049L405.8515 257.1003L405.8515 257.1003L166.7717 257.1003z" /></clipPath><clipPath id="12"><path clip-rule="evenodd" d="M166.7717 270.9049L405.8515 270.9049L405.8515 270.9049L405.8515 257.1003L405.8515 257.1003L166.7717 257.1003z" /></clipPath><clipPath id="13"><path clip-rule="evenodd" d="M241.8701 329.1211L442.6438 329.1211L442.6438 329.1211L442.6438 315.3166L442.6438 315.3166L241.8701 315.3166z" /></clipPath><clipPath id="14"><path clip-rule="evenodd" d="M241.8701 329.1211L442.6438 329.1211L442.6438 329.1211L442.6438 315.3166L442.6438 315.3166L241.8701 315.3166z" /></clipPath><clipPath id="15"><path clip-rule="evenodd" d="M234.0415 341.362L435.2236 341.362L435.2236 341.362L435.2236 327.5574L435.2236 327.5574L234.0415 327.5574z" /></clipPath><clipPath id="16"><path clip-rule="evenodd" d="M234.0415 341.362L435.2236 341.362L435.2236 341.362L435.2236 327.5574L435.2236 327.5574L234.0415 327.5574z" /></clipPath><clipPath id="17"><path clip-rule="evenodd" d="M71.98236 421.789L526.4273 421.789L526.4273 421.789L526.4273 396.4607L526.4273 396.4607L71.98236 396.4607z" /></clipPath><clipPath id="18"><path clip-rule="evenodd" d="M71.98236 421.789L526.4273 421.789L526.4273 421.789L526.4273 396.4607L526.4273 396.4607L71.98236 396.4607z" /></clipPath><clipPath id="19"><path clip-rule="evenodd" d="M72.0126 702.3216L241.0375 702.3216L241.0375 702.3216L241.0375 691.6204L241.0375 691.6204L72.0126 691.6204z" /></clipPath><clipPath id="20"><path clip-rule="evenodd" d="M72.0126 702.3216L241.0375 702.3216L241.0375 702.3216L241.0375 691.6204L241.0375 691.6204L72.0126 691.6204z" /></clipPath><clipPath id="21"><path clip-rule="evenodd" d="M256.6271 702.3216L407.7952 702.3216L407.7952 702.3216L407.7952 691.6204L407.7952 691.6204L256.6271 691.6204z" /></clipPath><clipPath id="22"><path clip-rule="evenodd" d="M256.6271 702.3216L407.7952 702.3216L407.7952 702.3216L407.7952 691.6204L407.7952 691.6204L256.6271 691.6204z" /></clipPath></defs><g transform="matrix(1.333333 0 0 1.333333 0 0)"><g clip-path="url(#1)"><g clip-path="url(#2)"><path transform="matrix(1 0 0 -1 0 792)" d="M66.12 233.16L66.60001 233.16L66.60001 233.16L66.60001 233.64L66.60001 233.64L66.12 233.64z" stroke="none" fill="#000000" fill-rule="evenodd" /><path transform="matrix(1 0 0 -1 0 792)" d="M66.12 233.16L66.60001 233.16L66.60001 233.16L66.60001 233.64L66.60001 233.64L66.12 233.64z" stroke="none" fill="#000000" fill-rule="evenodd" /><path transform="matrix(1 0 0 -1 0 792)" d="M66.6 233.16L545.4 233.16L545.4 233.16L545.4 233.64L545.4 233.64L66.6 233.64z" stroke="none" fill="#000000" fill-rule="evenodd" /><path transform="matrix(1 0 0 -1 0 792)" d="M545.4 233.16L545.88 233.16L545.88 233.16L545.88 233.64L545.88 233.64L545.4 233.64z" stroke="none" fill="#000000" fill-rule="evenodd" /><path transform="matrix(1 0 0 -1 0 792)" d="M545.4 233.16L545.88 233.16L545.88 233.16L545.88 233.64L545.88 233.64L545.4 233.64z" stroke="none" fill="#000000" fill-rule="evenodd" /><path transform="matrix(1 0 0 -1 0 792)" d="M66.12 218.64L66.60001 218.64L66.60001 218.64L66.60001 233.16L66.60001 233.16L66.12 233.16z" stroke="none" fill="#000000" fill-rule="evenodd" /><path transform="matrix(1 0 0 -1 0 792)" d="M545.4 218.64L545.88 218.64L545.88 218.64L545.88 233.16L545.88 233.16L545.4 233.16z" stroke="none" fill="#000000" fill-rule="evenodd" /><path transform="matrix(1 0 0 -1 0 792)" d="M66.12 207.12L66.60001 207.12L66.60001 207.12L66.60001 218.64L66.60001 218.64L66.12 218.64z" stroke="none" fill="#000000" fill-rule="evenodd" /><path transform="matrix(1 0 0 -1 0 792)" d="M545.4 207.12L545.88 207.12L545.88 207.12L545.88 218.64L545.88 218.64L545.4 218.64z" stroke="none" fill="#000000" fill-rule="evenodd" /><path transform="matrix(1 0 0 -1 0 792)" d="M66.12 192.12L66.60001 192.12L66.60001 192.12L66.60001 192.6L66.60001 192.6L66.12 192.6z" stroke="none" fill="#000000" fill-rule="evenodd" /><path transform="matrix(1 0 0 -1 0 792)" d="M66.12 192.12L66.60001 192.12L66.60001 192.12L66.60001 192.6L66.60001 192.6L66.12 192.6z" stroke="none" fill="#000000" fill-rule="evenodd" /><path transform="matrix(1 0 0 -1 0 792)" d="M66.6 192.12L545.4 192.12L545.4 192.12L545.4 192.6L545.4 192.6L66.6 192.6z" stroke="none" fill="#000000" fill-rule="evenodd" /><path transform="matrix(1 0 0 -1 0 792)" d="M545.4 192.12L545.88 192.12L545.88 192.12L545.88 192.6L545.88 192.6L545.4 192.6z" stroke="none" fill="#000000" fill-rule="evenodd" /><path transform="matrix(1 0 0 -1 0 792)" d="M545.4 192.12L545.88 192.12L545.88 192.12L545.88 192.6L545.88 192.6L545.4 192.6z" stroke="none" fill="#000000" fill-rule="evenodd" /><path transform="matrix(1 0 0 -1 0 792)" d="M66.12 192.6L66.60001 192.6L66.60001 192.6L66.60001 207.12L66.60001 207.12L66.12 207.12z" stroke="none" fill="#000000" fill-rule="evenodd" /><path transform="matrix(1 0 0 -1 0 792)" d="M545.4 192.6L545.88 192.6L545.88 192.6L545.88 207.12L545.88 207.12L545.4 207.12z" stroke="none" fill="#000000" fill-rule="evenodd" /><path transform="matrix(1 0 0 -1 0 792)" d="M72 176.16L216 176.16L216 176.16L216 176.88L216 176.88L72 176.88z" stroke="none" fill="#000000" fill-rule="evenodd" /></g><g clip-path="url(#3)"><g clip-path="url(#4)"><path transform="matrix(1 0 0 -1 0 792)" d="M434.5601 705.7535L535.5764 705.7535L535.5764 722.3188L434.5601 722.3188z" stroke="none" fill="#F6DB09" fill-rule="nonzero" /><path transform="matrix(1 0 0 -1 0 792)" d="M70.61134 694.2292L533.2064 694.2292L533.2064 710.7997L70.61134 710.7997z" stroke="none" fill="#F6DB09" fill-rule="nonzero" /><path transform="matrix(1 0 0 -1 0 792)" d="M70.61187 682.7101L189.367 682.7101L189.367 699.2755L70.61187 699.2755z" stroke="none" fill="#F6DB09" fill-rule="nonzero" /></g></g><g clip-path="url(#5)"><g clip-path="url(#6)"><path transform="matrix(1 0 0 -1 0 792)" d="M169.3553 567.0345L239.8841 567.0345L239.8841 583.6L169.3553 583.6z" stroke="none" fill="#F6DB09" fill-rule="nonzero" /></g></g><g clip-path="url(#7)"><g clip-path="url(#8)"><path transform="matrix(1 0 0 -1 0 792)" d="M390.049 543.3597L421.7338 543.3597L421.7338 559.9251L390.049 559.9251z" stroke="none" fill="#F6DB09" fill-rule="nonzero" /></g></g><g clip-path="url(#9)"><g clip-path="url(#10)"><path transform="matrix(1 0 0 -1 0 792)" d="M384.5311 543.3597L392.8099 543.3597L392.8099 559.9251L384.5311 559.9251z" stroke="none" fill="#F6DB09" fill-rule="nonzero" /></g></g><g clip-path="url(#11)"><g clip-path="url(#12)"><path transform="matrix(1 0 0 -1 0 792)" d="M165.3912 519.7146L407.2319 519.7146L407.2319 536.2802L165.3912 536.2802z" stroke="none" fill="#F6DB09" fill-rule="nonzero" /></g></g><g clip-path="url(#13)"><g clip-path="url(#14)"><path transform="matrix(1 0 0 -1 0 792)" d="M240.4897 461.4984L444.0243 461.4984L444.0243 478.0639L240.4897 478.0639z" stroke="none" fill="#F6DB09" fill-rule="nonzero" /></g></g><g clip-path="url(#15)"><g clip-path="url(#16)"><path transform="matrix(1 0 0 -1 0 792)" d="M232.661 449.2575L436.604 449.2575L436.604 465.8231L232.661 465.8231z" stroke="none" fill="#F6DB09" fill-rule="nonzero" /></g></g><g clip-path="url(#17)"><g clip-path="url(#18)"><path transform="matrix(1 0 0 -1 0 792)" d="M241.1869 380.3543L527.8079 380.3543L527.8079 396.9198L241.1869 396.9198z" stroke="none" fill="#F6DB09" fill-rule="nonzero" /><path transform="matrix(1 0 0 -1 0 792)" d="M70.6019 368.8305L256.5173 368.8305L256.5173 385.3961L70.6019 385.3961z" stroke="none" fill="#F6DB09" fill-rule="nonzero" /></g></g><g clip-path="url(#19)"><g clip-path="url(#20)"><path transform="matrix(1 0 0 -1 0 792)" d="M70.94248 88.60828L242.1076 88.60828L242.1076 101.4497L70.94248 101.4497z" stroke="none" fill="#F6DB09" fill-rule="nonzero" /></g></g><g clip-path="url(#21)"><g clip-path="url(#22)"><path transform="matrix(1 0 0 -1 0 792)" d="M255.557 88.60828L408.8653 88.60828L408.8653 101.4497L255.557 101.4497z" stroke="none" fill="#F6DB09" fill-rule="nonzero" /></g></g></g></g></svg>