<svg xmlns="http://www.w3.org/2000/svg" xmlns:xlink="http://www.w3.org/1999/xlink" id="body_16" preserveAspectRatio="xMinYMin meet" viewBox="0 0 816 1056"><defs><clipPath id="1"><path clip-rule="evenodd" d="M0 792L0 0L0 0L612 0L612 0L612 792L612 792L0 792z" /></clipPath><clipPath id="2"><path clip-rule="evenodd" d="M0 792L612 792L612 792L612 0L612 0L0 0z" /></clipPath><clipPath id="3"><path clip-rule="evenodd" d="M278.1122 227.0407L422.7613 227.0407L422.7613 227.0407L422.7613 213.7839L422.7613 213.7839L278.1122 213.7839z" /></clipPath><clipPath id="4"><path clip-rule="evenodd" d="M278.1122 227.0407L422.7613 227.0407L422.7613 227.0407L422.7613 213.7839L422.7613 213.7839L278.1122 213.7839z" /></clipPath><clipPath id="5"><path clip-rule="evenodd" d="M86.99976 227.0407L162.6061 227.0407L162.6061 227.0407L162.6061 213.7839L162.6061 213.7839L86.99976 213.7839z" /></clipPath><clipPath id="6"><path clip-rule="evenodd" d="M86.99976 227.0407L162.6061 227.0407L162.6061 227.0407L162.6061 213.7839L162.6061 213.7839L86.99976 213.7839z" /></clipPath><clipPath id="7"><path clip-rule="evenodd" d="M72 261.6119L518.1881 261.6119L518.1881 261.6119L518.1881 236.8314L518.1881 236.8314L72 236.8314z" /></clipPath><clipPath id="8"><path clip-rule="evenodd" d="M72 261.6119L518.1881 261.6119L518.1881 261.6119L518.1881 236.8314L518.1881 236.8314L72 236.8314z" /></clipPath><clipPath id="9"><path clip-rule="evenodd" d="M424.6836 319.111L505.7979 319.111L505.7979 319.111L505.7979 305.8542L505.7979 305.8542L424.6836 305.8542z" /></clipPath><clipPath id="10"><path clip-rule="evenodd" d="M424.6836 319.111L505.7979 319.111L505.7979 319.111L505.7979 305.8542L505.7979 305.8542L424.6836 305.8542z" /></clipPath><clipPath id="11"><path clip-rule="evenodd" d="M72 422.5854L529.8313 422.5854L529.8313 422.5854L529.8313 386.4007L529.8313 386.4007L72 386.4007z" /></clipPath><clipPath id="12"><path clip-rule="evenodd" d="M72 422.5854L529.8313 422.5854L529.8313 422.5854L529.8313 386.4007L529.8313 386.4007L72 386.4007z" /></clipPath><clipPath id="13"><path clip-rule="evenodd" d="M72 457.1566L520.9171 457.1566L520.9171 457.1566L520.9171 432.3761L520.9171 432.3761L72 432.3761z" /></clipPath><clipPath id="14"><path clip-rule="evenodd" d="M72 457.1566L520.9171 457.1566L520.9171 457.1566L520.9171 432.3761L520.9171 432.3761L72 432.3761z" /></clipPath></defs><g transform="matrix(1.333333 0 0 1.333333 0 0)"><g clip-path="url(#1)"><g clip-path="url(#2)"><path transform="matrix(1 0 0 -1 0 792)" d="M72 148.56L216 148.56L216 148.56L216 149.28L216 149.28L72 149.28z" stroke="none" fill="#000000" fill-rule="evenodd" /></g><g clip-path="url(#3)"><g clip-path="url(#4)"><path transform="matrix(1 0 0 -1 0 792)" d="M276.7865 563.6336L424.087 563.6336L424.087 579.5418L276.7865 579.5418z" stroke="none" fill="#F6DB09" fill-rule="nonzero" /></g></g><g clip-path="url(#5)"><g clip-path="url(#6)"><path transform="matrix(1 0 0 -1 0 792)" d="M85.67408 563.6336L163.9318 563.6336L163.9318 579.5418L85.67408 579.5418z" stroke="none" fill="#F6DB09" fill-rule="nonzero" /></g></g><g clip-path="url(#7)"><g clip-path="url(#8)"><path transform="matrix(1 0 0 -1 0 792)" d="M198.8197 540.5862L519.5137 540.5862L519.5137 556.4943L198.8197 556.4943z" stroke="none" fill="#F6DB09" fill-rule="nonzero" /><path transform="matrix(1 0 0 -1 0 792)" d="M70.67432 529.0624L174.34 529.0624L174.34 544.9706L70.67432 544.9706z" stroke="none" fill="#F6DB09" fill-rule="nonzero" /></g></g><g clip-path="url(#9)"><g clip-path="url(#10)"><path transform="matrix(1 0 0 -1 0 792)" d="M423.3579 471.5633L507.1236 471.5633L507.1236 487.4715L423.3579 487.4715z" stroke="none" fill="#F6DB09" fill-rule="nonzero" /></g></g><g clip-path="url(#11)"><g clip-path="url(#12)"><path transform="matrix(1 0 0 -1 0 792)" d="M178.4017 391.0168L487.3629 391.0168L487.3629 406.925L178.4017 406.925z" stroke="none" fill="#F6DB09" fill-rule="nonzero" /><path transform="matrix(1 0 0 -1 0 792)" d="M70.67432 379.6126L531.157 379.6126L531.157 395.5208L70.67432 395.5208z" stroke="none" fill="#F6DB09" fill-rule="nonzero" /><path transform="matrix(1 0 0 -1 0 792)" d="M70.67432 368.0889L262.7549 368.0889L262.7549 383.9971L70.67432 383.9971z" stroke="none" fill="#F6DB09" fill-rule="nonzero" /></g></g><g clip-path="url(#13)"><g clip-path="url(#14)"><path transform="matrix(1 0 0 -1 0 792)" d="M248.4603 345.0415L522.2427 345.0415L522.2427 360.9496L248.4603 360.9496z" stroke="none" fill="#F6DB09" fill-rule="nonzero" /><path transform="matrix(1 0 0 -1 0 792)" d="M70.67432 333.5177L158.8857 333.5177L158.8857 349.4259L70.67432 349.4259z" stroke="none" fill="#F6DB09" fill-rule="nonzero" /></g></g></g></g></svg>