<svg xmlns="http://www.w3.org/2000/svg" xmlns:xlink="http://www.w3.org/1999/xlink" id="body_35" preserveAspectRatio="xMinYMin meet" viewBox="0 0 816 1056"><defs><clipPath id="1"><path clip-rule="evenodd" d="M0 792L0 0L0 0L612 0L612 0L612 792L612 792L0 792z" /></clipPath><clipPath id="2"><path clip-rule="evenodd" d="M0 792L612 792L612 792L612 0L612 0L0 0z" /></clipPath><clipPath id="3"><path clip-rule="evenodd" d="M72 179.592L340.752 179.592L340.752 179.592L340.752 162.96L340.752 162.96L72 162.96z" /></clipPath><clipPath id="4"><path clip-rule="evenodd" d="M72 179.592L340.752 179.592L340.752 179.592L340.752 162.96L340.752 162.96L72 162.96z" /></clipPath><clipPath id="5"><path clip-rule="evenodd" d="M72 554.1966L300.841 554.1966L300.841 554.1966L300.841 540.392L300.841 540.392L72 540.392z" /></clipPath><clipPath id="6"><path clip-rule="evenodd" d="M72 554.1966L300.841 554.1966L300.841 554.1966L300.841 540.392L300.841 540.392L72 540.392z" /></clipPath><clipPath id="7"><path clip-rule="evenodd" d="M71.99004 599.7835L514.951 599.7835L514.951 599.7835L514.951 575.003L514.951 575.003L71.99004 575.003z" /></clipPath><clipPath id="8"><path clip-rule="evenodd" d="M71.99004 599.7835L514.951 599.7835L514.951 599.7835L514.951 575.003L514.951 575.003L71.99004 575.003z" /></clipPath></defs><g transform="matrix(1.333333 0 0 1.333333 0 0)"><g clip-path="url(#1)"><g clip-path="url(#2)"><path transform="matrix(1 0 0 -1 0 792)" d="M66.12 314.76L66.60001 314.76L66.60001 314.76L66.60001 315.24L66.60001 315.24L66.12 315.24z" stroke="none" fill="#000000" fill-rule="evenodd" /><path transform="matrix(1 0 0 -1 0 792)" d="M66.12 314.76L66.60001 314.76L66.60001 314.76L66.60001 315.24L66.60001 315.24L66.12 315.24z" stroke="none" fill="#000000" fill-rule="evenodd" /><path transform="matrix(1 0 0 -1 0 792)" d="M66.6 314.76L545.4 314.76L545.4 314.76L545.4 315.24L545.4 315.24L66.6 315.24z" stroke="none" fill="#000000" fill-rule="evenodd" /><path transform="matrix(1 0 0 -1 0 792)" d="M545.4 314.76L545.88 314.76L545.88 314.76L545.88 315.24L545.88 315.24L545.4 315.24z" stroke="none" fill="#000000" fill-rule="evenodd" /><path transform="matrix(1 0 0 -1 0 792)" d="M545.4 314.76L545.88 314.76L545.88 314.76L545.88 315.24L545.88 315.24L545.4 315.24z" stroke="none" fill="#000000" fill-rule="evenodd" /><path transform="matrix(1 0 0 -1 0 792)" d="M66.12 300.24L66.60001 300.24L66.60001 300.24L66.60001 314.76L66.60001 314.76L66.12 314.76z" stroke="none" fill="#000000" fill-rule="evenodd" /><path transform="matrix(1 0 0 -1 0 792)" d="M545.4 300.24L545.88 300.24L545.88 300.24L545.88 314.76L545.88 314.76L545.4 314.76z" stroke="none" fill="#000000" fill-rule="evenodd" /><path transform="matrix(1 0 0 -1 0 792)" d="M66.12 285.24L66.60001 285.24L66.60001 285.24L66.60001 285.72L66.60001 285.72L66.12 285.72z" stroke="none" fill="#000000" fill-rule="evenodd" /><path transform="matrix(1 0 0 -1 0 792)" d="M66.12 285.24L66.60001 285.24L66.60001 285.24L66.60001 285.72L66.60001 285.72L66.12 285.72z" stroke="none" fill="#000000" fill-rule="evenodd" /><path transform="matrix(1 0 0 -1 0 792)" d="M66.6 285.24L545.4 285.24L545.4 285.24L545.4 285.72L545.4 285.72L66.6 285.72z" stroke="none" fill="#000000" fill-rule="evenodd" /><path transform="matrix(1 0 0 -1 0 792)" d="M545.4 285.24L545.88 285.24L545.88 285.24L545.88 285.72L545.88 285.72L545.4 285.72z" stroke="none" fill="#000000" fill-rule="evenodd" /><path transform="matrix(1 0 0 -1 0 792)" d="M545.4 285.24L545.88 285.24L545.88 285.24L545.88 285.72L545.88 285.72L545.4 285.72z" stroke="none" fill="#000000" fill-rule="evenodd" /><path transform="matrix(1 0 0 -1 0 792)" d="M66.12 285.72L66.60001 285.72L66.60001 285.72L66.60001 300.24L66.60001 300.24L66.12 300.24z" stroke="none" fill="#000000" fill-rule="evenodd" /><path transform="matrix(1 0 0 -1 0 792)" d="M545.4 285.72L545.88 285.72L545.88 285.72L545.88 300.24L545.88 300.24L545.4 300.24z" stroke="none" fill="#000000" fill-rule="evenodd" /></g><g clip-path="url(#3)"><g clip-path="url(#4)"><path transform="matrix(1 0 0 -1 0 792)" d="M70.3368 610.7448L342.4152 610.7448L342.4152 630.7032L70.3368 630.7032z" stroke="none" fill="#F6DB09" fill-rule="nonzero" /></g></g><g clip-path="url(#5)"><g clip-path="url(#6)"><path transform="matrix(1 0 0 -1 0 792)" d="M70.61954 236.4229L302.2214 236.4229L302.2214 252.9885L70.61954 252.9885z" stroke="none" fill="#F6DB09" fill-rule="nonzero" /></g></g><g clip-path="url(#7)"><g clip-path="url(#8)"><path transform="matrix(1 0 0 -1 0 792)" d="M70.66436 202.4145L516.2766 202.4145L516.2766 218.3227L70.66436 218.3227z" stroke="none" fill="#F6DB09" fill-rule="nonzero" /><path transform="matrix(1 0 0 -1 0 792)" d="M70.66438 190.8908L257.1076 190.8908L257.1076 206.7989L70.66438 206.7989z" stroke="none" fill="#F6DB09" fill-rule="nonzero" /></g></g></g></g></svg>