<svg xmlns="http://www.w3.org/2000/svg" xmlns:xlink="http://www.w3.org/1999/xlink" id="body_31" preserveAspectRatio="xMinYMin meet" viewBox="0 0 816 1056"><defs><clipPath id="1"><path clip-rule="evenodd" d="M0 792L0 0L0 0L612 0L612 0L612 792L612 792L0 792z" /></clipPath><clipPath id="2"><path clip-rule="evenodd" d="M0 792L612 792L612 792L612 0L612 0L0 0z" /></clipPath><clipPath id="3"><path clip-rule="evenodd" d="M72 408.7854L193.1734 408.7854L193.1734 408.7854L193.1734 395.5286L193.1734 395.5286L72 395.5286z" /></clipPath><clipPath id="4"><path clip-rule="evenodd" d="M72 408.7854L193.1734 408.7854L193.1734 408.7854L193.1734 395.5286L193.1734 395.5286L72 395.5286z" /></clipPath><clipPath id="5"><path clip-rule="evenodd" d="M161.9786 500.8557L273.0725 500.8557L273.0725 500.8557L273.0725 487.5989L273.0725 487.5989L161.9786 487.5989z" /></clipPath><clipPath id="6"><path clip-rule="evenodd" d="M161.9786 500.8557L273.0725 500.8557L273.0725 500.8557L273.0725 487.5989L273.0725 487.5989L161.9786 487.5989z" /></clipPath><clipPath id="7"><path clip-rule="evenodd" d="M72 719.8362L519.6024 719.8362L519.6024 719.8362L519.6024 682.9842L519.6024 682.9842L72 682.9842z" /></clipPath><clipPath id="8"><path clip-rule="evenodd" d="M72 719.8362L519.6024 719.8362L519.6024 719.8362L519.6024 682.9842L519.6024 682.9842L72 682.9842z" /></clipPath></defs><g transform="matrix(1.333333 0 0 1.333333 0 0)"><g clip-path="url(#1)"><g clip-path="url(#2)"></g><g clip-path="url(#3)"><g clip-path="url(#4)"><path transform="matrix(1 0 0 -1 0 792)" d="M70.67432 381.8889L194.4991 381.8889L194.4991 397.7971L70.67432 397.7971z" stroke="none" fill="#F6DB09" fill-rule="nonzero" /></g></g><g clip-path="url(#5)"><g clip-path="url(#6)"><path transform="matrix(1 0 0 -1 0 792)" d="M160.6529 289.8186L274.3982 289.8186L274.3982 305.7268L160.6529 305.7268z" stroke="none" fill="#F6DB09" fill-rule="nonzero" /></g></g><g clip-path="url(#7)"><g clip-path="url(#8)"><path transform="matrix(1 0 0 -1 0 792)" d="M275.0286 93.83078L520.9828 93.83078L520.9828 110.3963L275.0286 110.3963z" stroke="none" fill="#F6DB09" fill-rule="nonzero" /><path transform="matrix(1 0 0 -1 0 792)" d="M70.61954 82.30706L514.22 82.30706L514.22 98.87253L70.61954 98.87253z" stroke="none" fill="#F6DB09" fill-rule="nonzero" /><path transform="matrix(1 0 0 -1 0 792)" d="M70.61954 70.78335L161.0584 70.78335L161.0584 87.34882L70.61954 87.34882z" stroke="none" fill="#F6DB09" fill-rule="nonzero" /></g></g></g></g></svg>