<svg xmlns="http://www.w3.org/2000/svg" xmlns:xlink="http://www.w3.org/1999/xlink" id="body_36" preserveAspectRatio="xMinYMin meet" viewBox="0 0 816 1056"><defs><clipPath id="1"><path clip-rule="evenodd" d="M0 792L0 0L0 0L612 0L612 0L612 792L612 792L0 792z" /></clipPath><clipPath id="2"><path clip-rule="evenodd" d="M0 792L612 792L612 792L612 0L612 0L0 0z" /></clipPath><clipPath id="3"><path clip-rule="evenodd" d="M136.5 391.92L476.957 391.92L476.957 391.92L476.957 95.04004L476.957 95.04004L136.5 95.04004z" /></clipPath><clipPath id="4"><path clip-rule="evenodd" d="M89.99004 703.9279L530.8893 703.9279L530.8893 703.9279L530.8893 631.1402L530.8893 631.1402L89.99004 631.1402z" /></clipPath><clipPath id="5"><path clip-rule="evenodd" d="M89.99004 703.9279L530.8893 703.9279L530.8893 703.9279L530.8893 631.1402L530.8893 631.1402L89.99004 631.1402z" /></clipPath></defs><g transform="matrix(1.333333 0 0 1.333333 0 0)"><g clip-path="url(#1)"><g clip-path="url(#2)"><path transform="matrix(1 0 0 -1 0 792)" d="M66.12 388.08L66.60001 388.08L66.60001 388.08L66.60001 388.56L66.60001 388.56L66.12 388.56z" stroke="none" fill="#000000" fill-rule="evenodd" /><path transform="matrix(1 0 0 -1 0 792)" d="M66.12 388.08L66.60001 388.08L66.60001 388.08L66.60001 388.56L66.60001 388.56L66.12 388.56z" stroke="none" fill="#000000" fill-rule="evenodd" /><path transform="matrix(1 0 0 -1 0 792)" d="M66.6 388.08L545.4 388.08L545.4 388.08L545.4 388.56L545.4 388.56L66.6 388.56z" stroke="none" fill="#000000" fill-rule="evenodd" /><path transform="matrix(1 0 0 -1 0 792)" d="M545.4 388.08L545.88 388.08L545.88 388.08L545.88 388.56L545.88 388.56L545.4 388.56z" stroke="none" fill="#000000" fill-rule="evenodd" /><path transform="matrix(1 0 0 -1 0 792)" d="M545.4 388.08L545.88 388.08L545.88 388.08L545.88 388.56L545.88 388.56L545.4 388.56z" stroke="none" fill="#000000" fill-rule="evenodd" /><path transform="matrix(1 0 0 -1 0 792)" d="M66.12 373.56L66.60001 373.56L66.60001 373.56L66.60001 388.08L66.60001 388.08L66.12 388.08z" stroke="none" fill="#000000" fill-rule="evenodd" /><path transform="matrix(1 0 0 -1 0 792)" d="M545.4 373.56L545.88 373.56L545.88 373.56L545.88 388.08L545.88 388.08L545.4 388.08z" stroke="none" fill="#000000" fill-rule="evenodd" /><path transform="matrix(1 0 0 -1 0 792)" d="M66.12 362.04L66.60001 362.04L66.60001 362.04L66.60001 373.56L66.60001 373.56L66.12 373.56z" stroke="none" fill="#000000" fill-rule="evenodd" /><path transform="matrix(1 0 0 -1 0 792)" d="M545.4 362.04L545.88 362.04L545.88 362.04L545.88 373.56L545.88 373.56L545.4 373.56z" stroke="none" fill="#000000" fill-rule="evenodd" /><path transform="matrix(1 0 0 -1 0 792)" d="M66.12 347.04L66.60001 347.04L66.60001 347.04L66.60001 347.52L66.60001 347.52L66.12 347.52z" stroke="none" fill="#000000" fill-rule="evenodd" /><path transform="matrix(1 0 0 -1 0 792)" d="M66.12 347.04L66.60001 347.04L66.60001 347.04L66.60001 347.52L66.60001 347.52L66.12 347.52z" stroke="none" fill="#000000" fill-rule="evenodd" /><path transform="matrix(1 0 0 -1 0 792)" d="M66.6 347.04L545.4 347.04L545.4 347.04L545.4 347.52L545.4 347.52L66.6 347.52z" stroke="none" fill="#000000" fill-rule="evenodd" /><path transform="matrix(1 0 0 -1 0 792)" d="M545.4 347.04L545.88 347.04L545.88 347.04L545.88 347.52L545.88 347.52L545.4 347.52z" stroke="none" fill="#000000" fill-rule="evenodd" /><path transform="matrix(1 0 0 -1 0 792)" d="M545.4 347.04L545.88 347.04L545.88 347.04L545.88 347.52L545.88 347.52L545.4 347.52z" stroke="none" fill="#000000" fill-rule="evenodd" /><path transform="matrix(1 0 0 -1 0 792)" d="M66.12 347.52L66.60001 347.52L66.60001 347.52L66.60001 362.04L66.60001 362.04L66.12 362.04z" stroke="none" fill="#000000" fill-rule="evenodd" /><path transform="matrix(1 0 0 -1 0 792)" d="M545.4 347.52L545.88 347.52L545.88 347.52L545.88 362.04L545.88 362.04L545.4 362.04z" stroke="none" fill="#000000" fill-rule="evenodd" /></g><g clip-path="url(#3)"><g transform="matrix(0.7499064 0 0 0.7499063 136.5 94.99805)"><g transform="matrix(1 0 0 1 0 0)"><image x="0" y="0" xlink:href="img_44.png" width="454" height="396" /></g></g></g><g clip-path="url(#4)"><g clip-path="url(#5)"><path transform="matrix(1 0 0 -1 0 792)" d="M88.67432 146.2773L532.215 146.2773L532.215 162.1855L88.67432 162.1855z" stroke="none" fill="#F7DC0A" fill-rule="nonzero" /><path transform="matrix(1 0 0 -1 0 792)" d="M106.672 134.7536L158.1573 134.7536L158.1573 150.6617L106.672 150.6617z" stroke="none" fill="#F7DC0A" fill-rule="nonzero" /><path transform="matrix(1 0 0 -1 0 792)" d="M88.67432 122.5127L306.5414 122.5127L306.5414 138.4209L88.67432 138.4209z" stroke="none" fill="#F7DC0A" fill-rule="nonzero" /><path transform="matrix(1 0 0 -1 0 792)" d="M88.67432 110.3914L403.7211 110.3914L403.7211 126.2996L88.67432 126.2996z" stroke="none" fill="#F7DC0A" fill-rule="nonzero" /><path transform="matrix(1 0 0 -1 0 792)" d="M88.66436 98.27013L526.4681 98.27013L526.4681 114.1783L88.66436 114.1783z" stroke="none" fill="#F7DC0A" fill-rule="nonzero" /><path transform="matrix(1 0 0 -1 0 792)" d="M106.6621 86.74641L154.9103 86.74641L154.9103 102.6545L106.6621 102.6545z" stroke="none" fill="#F7DC0A" fill-rule="nonzero" /></g></g></g></g></svg>