<svg xmlns="http://www.w3.org/2000/svg" xmlns:xlink="http://www.w3.org/1999/xlink" id="body_17" preserveAspectRatio="xMinYMin meet" viewBox="0 0 816 1056"><defs><clipPath id="1"><path clip-rule="evenodd" d="M0 792L0 0L0 0L612 0L612 0L612 792L612 792L0 792z" /></clipPath><clipPath id="2"><path clip-rule="evenodd" d="M0 792L612 792L612 792L612 0L612 0L0 0z" /></clipPath><clipPath id="3"><path clip-rule="evenodd" d="M73.5 295.92L486.698 295.92L486.698 295.92L486.698 164.04L486.698 164.04L73.5 164.04z" /></clipPath><clipPath id="4"><path clip-rule="evenodd" d="M71.9922 343.3879L529.6244 343.3879L529.6244 343.3879L529.6244 306.5359L529.6244 306.5359L71.9922 306.5359z" /></clipPath><clipPath id="5"><path clip-rule="evenodd" d="M71.9922 343.3879L529.6244 343.3879L529.6244 343.3879L529.6244 306.5359L529.6244 306.5359L71.9922 306.5359z" /></clipPath><clipPath id="6"><path clip-rule="evenodd" d="M214.7688 342.88L340.972 342.88L340.972 342.88L340.972 329.6232L340.972 329.6232L214.7688 329.6232z" /></clipPath><clipPath id="7"><path clip-rule="evenodd" d="M214.7688 342.88L340.972 342.88L340.972 342.88L340.972 329.6232L340.972 329.6232L214.7688 329.6232z" /></clipPath><clipPath id="8"><path clip-rule="evenodd" d="M71.9922 366.0469L523.7181 366.0469L523.7181 366.0469L523.7181 341.2664L523.7181 341.2664L71.9922 341.2664z" /></clipPath><clipPath id="9"><path clip-rule="evenodd" d="M71.9922 366.0469L523.7181 366.0469L523.7181 366.0469L523.7181 341.2664L523.7181 341.2664L71.9922 341.2664z" /></clipPath><clipPath id="10"><path clip-rule="evenodd" d="M303.0343 366.0469L442.544 366.0469L442.544 366.0469L442.544 352.7902L442.544 352.7902L303.0343 352.7902z" /></clipPath><clipPath id="11"><path clip-rule="evenodd" d="M303.0343 366.0469L442.544 366.0469L442.544 366.0469L442.544 352.7902L442.544 352.7902L303.0343 352.7902z" /></clipPath><clipPath id="12"><path clip-rule="evenodd" d="M265.7839 423.546L370.2046 423.546L370.2046 423.546L370.2046 410.2892L370.2046 410.2892L265.7839 410.2892z" /></clipPath><clipPath id="13"><path clip-rule="evenodd" d="M265.7839 423.546L370.2046 423.546L370.2046 423.546L370.2046 410.2892L370.2046 410.2892L265.7839 410.2892z" /></clipPath><clipPath id="14"><path clip-rule="evenodd" d="M72 526.9324L537.5802 526.9324L537.5802 526.9324L537.5802 502.1519L537.5802 502.1519L72 502.1519z" /></clipPath><clipPath id="15"><path clip-rule="evenodd" d="M72 526.9324L537.5802 526.9324L537.5802 526.9324L537.5802 502.1519L537.5802 502.1519L72 502.1519z" /></clipPath><clipPath id="16"><path clip-rule="evenodd" d="M413.1798 526.9324L485.5691 526.9324L485.5691 526.9324L485.5691 513.6756L485.5691 513.6756L413.1798 513.6756z" /></clipPath><clipPath id="17"><path clip-rule="evenodd" d="M413.1798 526.9324L485.5691 526.9324L485.5691 526.9324L485.5691 513.6756L485.5691 513.6756L413.1798 513.6756z" /></clipPath><clipPath id="18"><path clip-rule="evenodd" d="M71.98932 647.1242L530.9205 647.1242L530.9205 647.1242L530.9205 627.185L530.9205 627.185L71.98932 627.185z" /></clipPath><clipPath id="19"><path clip-rule="evenodd" d="M71.98932 647.1242L530.9205 647.1242L530.9205 647.1242L530.9205 627.185L530.9205 627.185L71.98932 627.185z" /></clipPath></defs><g transform="matrix(1.333333 0 0 1.333333 0 0)"><g clip-path="url(#1)"><g clip-path="url(#2)"><path transform="matrix(1 0 0 -1 0 792)" d="M72 222.12L216 222.12L216 222.12L216 222.84L216 222.84L72 222.84z" stroke="none" fill="#000000" fill-rule="evenodd" /></g><g clip-path="url(#3)"><g transform="matrix(0.7499062 0 0 0.7499063 73.5 163.9922)"><g transform="matrix(1 0 0 1 0 0)"><image x="0" y="0" xlink:href="img_17.png" width="551" height="176" /></g></g></g><g clip-path="url(#4)"><g clip-path="url(#5)"><path transform="matrix(1 0 0 -1 0 792)" d="M70.61174 470.2791L524.9093 470.2791L524.9093 486.8446L70.61174 486.8446z" stroke="none" fill="#F6DB09" fill-rule="nonzero" /><path transform="matrix(1 0 0 -1 0 792)" d="M70.61174 458.7553L531.0048 458.7553L531.0048 475.3209L70.61174 475.3209z" stroke="none" fill="#F6DB09" fill-rule="nonzero" /><path transform="matrix(1 0 0 -1 0 792)" d="M70.61176 447.2316L145.4931 447.2316L145.4931 463.7971L70.61176 463.7971z" stroke="none" fill="#F6DB09" fill-rule="nonzero" /></g></g><g clip-path="url(#6)"><g clip-path="url(#7)"><path transform="matrix(1 0 0 -1 0 792)" d="M213.4431 447.7943L342.2977 447.7943L342.2977 463.7025L213.4431 463.7025z" stroke="none" fill="#F6DB09" fill-rule="nonzero" /></g></g><g clip-path="url(#8)"><g clip-path="url(#9)"><path transform="matrix(1 0 0 -1 0 792)" d="M328.5908 436.1511L525.0438 436.1511L525.0438 452.0593L328.5908 452.0593z" stroke="none" fill="#F6DB09" fill-rule="nonzero" /><path transform="matrix(1 0 0 -1 0 792)" d="M70.66653 424.6274L198.9234 424.6274L198.9234 440.5355L70.66653 440.5355z" stroke="none" fill="#F6DB09" fill-rule="nonzero" /></g></g><g clip-path="url(#10)"><g clip-path="url(#11)"><path transform="matrix(1 0 0 -1 0 792)" d="M301.7086 424.6274L443.8696 424.6274L443.8696 440.5355L301.7086 440.5355z" stroke="none" fill="#F6DB09" fill-rule="nonzero" /></g></g><g clip-path="url(#12)"><g clip-path="url(#13)"><path transform="matrix(1 0 0 -1 0 792)" d="M264.4582 367.1283L371.5303 367.1283L371.5303 383.0365L264.4582 383.0365z" stroke="none" fill="#F6DB09" fill-rule="nonzero" /></g></g><g clip-path="url(#14)"><g clip-path="url(#15)"><path transform="matrix(1 0 0 -1 0 792)" d="M326.7858 275.2657L538.9058 275.2657L538.9058 291.1738L326.7858 291.1738z" stroke="none" fill="#F6DB09" fill-rule="nonzero" /><path transform="matrix(1 0 0 -1 0 792)" d="M70.67432 263.7419L414.5055 263.7419L414.5055 279.6501L70.67432 279.6501z" stroke="none" fill="#F6DB09" fill-rule="nonzero" /></g></g><g clip-path="url(#16)"><g clip-path="url(#17)"><path transform="matrix(1 0 0 -1 0 792)" d="M411.8541 263.7419L486.8948 263.7419L486.8948 279.6501L411.8541 279.6501z" stroke="none" fill="#F6DB09" fill-rule="nonzero" /></g></g><g clip-path="url(#18)"><g clip-path="url(#19)"><path transform="matrix(1 0 0 -1 0 792)" d="M249.9297 153.0436L531.9906 153.0436L531.9906 165.8851L249.9297 165.8851z" stroke="none" fill="#F6DB09" fill-rule="nonzero" /><path transform="matrix(1 0 0 -1 0 792)" d="M70.9192 143.8057L326.1184 143.8057L326.1184 156.6471L70.9192 156.6471z" stroke="none" fill="#F6DB09" fill-rule="nonzero" /></g></g></g></g></svg>