<svg xmlns="http://www.w3.org/2000/svg" xmlns:xlink="http://www.w3.org/1999/xlink" id="body_49" preserveAspectRatio="xMinYMin meet" viewBox="0 0 816 1056"><defs><clipPath id="1"><path clip-rule="evenodd" d="M0 792L0 0L0 0L612 0L612 0L612 792L612 792L0 792z" /></clipPath><clipPath id="2"><path clip-rule="evenodd" d="M0 792L612 792L612 792L612 0L612 0L0 0z" /></clipPath></defs><g transform="matrix(1.333333 0 0 1.333333 0 0)"><g clip-path="url(#1)"><g clip-path="url(#2)"><path transform="matrix(1 0 0 -1 0 792)" d="M103.08 277.08L103.56 277.08L103.56 277.08L103.56 277.56L103.56 277.56L103.08 277.56z" stroke="none" fill="#000000" fill-rule="evenodd" /><path transform="matrix(1 0 0 -1 0 792)" d="M103.08 277.08L103.56 277.08L103.56 277.08L103.56 277.56L103.56 277.56L103.08 277.56z" stroke="none" fill="#000000" fill-rule="evenodd" /><path transform="matrix(1 0 0 -1 0 792)" d="M103.56 277.08L541.44 277.08L541.44 277.08L541.44 277.56L541.44 277.56L103.56 277.56z" stroke="none" fill="#000000" fill-rule="evenodd" /><path transform="matrix(1 0 0 -1 0 792)" d="M541.44 277.08L541.92 277.08L541.92 277.08L541.92 277.56L541.92 277.56L541.44 277.56z" stroke="none" fill="#000000" fill-rule="evenodd" /><path transform="matrix(1 0 0 -1 0 792)" d="M541.44 277.08L541.92 277.08L541.92 277.08L541.92 277.56L541.92 277.56L541.44 277.56z" stroke="none" fill="#000000" fill-rule="evenodd" /><path transform="matrix(1 0 0 -1 0 792)" d="M103.08 250.8L103.56 250.8L103.56 250.8L103.56 277.08L103.56 277.08L103.08 277.08z" stroke="none" fill="#000000" fill-rule="evenodd" /><path transform="matrix(1 0 0 -1 0 792)" d="M541.44 250.8L541.92 250.8L541.92 250.8L541.92 277.08L541.92 277.08L541.44 277.08z" stroke="none" fill="#000000" fill-rule="evenodd" /><path transform="matrix(1 0 0 -1 0 792)" d="M103.08 234.12L103.56 234.12L103.56 234.12L103.56 234.6L103.56 234.6L103.08 234.6z" stroke="none" fill="#000000" fill-rule="evenodd" /><path transform="matrix(1 0 0 -1 0 792)" d="M103.08 234.12L103.56 234.12L103.56 234.12L103.56 234.6L103.56 234.6L103.08 234.6z" stroke="none" fill="#000000" fill-rule="evenodd" /><path transform="matrix(1 0 0 -1 0 792)" d="M103.56 234.12L541.44 234.12L541.44 234.12L541.44 234.6L541.44 234.6L103.56 234.6z" stroke="none" fill="#000000" fill-rule="evenodd" /><path transform="matrix(1 0 0 -1 0 792)" d="M541.44 234.12L541.92 234.12L541.92 234.12L541.92 234.6L541.92 234.6L541.44 234.6z" stroke="none" fill="#000000" fill-rule="evenodd" /><path transform="matrix(1 0 0 -1 0 792)" d="M541.44 234.12L541.92 234.12L541.92 234.12L541.92 234.6L541.92 234.6L541.44 234.6z" stroke="none" fill="#000000" fill-rule="evenodd" /><path transform="matrix(1 0 0 -1 0 792)" d="M103.08 234.6L103.56 234.6L103.56 234.6L103.56 250.8L103.56 250.8L103.08 250.8z" stroke="none" fill="#000000" fill-rule="evenodd" /><path transform="matrix(1 0 0 -1 0 792)" d="M541.44 234.6L541.92 234.6L541.92 234.6L541.92 250.8L541.92 250.8L541.44 250.8z" stroke="none" fill="#000000" fill-rule="evenodd" /><path transform="matrix(1 0 0 -1 0 792)" d="M72 176.16L216 176.16L216 176.16L216 176.88L216 176.88L72 176.88z" stroke="none" fill="#000000" fill-rule="evenodd" /><path transform="matrix(1 0 0 -1 0 792)" d="M67.56 713.04L68.04 713.04L68.04 713.04L68.04 713.52L68.04 713.52L67.56 713.52z" stroke="none" fill="#000000" fill-rule="evenodd" /><path transform="matrix(1 0 0 -1 0 792)" d="M67.56 713.04L68.04 713.04L68.04 713.04L68.04 713.52L68.04 713.52L67.56 713.52z" stroke="none" fill="#000000" fill-rule="evenodd" /><path transform="matrix(1 0 0 -1 0 792)" d="M68.04 713.04L543.96 713.04L543.96 713.04L543.96 713.52L543.96 713.52L68.04 713.52z" stroke="none" fill="#000000" fill-rule="evenodd" /><path transform="matrix(1 0 0 -1 0 792)" d="M543.96 713.04L544.44 713.04L544.44 713.04L544.44 713.52L544.44 713.52L543.96 713.52z" stroke="none" fill="#000000" fill-rule="evenodd" /><path transform="matrix(1 0 0 -1 0 792)" d="M543.96 713.04L544.44 713.04L544.44 713.04L544.44 713.52L544.44 713.52L543.96 713.52z" stroke="none" fill="#000000" fill-rule="evenodd" /><path transform="matrix(1 0 0 -1 0 792)" d="M67.56 69L68.04 69L68.04 69L68.04 713.04L68.04 713.04L67.56 713.04z" stroke="none" fill="#000000" fill-rule="evenodd" /><path transform="matrix(1 0 0 -1 0 792)" d="M543.96 69L544.44 69L544.44 69L544.44 713.04L544.44 713.04L543.96 713.04z" stroke="none" fill="#000000" fill-rule="evenodd" /><path transform="matrix(1 0 0 -1 0 792)" d="M67.56 68.52L68.04 68.52L68.04 68.52L68.04 69L68.04 69L67.56 69z" stroke="none" fill="#000000" fill-rule="evenodd" /><path transform="matrix(1 0 0 -1 0 792)" d="M67.56 68.52L68.04 68.52L68.04 68.52L68.04 69L68.04 69L67.56 69z" stroke="none" fill="#000000" fill-rule="evenodd" /><path transform="matrix(1 0 0 -1 0 792)" d="M68.04 68.52L543.96 68.52L543.96 68.52L543.96 69L543.96 69L68.04 69z" stroke="none" fill="#000000" fill-rule="evenodd" /><path transform="matrix(1 0 0 -1 0 792)" d="M543.96 68.52L544.44 68.52L544.44 68.52L544.44 69L544.44 69L543.96 69z" stroke="none" fill="#000000" fill-rule="evenodd" /><path transform="matrix(1 0 0 -1 0 792)" d="M543.96 68.52L544.44 68.52L544.44 68.52L544.44 69L544.44 69L543.96 69z" stroke="none" fill="#000000" fill-rule="evenodd" /></g></g></g></svg>