<svg xmlns="http://www.w3.org/2000/svg" xmlns:xlink="http://www.w3.org/1999/xlink" id="body_19" preserveAspectRatio="xMinYMin meet" viewBox="0 0 816 1056"><defs><clipPath id="1"><path clip-rule="evenodd" d="M0 792L0 0L0 0L612 0L612 0L612 792L612 792L0 792z" /></clipPath><clipPath id="2"><path clip-rule="evenodd" d="M0 792L612 792L612 792L612 0L612 0L0 0z" /></clipPath><clipPath id="3"><path clip-rule="evenodd" d="M72 273.1524L522.8196 273.1524L522.8196 273.1524L522.8196 236.3004L522.8196 236.3004L72 236.3004z" /></clipPath><clipPath id="4"><path clip-rule="evenodd" d="M72 273.1524L522.8196 273.1524L522.8196 273.1524L522.8196 236.3004L522.8196 236.3004L72 236.3004z" /></clipPath></defs><g transform="matrix(1.333333 0 0 1.333333 0 0)"><g clip-path="url(#1)"><g clip-path="url(#2)"><path transform="matrix(1 0 0 -1 0 792)" d="M72 157.8L216 157.8L216 157.8L216 158.52L216 158.52L72 158.52z" stroke="none" fill="#000000" fill-rule="evenodd" /><g transform="matrix(0.7499062 0 0 0.7499063 73.5 83.49902)"><g transform="matrix(1 0 0 1 0 0)"><image x="0" y="0" xlink:href="img_21.png" width="577" height="189" /></g></g></g><g clip-path="url(#3)"><g clip-path="url(#4)"><path transform="matrix(1 0 0 -1 0 792)" d="M70.61954 540.5145L493.065 540.5145L493.065 557.08L70.61954 557.08z" stroke="none" fill="#F6DB09" fill-rule="nonzero" /><path transform="matrix(1 0 0 -1 0 792)" d="M70.61954 528.9908L524.2 528.9908L524.2 545.5563L70.61954 545.5563z" stroke="none" fill="#F6DB09" fill-rule="nonzero" /><path transform="matrix(1 0 0 -1 0 792)" d="M70.61954 517.4672L201.6624 517.4672L201.6624 534.0327L70.61954 534.0327z" stroke="none" fill="#F6DB09" fill-rule="nonzero" /></g></g></g></g></svg>