<svg xmlns="http://www.w3.org/2000/svg" xmlns:xlink="http://www.w3.org/1999/xlink" id="body_25" preserveAspectRatio="xMinYMin meet" viewBox="0 0 816 1056"><defs><clipPath id="1"><path clip-rule="evenodd" d="M0 792L0 0L0 0L612 0L612 0L612 792L612 792L0 792z" /></clipPath><clipPath id="2"><path clip-rule="evenodd" d="M0 792L612 792L612 792L612 0L612 0L0 0z" /></clipPath><clipPath id="3"><path clip-rule="evenodd" d="M271.4015 303.0504L339.6773 303.0504L339.6773 303.0504L339.6773 289.7936L339.6773 289.7936L271.4015 289.7936z" /></clipPath><clipPath id="4"><path clip-rule="evenodd" d="M271.4015 303.0504L339.6773 303.0504L339.6773 303.0504L339.6773 289.7936L339.6773 289.7936L271.4015 289.7936z" /></clipPath><clipPath id="5"><path clip-rule="evenodd" d="M185.7355 349.4142L400.3138 349.4142L400.3138 349.4142L400.3138 335.6096L400.3138 335.6096L185.7355 335.6096z" /></clipPath><clipPath id="6"><path clip-rule="evenodd" d="M185.7355 349.4142L400.3138 349.4142L400.3138 349.4142L400.3138 335.6096L400.3138 335.6096L185.7355 335.6096z" /></clipPath><clipPath id="7"><path clip-rule="evenodd" d="M108.0176 360.9379L518.5589 360.9379L518.5589 360.9379L518.5589 335.6096L518.5589 335.6096L108.0176 335.6096z" /></clipPath><clipPath id="8"><path clip-rule="evenodd" d="M108.0176 360.9379L518.5589 360.9379L518.5589 360.9379L518.5589 335.6096L518.5589 335.6096L108.0176 335.6096z" /></clipPath><clipPath id="9"><path clip-rule="evenodd" d="M339.9561 418.437L529.9232 418.437L529.9232 418.437L529.9232 404.6324L529.9232 404.6324L339.9561 404.6324z" /></clipPath><clipPath id="10"><path clip-rule="evenodd" d="M339.9561 418.437L529.9232 418.437L529.9232 418.437L529.9232 404.6324L529.9232 404.6324L339.9561 404.6324z" /></clipPath><clipPath id="11"><path clip-rule="evenodd" d="M230.2567 429.5723L444.3768 429.5723L444.3768 429.5723L444.3768 416.3155L444.3768 416.3155L230.2567 416.3155z" /></clipPath><clipPath id="12"><path clip-rule="evenodd" d="M230.2567 429.5723L444.3768 429.5723L444.3768 429.5723L444.3768 416.3155L444.3768 416.3155L230.2567 416.3155z" /></clipPath><clipPath id="13"><path clip-rule="evenodd" d="M124.6807 452.5002L259.32 452.5002L259.32 452.5002L259.32 439.2434L259.32 439.2434L124.6807 439.2434z" /></clipPath><clipPath id="14"><path clip-rule="evenodd" d="M124.6807 452.5002L259.32 452.5002L259.32 452.5002L259.32 439.2434L259.32 439.2434L124.6807 439.2434z" /></clipPath><clipPath id="15"><path clip-rule="evenodd" d="M72.00228 498.5951L519.2859 498.5951L519.2859 498.5951L519.2859 462.1714L519.2859 462.1714L72.00228 462.1714z" /></clipPath><clipPath id="16"><path clip-rule="evenodd" d="M72.00228 498.5951L519.2859 498.5951L519.2859 498.5951L519.2859 462.1714L519.2859 462.1714L72.00228 462.1714z" /></clipPath><clipPath id="17"><path clip-rule="evenodd" d="M264.6486 556.4826L450.2034 556.4826L450.2034 556.4826L450.2034 542.678L450.2034 542.678L264.6486 542.678z" /></clipPath><clipPath id="18"><path clip-rule="evenodd" d="M264.6486 556.4826L450.2034 556.4826L450.2034 556.4826L450.2034 542.678L450.2034 542.678L264.6486 542.678z" /></clipPath><clipPath id="19"><path clip-rule="evenodd" d="M72.00228 568.0063L528.9372 568.0063L528.9372 568.0063L528.9372 542.678L528.9372 542.678L72.00228 542.678z" /></clipPath><clipPath id="20"><path clip-rule="evenodd" d="M72.00228 568.0063L528.9372 568.0063L528.9372 568.0063L528.9372 542.678L528.9372 542.678L72.00228 542.678z" /></clipPath><clipPath id="21"><path clip-rule="evenodd" d="M338.4821 568.0063L413.0426 568.0063L413.0426 568.0063L413.0426 554.2018L413.0426 554.2018L338.4821 554.2018z" /></clipPath><clipPath id="22"><path clip-rule="evenodd" d="M338.4821 568.0063L413.0426 568.0063L413.0426 568.0063L413.0426 554.2018L413.0426 554.2018L338.4821 554.2018z" /></clipPath><clipPath id="23"><path clip-rule="evenodd" d="M356.4698 602.0695L388.6107 602.0695L388.6107 602.0695L388.6107 588.8128L388.6107 588.8128L356.4698 588.8128z" /></clipPath><clipPath id="24"><path clip-rule="evenodd" d="M356.4698 602.0695L388.6107 602.0695L388.6107 602.0695L388.6107 588.8128L388.6107 588.8128L356.4698 588.8128z" /></clipPath><clipPath id="25"><path clip-rule="evenodd" d="M72.00228 613.5932L135.2184 613.5932L135.2184 613.5932L135.2184 600.3365L135.2184 600.3365L72.00228 600.3365z" /></clipPath><clipPath id="26"><path clip-rule="evenodd" d="M72.00228 613.5932L135.2184 613.5932L135.2184 613.5932L135.2184 600.3365L135.2184 600.3365L72.00228 600.3365z" /></clipPath><clipPath id="27"><path clip-rule="evenodd" d="M160.4072 613.5932L246.4218 613.5932L246.4218 613.5932L246.4218 600.3365L246.4218 600.3365L160.4072 600.3365z" /></clipPath><clipPath id="28"><path clip-rule="evenodd" d="M160.4072 613.5932L246.4218 613.5932L246.4218 613.5932L246.4218 600.3365L246.4218 600.3365L160.4072 600.3365z" /></clipPath><clipPath id="29"><path clip-rule="evenodd" d="M251.9396 613.5932L369.1091 613.5932L369.1091 613.5932L369.1091 600.3365L369.1091 600.3365L251.9396 600.3365z" /></clipPath><clipPath id="30"><path clip-rule="evenodd" d="M251.9396 613.5932L369.1091 613.5932L369.1091 613.5932L369.1091 600.3365L369.1091 600.3365L251.9396 600.3365z" /></clipPath><clipPath id="31"><path clip-rule="evenodd" d="M223.7429 636.6407L339.2191 636.6407L339.2191 636.6407L339.2191 623.3839L339.2191 623.3839L223.7429 623.3839z" /></clipPath><clipPath id="32"><path clip-rule="evenodd" d="M223.7429 636.6407L339.2191 636.6407L339.2191 636.6407L339.2191 623.3839L339.2191 623.3839L223.7429 623.3839z" /></clipPath><clipPath id="33"><path clip-rule="evenodd" d="M342.0179 636.6407L453.6994 636.6407L453.6994 636.6407L453.6994 623.3839L453.6994 623.3839L342.0179 623.3839z" /></clipPath><clipPath id="34"><path clip-rule="evenodd" d="M342.0179 636.6407L453.6994 636.6407L453.6994 636.6407L453.6994 623.3839L453.6994 623.3839L342.0179 623.3839z" /></clipPath><clipPath id="35"><path clip-rule="evenodd" d="M289.7379 648.0449L382.6049 648.0449L382.6049 648.0449L382.6049 634.7881L382.6049 634.7881L289.7379 634.7881z" /></clipPath><clipPath id="36"><path clip-rule="evenodd" d="M289.7379 648.0449L382.6049 648.0449L382.6049 648.0449L382.6049 634.7881L382.6049 634.7881L289.7379 634.7881z" /></clipPath><clipPath id="37"><path clip-rule="evenodd" d="M72.00228 659.5686L274.7381 659.5686L274.7381 659.5686L274.7381 646.3118L274.7381 646.3118L72.00228 646.3118z" /></clipPath><clipPath id="38"><path clip-rule="evenodd" d="M72.00228 659.5686L274.7381 659.5686L274.7381 659.5686L274.7381 646.3118L274.7381 646.3118L72.00228 646.3118z" /></clipPath><clipPath id="39"><path clip-rule="evenodd" d="M176.4827 682.616L459.3566 682.616L459.3566 682.616L459.3566 669.3593L459.3566 669.3593L176.4827 669.3593z" /></clipPath><clipPath id="40"><path clip-rule="evenodd" d="M176.4827 682.616L459.3566 682.616L459.3566 682.616L459.3566 669.3593L459.3566 669.3593L176.4827 669.3593z" /></clipPath><clipPath id="41"><path clip-rule="evenodd" d="M72.00228 694.1398L533.6881 694.1398L533.6881 694.1398L533.6881 669.3593L533.6881 669.3593L72.00228 669.3593z" /></clipPath><clipPath id="42"><path clip-rule="evenodd" d="M72.00228 694.1398L533.6881 694.1398L533.6881 694.1398L533.6881 669.3593L533.6881 669.3593L72.00228 669.3593z" /></clipPath><clipPath id="43"><path clip-rule="evenodd" d="M358.5913 694.1398L465.3625 694.1398L465.3625 694.1398L465.3625 680.883L465.3625 680.883L358.5913 680.883z" /></clipPath><clipPath id="44"><path clip-rule="evenodd" d="M358.5913 694.1398L465.3625 694.1398L465.3625 694.1398L465.3625 680.883L465.3625 680.883L358.5913 680.883z" /></clipPath></defs><g transform="matrix(1.333333 0 0 1.333333 0 0)"><g clip-path="url(#1)"><g clip-path="url(#2)"><path transform="matrix(1 0 0 -1 0 792)" d="M90 708.72L123.24 708.72L123.24 708.72L123.24 709.8L123.24 709.8L90 709.8z" stroke="none" fill="#000000" fill-rule="evenodd" /><path transform="matrix(1 0 0 -1 0 792)" d="M227.16 674.28L239.4 674.28L239.4 674.28L239.4 675.36L239.4 675.36L227.16 675.36z" stroke="none" fill="#000000" fill-rule="evenodd" /></g><g clip-path="url(#3)"><g clip-path="url(#4)"><path transform="matrix(1 0 0 -1 0 792)" d="M270.0758 487.6239L341.003 487.6239L341.003 503.5321L270.0758 503.5321z" stroke="none" fill="#F6DB09" fill-rule="nonzero" /></g></g><g clip-path="url(#5)"><g clip-path="url(#6)"><path transform="matrix(1 0 0 -1 0 792)" d="M184.355 441.2053L401.6943 441.2053L401.6943 457.7709L184.355 457.7709z" stroke="none" fill="#F6DB09" fill-rule="nonzero" /></g></g><g clip-path="url(#7)"><g clip-path="url(#8)"><path transform="matrix(1 0 0 -1 0 792)" d="M401.7021 441.2054L519.9393 441.2054L519.9393 457.7709L401.7021 457.7709z" stroke="none" fill="#F6DB09" fill-rule="nonzero" /><path transform="matrix(1 0 0 -1 0 792)" d="M106.6372 429.6816L164.8156 429.6816L164.8156 446.2471L106.6372 446.2471z" stroke="none" fill="#F6DB09" fill-rule="nonzero" /></g></g><g clip-path="url(#9)"><g clip-path="url(#10)"><path transform="matrix(1 0 0 -1 0 792)" d="M338.5756 372.1825L531.3036 372.1825L531.3036 388.7481L338.5756 388.7481z" stroke="none" fill="#F6DB09" fill-rule="nonzero" /></g></g><g clip-path="url(#11)"><g clip-path="url(#12)"><path transform="matrix(1 0 0 -1 0 792)" d="M228.931 361.102L445.7025 361.102L445.7025 377.0102L228.931 377.0102z" stroke="none" fill="#F6DB09" fill-rule="nonzero" /></g></g><g clip-path="url(#13)"><g clip-path="url(#14)"><path transform="matrix(1 0 0 -1 0 792)" d="M123.355 338.1741L260.6457 338.1741L260.6457 354.0823L123.355 354.0823z" stroke="none" fill="#F6DB09" fill-rule="nonzero" /></g></g><g clip-path="url(#15)"><g clip-path="url(#16)"><path transform="matrix(1 0 0 -1 0 792)" d="M323.9794 315.2462L520.6116 315.2462L520.6116 331.1543L323.9794 331.1543z" stroke="none" fill="#F6DB09" fill-rule="nonzero" /><path transform="matrix(1 0 0 -1 0 792)" d="M70.6766 303.6029L518.5001 303.6029L518.5001 319.5111L70.6766 319.5111z" stroke="none" fill="#F6DB09" fill-rule="nonzero" /><path transform="matrix(1 0 0 -1 0 792)" d="M70.6766 292.0792L126.2355 292.0792L126.2355 307.9874L70.6766 307.9874z" stroke="none" fill="#F6DB09" fill-rule="nonzero" /></g></g><g clip-path="url(#17)"><g clip-path="url(#18)"><path transform="matrix(1 0 0 -1 0 792)" d="M263.2681 234.1369L451.5839 234.1369L451.5839 250.7025L263.2681 250.7025z" stroke="none" fill="#F6DB09" fill-rule="nonzero" /></g></g><g clip-path="url(#19)"><g clip-path="url(#20)"><path transform="matrix(1 0 0 -1 0 792)" d="M469.1912 234.1369L530.3177 234.1369L530.3177 250.7025L469.1912 250.7025z" stroke="none" fill="#C385E6" fill-rule="nonzero" /><path transform="matrix(1 0 0 -1 0 792)" d="M70.62183 222.6133L277.6224 222.6133L277.6224 239.1786L70.62183 239.1786z" stroke="none" fill="#C385E6" fill-rule="nonzero" /></g></g><g clip-path="url(#21)"><g clip-path="url(#22)"><path transform="matrix(1 0 0 -1 0 792)" d="M337.1016 222.6133L414.4231 222.6133L414.4231 239.1786L337.1016 239.1786z" stroke="none" fill="#C385E6" fill-rule="nonzero" /></g></g><g clip-path="url(#23)"><g clip-path="url(#24)"><path transform="matrix(1 0 0 -1 0 792)" d="M355.1441 188.6048L389.9364 188.6048L389.9364 204.5129L355.1441 204.5129z" stroke="none" fill="#F6DB09" fill-rule="nonzero" /></g></g><g clip-path="url(#25)"><g clip-path="url(#26)"><path transform="matrix(1 0 0 -1 0 792)" d="M70.67661 177.0811L136.5441 177.0811L136.5441 192.9892L70.67661 192.9892z" stroke="none" fill="#F6DB09" fill-rule="nonzero" /></g></g><g clip-path="url(#27)"><g clip-path="url(#28)"><path transform="matrix(1 0 0 -1 0 792)" d="M159.0815 177.0811L247.7475 177.0811L247.7475 192.9892L159.0815 192.9892z" stroke="none" fill="#F6DB09" fill-rule="nonzero" /></g></g><g clip-path="url(#29)"><g clip-path="url(#30)"><path transform="matrix(1 0 0 -1 0 792)" d="M250.6139 177.0811L370.4347 177.0811L370.4347 192.9892L250.6139 192.9892z" stroke="none" fill="#F6DB09" fill-rule="nonzero" /></g></g><g clip-path="url(#31)"><g clip-path="url(#32)"><path transform="matrix(1 0 0 -1 0 792)" d="M222.4172 154.0336L340.5448 154.0336L340.5448 169.9418L222.4172 169.9418z" stroke="none" fill="#F6DB09" fill-rule="nonzero" /></g></g><g clip-path="url(#33)"><g clip-path="url(#34)"><path transform="matrix(1 0 0 -1 0 792)" d="M340.6922 154.0336L455.0251 154.0336L455.0251 169.9418L340.6922 169.9418z" stroke="none" fill="#F6DB09" fill-rule="nonzero" /></g></g><g clip-path="url(#35)"><g clip-path="url(#36)"><path transform="matrix(1 0 0 -1 0 792)" d="M288.4122 142.6294L383.9306 142.6294L383.9306 158.5376L288.4122 158.5376z" stroke="none" fill="#F6DB09" fill-rule="nonzero" /></g></g><g clip-path="url(#37)"><g clip-path="url(#38)"><path transform="matrix(1 0 0 -1 0 792)" d="M70.6766 131.1057L276.0638 131.1057L276.0638 147.0139L70.6766 147.0139z" stroke="none" fill="#F6DB09" fill-rule="nonzero" /></g></g><g clip-path="url(#39)"><g clip-path="url(#40)"><path transform="matrix(1 0 0 -1 0 792)" d="M175.157 108.0583L460.6822 108.0583L460.6822 123.9664L175.157 123.9664z" stroke="none" fill="#F6DB09" fill-rule="nonzero" /></g></g><g clip-path="url(#41)"><g clip-path="url(#42)"><path transform="matrix(1 0 0 -1 0 792)" d="M480.1024 108.0583L535.0139 108.0583L535.0139 123.9664L480.1024 123.9664z" stroke="none" fill="#F6DB09" fill-rule="nonzero" /><path transform="matrix(1 0 0 -1 0 792)" d="M70.67661 96.53456L354.3992 96.53456L354.3992 112.4427L70.67661 112.4427z" stroke="none" fill="#F6DB09" fill-rule="nonzero" /></g></g><g clip-path="url(#43)"><g clip-path="url(#44)"><path transform="matrix(1 0 0 -1 0 792)" d="M357.2656 96.53456L466.6882 96.53456L466.6882 112.4427L357.2656 112.4427z" stroke="none" fill="#B3E508" fill-rule="nonzero" /></g></g></g></g></svg>