<svg xmlns="http://www.w3.org/2000/svg" xmlns:xlink="http://www.w3.org/1999/xlink" id="body_56" preserveAspectRatio="xMinYMin meet" viewBox="0 0 816 1056"><defs><clipPath id="1"><path clip-rule="evenodd" d="M0 792L0 0L0 0L612 0L612 0L612 792L612 792L0 792z" /></clipPath><clipPath id="2"><path clip-rule="evenodd" d="M0 792L612 792L612 792L612 0L612 0L0 0z" /></clipPath><clipPath id="3"><path clip-rule="evenodd" d="M84.299 387.868L555.295 387.868L555.295 387.868L555.295 693.84L555.295 693.84L84.299 693.84z" /></clipPath><clipPath id="4"><path clip-rule="evenodd" d="M0 792L612 792L612 792L612 0L612 0L0 0z" /></clipPath></defs><g transform="matrix(1.333333 0 0 1.333333 0 0)"><g clip-path="url(#1)"><g clip-path="url(#2)"></g><g clip-path="url(#3)"><g clip-path="url(#4)"><g transform="matrix(0.7511961 0 0 0.7518427 84.30008 387.8701)"><g transform="matrix(1 0 0 1 0 0)"><image x="0" y="0" xlink:href="img_71.png" width="627" height="407" /></g></g></g></g></g></g></svg>