<svg xmlns="http://www.w3.org/2000/svg" xmlns:xlink="http://www.w3.org/1999/xlink" id="body_15" preserveAspectRatio="xMinYMin meet" viewBox="0 0 816 1056"><defs><clipPath id="1"><path clip-rule="evenodd" d="M0 792L0 0L0 0L612 0L612 0L612 792L612 792L0 792z" /></clipPath><clipPath id="2"><path clip-rule="evenodd" d="M0 792L612 792L612 792L612 0L612 0L0 0z" /></clipPath><clipPath id="3"><path clip-rule="evenodd" d="M71.9922 96.00153L532.1343 96.00153L532.1343 96.00153L532.1343 71.22089L532.1343 71.22089L71.9922 71.22089z" /></clipPath><clipPath id="4"><path clip-rule="evenodd" d="M71.9922 96.00153L532.1343 96.00153L532.1343 96.00153L532.1343 71.22089L532.1343 71.22089L71.9922 71.22089z" /></clipPath><clipPath id="5"><path clip-rule="evenodd" d="M71.9922 119.3178L508.6088 119.3178L508.6088 119.3178L508.6088 94.10907L508.6088 94.10907L71.9922 94.10907z" /></clipPath><clipPath id="6"><path clip-rule="evenodd" d="M71.9922 119.3178L508.6088 119.3178L508.6088 119.3178L508.6088 94.10907L508.6088 94.10907L71.9922 94.10907z" /></clipPath><clipPath id="7"><path clip-rule="evenodd" d="M71.9922 130.8415L524.6841 130.8415L524.6841 130.8415L524.6841 105.5132L524.6841 105.5132L71.9922 105.5132z" /></clipPath><clipPath id="8"><path clip-rule="evenodd" d="M71.9922 130.8415L524.6841 130.8415L524.6841 130.8415L524.6841 105.5132L524.6841 105.5132L71.9922 105.5132z" /></clipPath><clipPath id="9"><path clip-rule="evenodd" d="M319.309 245.5707L372.7145 245.5707L372.7145 245.5707L372.7145 232.314L372.7145 232.314L319.309 232.314z" /></clipPath><clipPath id="10"><path clip-rule="evenodd" d="M319.309 245.5707L372.7145 245.5707L372.7145 245.5707L372.7145 232.314L372.7145 232.314L319.309 232.314z" /></clipPath><clipPath id="11"><path clip-rule="evenodd" d="M71.9922 280.0224L534.8434 280.0224L534.8434 280.0224L534.8434 243.7182L534.8434 243.7182L71.9922 243.7182z" /></clipPath><clipPath id="12"><path clip-rule="evenodd" d="M71.9922 280.0224L534.8434 280.0224L534.8434 280.0224L534.8434 243.7182L534.8434 243.7182L71.9922 243.7182z" /></clipPath><clipPath id="13"><path clip-rule="evenodd" d="M178.0463 291.5461L292.1281 291.5461L292.1281 291.5461L292.1281 278.2894L292.1281 278.2894L178.0463 278.2894z" /></clipPath><clipPath id="14"><path clip-rule="evenodd" d="M178.0463 291.5461L292.1281 291.5461L292.1281 291.5461L292.1281 278.2894L292.1281 278.2894L178.0463 278.2894z" /></clipPath><clipPath id="15"><path clip-rule="evenodd" d="M71.9922 303.0699L328.771 303.0699L328.771 303.0699L328.771 289.8131L328.771 289.8131L71.9922 289.8131z" /></clipPath><clipPath id="16"><path clip-rule="evenodd" d="M71.9922 303.0699L328.771 303.0699L328.771 303.0699L328.771 289.8131L328.771 289.8131L71.9922 289.8131z" /></clipPath><clipPath id="17"><path clip-rule="evenodd" d="M71.9922 406.5443L507.4534 406.5443L507.4534 406.5443L507.4534 381.7638L507.4534 381.7638L71.9922 381.7638z" /></clipPath><clipPath id="18"><path clip-rule="evenodd" d="M71.9922 406.5443L507.4534 406.5443L507.4534 406.5443L507.4534 381.7638L507.4534 381.7638L71.9922 381.7638z" /></clipPath><clipPath id="19"><path clip-rule="evenodd" d="M72 503.5571L530.2795 503.5571L530.2795 503.5571L530.2795 478.2288L530.2795 478.2288L72 478.2288z" /></clipPath><clipPath id="20"><path clip-rule="evenodd" d="M72 503.5571L530.2795 503.5571L530.2795 503.5571L530.2795 478.2288L530.2795 478.2288L72 478.2288z" /></clipPath><clipPath id="21"><path clip-rule="evenodd" d="M89.8782 526.2161L310.8508 526.2161L310.8508 526.2161L310.8508 512.9593L310.8508 512.9593L89.8782 512.9593z" /></clipPath><clipPath id="22"><path clip-rule="evenodd" d="M89.8782 526.2161L310.8508 526.2161L310.8508 526.2161L310.8508 512.9593L310.8508 512.9593L89.8782 512.9593z" /></clipPath><clipPath id="23"><path clip-rule="evenodd" d="M316.4881 526.2161L361.9555 526.2161L361.9555 526.2161L361.9555 512.9593L361.9555 512.9593L316.4881 512.9593z" /></clipPath><clipPath id="24"><path clip-rule="evenodd" d="M316.4881 526.2161L361.9555 526.2161L361.9555 526.2161L361.9555 512.9593L361.9555 512.9593L316.4881 512.9593z" /></clipPath><clipPath id="25"><path clip-rule="evenodd" d="M390.2438 711.573L530.6866 711.573L530.6866 711.573L530.6866 700.8718L530.6866 700.8718L390.2438 700.8718z" /></clipPath><clipPath id="26"><path clip-rule="evenodd" d="M390.2438 711.573L530.6866 711.573L530.6866 711.573L530.6866 700.8718L530.6866 700.8718L390.2438 700.8718z" /></clipPath></defs><g transform="matrix(1.333333 0 0 1.333333 0 0)"><g clip-path="url(#1)"><g clip-path="url(#2)"><path transform="matrix(1 0 0 -1 0 792)" d="M72 120.96L216 120.96L216 120.96L216 121.68L216 121.68L72 121.68z" stroke="none" fill="#000000" fill-rule="evenodd" /></g><g clip-path="url(#3)"><g clip-path="url(#4)"><path transform="matrix(1 0 0 -1 0 792)" d="M294.5872 706.1966L533.46 706.1966L533.46 722.1048L294.5872 722.1048z" stroke="none" fill="#F6DB09" fill-rule="nonzero" /><path transform="matrix(1 0 0 -1 0 792)" d="M70.66652 694.6728L248.1059 694.6728L248.1059 710.581L70.66652 710.581z" stroke="none" fill="#F6DB09" fill-rule="nonzero" /></g></g><g clip-path="url(#5)"><g clip-path="url(#6)"><path transform="matrix(1 0 0 -1 0 792)" d="M357.9578 682.7059L509.9893 682.7059L509.9893 699.2714L357.9578 699.2714z" stroke="none" fill="#F6DB09" fill-rule="nonzero" /><path transform="matrix(1 0 0 -1 0 792)" d="M70.61174 671.3018L363.2784 671.3018L363.2784 687.8672L70.61174 687.8672z" stroke="none" fill="#F6DB09" fill-rule="nonzero" /></g></g><g clip-path="url(#7)"><g clip-path="url(#8)"><path transform="matrix(1 0 0 -1 0 792)" d="M360.5174 671.3018L526.0645 671.3018L526.0645 687.8672L360.5174 687.8672z" stroke="none" fill="#F6DB09" fill-rule="nonzero" /><path transform="matrix(1 0 0 -1 0 792)" d="M70.61176 659.7781L134.9055 659.7781L134.9055 676.3434L70.61176 676.3434z" stroke="none" fill="#F6DB09" fill-rule="nonzero" /></g></g><g clip-path="url(#9)"><g clip-path="url(#10)"><path transform="matrix(1 0 0 -1 0 792)" d="M317.9833 545.1036L374.0402 545.1036L374.0402 561.0117L317.9833 561.0117z" stroke="none" fill="#F6DB09" fill-rule="nonzero" /></g></g><g clip-path="url(#11)"><g clip-path="url(#12)"><path transform="matrix(1 0 0 -1 0 792)" d="M479.0365 533.6993L536.1691 533.6993L536.1691 549.6075L479.0365 549.6075z" stroke="none" fill="#F6DB09" fill-rule="nonzero" /><path transform="matrix(1 0 0 -1 0 792)" d="M70.66652 522.1756L507.2452 522.1756L507.2452 538.0838L70.66652 538.0838z" stroke="none" fill="#F6DB09" fill-rule="nonzero" /><path transform="matrix(1 0 0 -1 0 792)" d="M70.66652 510.6519L282.2787 510.6519L282.2787 526.5601L70.66652 526.5601z" stroke="none" fill="#F6DB09" fill-rule="nonzero" /></g></g><g clip-path="url(#13)"><g clip-path="url(#14)"><path transform="matrix(1 0 0 -1 0 792)" d="M176.7206 499.1282L293.4537 499.1282L293.4537 515.0363L176.7206 515.0363z" stroke="none" fill="#F6DB09" fill-rule="nonzero" /></g></g><g clip-path="url(#15)"><g clip-path="url(#16)"><path transform="matrix(1 0 0 -1 0 792)" d="M70.66652 487.6044L330.0967 487.6044L330.0967 503.5126L70.66652 503.5126z" stroke="none" fill="#F6DB09" fill-rule="nonzero" /></g></g><g clip-path="url(#17)"><g clip-path="url(#18)"><path transform="matrix(1 0 0 -1 0 792)" d="M260.0758 395.6537L508.7791 395.6537L508.7791 411.5619L260.0758 411.5619z" stroke="none" fill="#F6DB09" fill-rule="nonzero" /><path transform="matrix(1 0 0 -1 0 792)" d="M70.66652 384.13L283.3743 384.13L283.3743 400.0382L70.66652 400.0382z" stroke="none" fill="#F6DB09" fill-rule="nonzero" /></g></g><g clip-path="url(#19)"><g clip-path="url(#20)"><path transform="matrix(1 0 0 -1 0 792)" d="M298.9127 298.5862L531.6599 298.5862L531.6599 315.1517L298.9127 315.1517z" stroke="none" fill="#F6DB09" fill-rule="nonzero" /><path transform="matrix(1 0 0 -1 0 792)" d="M70.61954 287.0624L184.3448 287.0624L184.3448 303.628L70.61954 303.628z" stroke="none" fill="#F6DB09" fill-rule="nonzero" /></g></g><g clip-path="url(#21)"><g clip-path="url(#22)"><path transform="matrix(1 0 0 -1 0 792)" d="M88.55251 264.4582L312.1765 264.4582L312.1765 280.3664L88.55251 280.3664z" stroke="none" fill="#F6DB09" fill-rule="nonzero" /></g></g><g clip-path="url(#23)"><g clip-path="url(#24)"><path transform="matrix(1 0 0 -1 0 792)" d="M315.1624 264.4582L363.2812 264.4582L363.2812 280.3664L315.1624 280.3664z" stroke="none" fill="#F6DB09" fill-rule="nonzero" /></g></g><g clip-path="url(#25)"><g clip-path="url(#26)"><path transform="matrix(1 0 0 -1 0 792)" d="M389.1737 79.35688L531.7567 79.35688L531.7567 92.19837L389.1737 92.19837z" stroke="none" fill="#F6DB09" fill-rule="nonzero" /></g></g></g></g></svg>