<svg xmlns="http://www.w3.org/2000/svg" xmlns:xlink="http://www.w3.org/1999/xlink" id="body_14" preserveAspectRatio="xMinYMin meet" viewBox="0 0 816 1056"><defs><clipPath id="1"><path clip-rule="evenodd" d="M0 792L0 0L0 0L612 0L612 0L612 792L612 792L0 792z" /></clipPath><clipPath id="2"><path clip-rule="evenodd" d="M0 792L612 792L612 792L612 0L612 0L0 0z" /></clipPath><clipPath id="3"><path clip-rule="evenodd" d="M72 532.917L351.9756 532.917L351.9756 532.917L351.9756 519.6602L351.9756 519.6602L72 519.6602z" /></clipPath><clipPath id="4"><path clip-rule="evenodd" d="M72 532.917L351.9756 532.917L351.9756 532.917L351.9756 519.6602L351.9756 519.6602L72 519.6602z" /></clipPath><clipPath id="5"><path clip-rule="evenodd" d="M357.4934 532.917L495.9275 532.917L495.9275 532.917L495.9275 519.6602L495.9275 519.6602L357.4934 519.6602z" /></clipPath><clipPath id="6"><path clip-rule="evenodd" d="M357.4934 532.917L495.9275 532.917L495.9275 532.917L495.9275 519.6602L495.9275 519.6602L357.4934 519.6602z" /></clipPath><clipPath id="7"><path clip-rule="evenodd" d="M72 544.4407L133.7918 544.4407L133.7918 544.4407L133.7918 531.184L133.7918 531.184L72 531.184z" /></clipPath><clipPath id="8"><path clip-rule="evenodd" d="M72 544.4407L133.7918 544.4407L133.7918 544.4407L133.7918 531.184L133.7918 531.184L72 531.184z" /></clipPath><clipPath id="9"><path clip-rule="evenodd" d="M292.5841 544.4407L440.4304 544.4407L440.4304 544.4407L440.4304 531.184L440.4304 531.184L292.5841 531.184z" /></clipPath><clipPath id="10"><path clip-rule="evenodd" d="M292.5841 544.4407L440.4304 544.4407L440.4304 544.4407L440.4304 531.184L440.4304 531.184L292.5841 531.184z" /></clipPath><clipPath id="11"><path clip-rule="evenodd" d="M71.98008 601.9398L529.7617 601.9398L529.7617 601.9398L529.7617 577.1593L529.7617 577.1593L71.98008 577.1593z" /></clipPath><clipPath id="12"><path clip-rule="evenodd" d="M71.98008 601.9398L529.7617 601.9398L529.7617 601.9398L529.7617 577.1593L529.7617 577.1593L71.98008 577.1593z" /></clipPath><clipPath id="13"><path clip-rule="evenodd" d="M72.00456 702.3309L532.383 702.3309L532.383 702.3309L532.383 682.3918L532.383 682.3918L72.00456 682.3918z" /></clipPath><clipPath id="14"><path clip-rule="evenodd" d="M72.00456 702.3309L532.383 702.3309L532.383 702.3309L532.383 682.3918L532.383 682.3918L72.00456 682.3918z" /></clipPath></defs><g transform="matrix(1.333333 0 0 1.333333 0 0)"><g clip-path="url(#1)"><g clip-path="url(#2)"><path transform="matrix(1 0 0 -1 0 792)" d="M72 176.16L216 176.16L216 176.16L216 176.88L216 176.88L72 176.88z" stroke="none" fill="#000000" fill-rule="evenodd" /></g><g clip-path="url(#3)"><g clip-path="url(#4)"><path transform="matrix(1 0 0 -1 0 792)" d="M70.67432 257.7573L353.3013 257.7573L353.3013 273.6655L70.67432 273.6655z" stroke="none" fill="#F6DB09" fill-rule="nonzero" /></g></g><g clip-path="url(#5)"><g clip-path="url(#6)"><path transform="matrix(1 0 0 -1 0 792)" d="M356.1677 257.7573L497.2532 257.7573L497.2532 273.6655L356.1677 273.6655z" stroke="none" fill="#F6DB09" fill-rule="nonzero" /></g></g><g clip-path="url(#7)"><g clip-path="url(#8)"><path transform="matrix(1 0 0 -1 0 792)" d="M70.67433 246.2336L135.1175 246.2336L135.1175 262.1417L70.67433 262.1417z" stroke="none" fill="#F6DB09" fill-rule="nonzero" /></g></g><g clip-path="url(#9)"><g clip-path="url(#10)"><path transform="matrix(1 0 0 -1 0 792)" d="M291.2584 246.2336L441.756 246.2336L441.756 262.1417L291.2584 262.1417z" stroke="none" fill="#F6DB09" fill-rule="nonzero" /></g></g><g clip-path="url(#11)"><g clip-path="url(#12)"><path transform="matrix(1 0 0 -1 0 792)" d="M310.7003 200.2582L531.0873 200.2582L531.0873 216.1664L310.7003 216.1664z" stroke="none" fill="#F6DB09" fill-rule="nonzero" /><path transform="matrix(1 0 0 -1 0 792)" d="M70.6544 188.7345L264.8864 188.7345L264.8864 204.6427L70.6544 204.6427z" stroke="none" fill="#F6DB09" fill-rule="nonzero" /></g></g><g clip-path="url(#13)"><g clip-path="url(#14)"><path transform="matrix(1 0 0 -1 0 792)" d="M196.069 97.83688L533.4531 97.83688L533.4531 110.6783L196.069 110.6783z" stroke="none" fill="#F6DB09" fill-rule="nonzero" /><path transform="matrix(1 0 0 -1 0 792)" d="M70.93443 88.59891L219.8208 88.59891L219.8208 101.4404L70.93443 101.4404z" stroke="none" fill="#F6DB09" fill-rule="nonzero" /></g></g></g></g></svg>