<svg xmlns="http://www.w3.org/2000/svg" xmlns:xlink="http://www.w3.org/1999/xlink" id="body_71" preserveAspectRatio="xMinYMin meet" viewBox="0 0 816 1056"><defs><clipPath id="1"><path clip-rule="evenodd" d="M0 792L0 0L0 0L612 0L612 0L612 792L612 792L0 792z" /></clipPath><clipPath id="2"><path clip-rule="evenodd" d="M0 792L612 792L612 792L612 0L612 0L0 0z" /></clipPath><clipPath id="3"><path clip-rule="evenodd" d="M199.06 377.437L477.365 377.437L477.365 377.437L477.365 551.33L477.365 551.33L199.06 551.33z" /></clipPath><clipPath id="4"><path clip-rule="evenodd" d="M0 792L612 792L612 792L612 0L612 0L0 0z" /></clipPath><clipPath id="5"><path clip-rule="evenodd" d="M199.502 559.014L399.784 559.014L399.784 559.014L399.784 715.945L399.784 715.945L199.502 715.945z" /></clipPath><clipPath id="6"><path clip-rule="evenodd" d="M0 792L612 792L612 792L612 0L612 0L0 0z" /></clipPath></defs><g transform="matrix(1.333333 0 0 1.333333 0 0)"><g clip-path="url(#1)"><g clip-path="url(#2)"><g transform="matrix(0.4420972 0 0 0.4420934 199.0964 81.99597)"><g transform="matrix(1 0 0 1 0 0)"><image x="0" y="0" xlink:href="img_93.png" width="577" height="316" /></g></g><g transform="matrix(0.4424448 0 0 0.4424449 199.5 221.6974)"><g transform="matrix(1 0 0 1 0 0)"><image x="0" y="0" xlink:href="img_94.png" width="585" height="352" /></g></g></g><g clip-path="url(#3)"><g clip-path="url(#4)"><g transform="matrix(0.4431592 0 0 0.4424741 199.0597 377.4379)"><g transform="matrix(1 0 0 1 0 0)"><image x="0" y="0" xlink:href="img_95.png" width="628" height="393" /></g></g></g></g><g clip-path="url(#5)"><g clip-path="url(#6)"><g transform="matrix(0.4261272 0 0 0.4287683 199.5 559.0162)"><g transform="matrix(1 0 0 1 0 0)"><image x="0" y="0" xlink:href="img_96.png" width="470" height="366" /></g></g></g></g></g></g></svg>