<svg xmlns="http://www.w3.org/2000/svg" xmlns:xlink="http://www.w3.org/1999/xlink" id="body_23" preserveAspectRatio="xMinYMin meet" viewBox="0 0 816 1056"><defs><clipPath id="1"><path clip-rule="evenodd" d="M0 792L0 0L0 0L612 0L612 0L612 792L612 792L0 792z" /></clipPath><clipPath id="2"><path clip-rule="evenodd" d="M0 792L612 792L612 792L612 0L612 0L0 0z" /></clipPath><clipPath id="3"><path clip-rule="evenodd" d="M91.999 72.00403L521.495 72.00403L521.495 72.00403L521.495 268.923L521.495 268.923L91.999 268.923z" /></clipPath><clipPath id="4"><path clip-rule="evenodd" d="M0 792L612 792L612 792L612 0L612 0L0 0z" /></clipPath><clipPath id="5"><path clip-rule="evenodd" d="M0 792L612 792L612 792L612 0L612 0L0 0z" /></clipPath><clipPath id="6"><path clip-rule="evenodd" d="M72.00216 316.3565L534.6342 316.3565L534.6342 316.3565L534.6342 291.0282L534.6342 291.0282L72.00216 291.0282z" /></clipPath><clipPath id="7"><path clip-rule="evenodd" d="M72.00216 316.3565L534.6342 316.3565L534.6342 316.3565L534.6342 291.0282L534.6342 291.0282L72.00216 291.0282z" /></clipPath><clipPath id="8"><path clip-rule="evenodd" d="M278.1443 315.8485L340.4242 315.8485L340.4242 315.8485L340.4242 302.5918L340.4242 302.5918L278.1443 302.5918z" /></clipPath><clipPath id="9"><path clip-rule="evenodd" d="M278.1443 315.8485L340.4242 315.8485L340.4242 315.8485L340.4242 302.5918L340.4242 302.5918L278.1443 302.5918z" /></clipPath><clipPath id="10"><path clip-rule="evenodd" d="M72.00216 327.4918L298.0444 327.4918L298.0444 327.4918L298.0444 314.235L298.0444 314.235L72.00216 314.235z" /></clipPath><clipPath id="11"><path clip-rule="evenodd" d="M72.00216 327.4918L298.0444 327.4918L298.0444 327.4918L298.0444 314.235L298.0444 314.235L72.00216 314.235z" /></clipPath><clipPath id="12"><path clip-rule="evenodd" d="M71.9922 338.896L535.4012 338.896L535.4012 338.896L535.4012 314.235L535.4012 314.235L71.9922 314.235z" /></clipPath><clipPath id="13"><path clip-rule="evenodd" d="M71.9922 338.896L535.4012 338.896L535.4012 338.896L535.4012 314.235L535.4012 314.235L71.9922 314.235z" /></clipPath><clipPath id="14"><path clip-rule="evenodd" d="M204.7988 686.1812L247.0691 686.1812L247.0691 686.1812L247.0691 672.9245L247.0691 672.9245L204.7988 672.9245z" /></clipPath><clipPath id="15"><path clip-rule="evenodd" d="M204.7988 686.1812L247.0691 686.1812L247.0691 686.1812L247.0691 672.9245L247.0691 672.9245L204.7988 672.9245z" /></clipPath><clipPath id="16"><path clip-rule="evenodd" d="M305.9725 686.1812L408.1721 686.1812L408.1721 686.1812L408.1721 672.9245L408.1721 672.9245L305.9725 672.9245z" /></clipPath><clipPath id="17"><path clip-rule="evenodd" d="M305.9725 686.1812L408.1721 686.1812L408.1721 686.1812L408.1721 672.9245L408.1721 672.9245L305.9725 672.9245z" /></clipPath><clipPath id="18"><path clip-rule="evenodd" d="M265.3158 697.705L363.7405 697.705L363.7405 697.705L363.7405 684.4482L363.7405 684.4482L265.3158 684.4482z" /></clipPath><clipPath id="19"><path clip-rule="evenodd" d="M265.3158 697.705L363.7405 697.705L363.7405 697.705L363.7405 684.4482L363.7405 684.4482L265.3158 684.4482z" /></clipPath></defs><g transform="matrix(1.333333 0 0 1.333333 0 0)"><g clip-path="url(#1)"><g clip-path="url(#2)"></g><g clip-path="url(#3)"><g clip-path="url(#4)"><g transform="matrix(0.7495637 0 0 0.7488593 92 72)"><g transform="matrix(1 0 0 1 0 0)"><image x="0" y="0" xlink:href="img_29.png" width="573" height="263" /></g></g></g></g><g clip-path="url(#5)"><g transform="matrix(0.75 0 0 0.75 101.25 349.4431)"><g transform="matrix(1 0 0 1 0 0)"><image x="0" y="0" xlink:href="img_30.png" width="548" height="417" /></g></g></g><g clip-path="url(#6)"><g clip-path="url(#7)"><path transform="matrix(1 0 0 -1 0 792)" d="M70.6217 485.7867L536.0148 485.7867L536.0148 502.3523L70.6217 502.3523z" stroke="none" fill="#F6DB09" fill-rule="nonzero" /><path transform="matrix(1 0 0 -1 0 792)" d="M70.6217 474.263L230.5813 474.263L230.5813 490.8286L70.6217 490.8286z" stroke="none" fill="#F6DB09" fill-rule="nonzero" /></g></g><g clip-path="url(#8)"><g clip-path="url(#9)"><path transform="matrix(1 0 0 -1 0 792)" d="M276.8186 474.8258L341.7499 474.8258L341.7499 490.7339L276.8186 490.7339z" stroke="none" fill="#F6DB09" fill-rule="nonzero" /></g></g><g clip-path="url(#10)"><g clip-path="url(#11)"><path transform="matrix(1 0 0 -1 0 792)" d="M70.67648 463.1825L299.3701 463.1825L299.3701 479.0907L70.67648 479.0907z" stroke="none" fill="#84A9F2" fill-rule="nonzero" /></g></g><g clip-path="url(#12)"><g clip-path="url(#13)"><path transform="matrix(1 0 0 -1 0 792)" d="M302.356 463.1825L536.7269 463.1825L536.7269 479.0907L302.356 479.0907z" stroke="none" fill="#84A9F2" fill-rule="nonzero" /><path transform="matrix(1 0 0 -1 0 792)" d="M70.66652 451.7783L97.08244 451.7783L97.08244 467.6865L70.66652 467.6865z" stroke="none" fill="#84A9F2" fill-rule="nonzero" /></g></g><g clip-path="url(#14)"><g clip-path="url(#15)"><path transform="matrix(1 0 0 -1 0 792)" d="M203.4731 104.4931L248.3948 104.4931L248.3948 120.4012L203.4731 120.4012z" stroke="none" fill="#F6DB09" fill-rule="nonzero" /></g></g><g clip-path="url(#16)"><g clip-path="url(#17)"><path transform="matrix(1 0 0 -1 0 792)" d="M304.6468 104.4931L409.4977 104.4931L409.4977 120.4012L304.6468 120.4012z" stroke="none" fill="#EB7FBA" fill-rule="nonzero" /></g></g><g clip-path="url(#18)"><g clip-path="url(#19)"><path transform="matrix(1 0 0 -1 0 792)" d="M263.9901 92.96936L365.0662 92.96936L365.0662 108.8775L263.9901 108.8775z" stroke="none" fill="#EB7FBA" fill-rule="nonzero" /></g></g></g></g></svg>