<svg xmlns="http://www.w3.org/2000/svg" xmlns:xlink="http://www.w3.org/1999/xlink" id="body_50" preserveAspectRatio="xMinYMin meet" viewBox="0 0 816 1056"><defs><clipPath id="1"><path clip-rule="evenodd" d="M0 792L0 0L0 0L612 0L612 0L612 792L612 792L0 792z" /></clipPath><clipPath id="2"><path clip-rule="evenodd" d="M0 792L612 792L612 792L612 0L612 0L0 0z" /></clipPath></defs><g transform="matrix(1.333333 0 0 1.333333 0 0)"><g clip-path="url(#1)"><g clip-path="url(#2)"><path transform="matrix(1 0 0 -1 0 792)" d="M103.08 487.32L103.56 487.32L103.56 487.32L103.56 487.8L103.56 487.8L103.08 487.8z" stroke="none" fill="#000000" fill-rule="evenodd" /><path transform="matrix(1 0 0 -1 0 792)" d="M103.08 487.32L103.56 487.32L103.56 487.32L103.56 487.8L103.56 487.8L103.08 487.8z" stroke="none" fill="#000000" fill-rule="evenodd" /><path transform="matrix(1 0 0 -1 0 792)" d="M103.56 487.32L541.44 487.32L541.44 487.32L541.44 487.8L541.44 487.8L103.56 487.8z" stroke="none" fill="#000000" fill-rule="evenodd" /><path transform="matrix(1 0 0 -1 0 792)" d="M541.44 487.32L541.92 487.32L541.92 487.32L541.92 487.8L541.92 487.8L541.44 487.8z" stroke="none" fill="#000000" fill-rule="evenodd" /><path transform="matrix(1 0 0 -1 0 792)" d="M541.44 487.32L541.92 487.32L541.92 487.32L541.92 487.8L541.92 487.8L541.44 487.8z" stroke="none" fill="#000000" fill-rule="evenodd" /><path transform="matrix(1 0 0 -1 0 792)" d="M103.08 461.04L103.56 461.04L103.56 461.04L103.56 487.32L103.56 487.32L103.08 487.32z" stroke="none" fill="#000000" fill-rule="evenodd" /><path transform="matrix(1 0 0 -1 0 792)" d="M541.44 461.04L541.92 461.04L541.92 461.04L541.92 487.32L541.92 487.32L541.44 487.32z" stroke="none" fill="#000000" fill-rule="evenodd" /><path transform="matrix(1 0 0 -1 0 792)" d="M103.08 444.24L103.56 444.24L103.56 444.24L103.56 444.72L103.56 444.72L103.08 444.72z" stroke="none" fill="#000000" fill-rule="evenodd" /><path transform="matrix(1 0 0 -1 0 792)" d="M103.08 444.24L103.56 444.24L103.56 444.24L103.56 444.72L103.56 444.72L103.08 444.72z" stroke="none" fill="#000000" fill-rule="evenodd" /><path transform="matrix(1 0 0 -1 0 792)" d="M103.56 444.24L541.44 444.24L541.44 444.24L541.44 444.72L541.44 444.72L103.56 444.72z" stroke="none" fill="#000000" fill-rule="evenodd" /><path transform="matrix(1 0 0 -1 0 792)" d="M541.44 444.24L541.92 444.24L541.92 444.24L541.92 444.72L541.92 444.72L541.44 444.72z" stroke="none" fill="#000000" fill-rule="evenodd" /><path transform="matrix(1 0 0 -1 0 792)" d="M541.44 444.24L541.92 444.24L541.92 444.24L541.92 444.72L541.92 444.72L541.44 444.72z" stroke="none" fill="#000000" fill-rule="evenodd" /><path transform="matrix(1 0 0 -1 0 792)" d="M103.08 444.72L103.56 444.72L103.56 444.72L103.56 461.04L103.56 461.04L103.08 461.04z" stroke="none" fill="#000000" fill-rule="evenodd" /><path transform="matrix(1 0 0 -1 0 792)" d="M541.44 444.72L541.92 444.72L541.92 444.72L541.92 461.04L541.92 461.04L541.44 461.04z" stroke="none" fill="#000000" fill-rule="evenodd" /><path transform="matrix(1 0 0 -1 0 792)" d="M103.08 122.28L103.56 122.28L103.56 122.28L103.56 122.76L103.56 122.76L103.08 122.76z" stroke="none" fill="#000000" fill-rule="evenodd" /><path transform="matrix(1 0 0 -1 0 792)" d="M103.08 122.28L103.56 122.28L103.56 122.28L103.56 122.76L103.56 122.76L103.08 122.76z" stroke="none" fill="#000000" fill-rule="evenodd" /><path transform="matrix(1 0 0 -1 0 792)" d="M103.56 122.28L541.44 122.28L541.44 122.28L541.44 122.76L541.44 122.76L103.56 122.76z" stroke="none" fill="#000000" fill-rule="evenodd" /><path transform="matrix(1 0 0 -1 0 792)" d="M541.44 122.28L541.92 122.28L541.92 122.28L541.92 122.76L541.92 122.76L541.44 122.76z" stroke="none" fill="#000000" fill-rule="evenodd" /><path transform="matrix(1 0 0 -1 0 792)" d="M541.44 122.28L541.92 122.28L541.92 122.28L541.92 122.76L541.92 122.76L541.44 122.76z" stroke="none" fill="#000000" fill-rule="evenodd" /><path transform="matrix(1 0 0 -1 0 792)" d="M103.08 96L103.56 96L103.56 96L103.56 122.28L103.56 122.28L103.08 122.28z" stroke="none" fill="#000000" fill-rule="evenodd" /><path transform="matrix(1 0 0 -1 0 792)" d="M541.44 96L541.92 96L541.92 96L541.92 122.28L541.92 122.28L541.44 122.28z" stroke="none" fill="#000000" fill-rule="evenodd" /><path transform="matrix(1 0 0 -1 0 792)" d="M103.08 79.2L103.56 79.2L103.56 79.2L103.56 79.68L103.56 79.68L103.08 79.68z" stroke="none" fill="#000000" fill-rule="evenodd" /><path transform="matrix(1 0 0 -1 0 792)" d="M103.08 79.2L103.56 79.2L103.56 79.2L103.56 79.68L103.56 79.68L103.08 79.68z" stroke="none" fill="#000000" fill-rule="evenodd" /><path transform="matrix(1 0 0 -1 0 792)" d="M103.56 79.2L541.44 79.2L541.44 79.2L541.44 79.68L541.44 79.68L103.56 79.68z" stroke="none" fill="#000000" fill-rule="evenodd" /><path transform="matrix(1 0 0 -1 0 792)" d="M541.44 79.2L541.92 79.2L541.92 79.2L541.92 79.68L541.92 79.68L541.44 79.68z" stroke="none" fill="#000000" fill-rule="evenodd" /><path transform="matrix(1 0 0 -1 0 792)" d="M541.44 79.2L541.92 79.2L541.92 79.2L541.92 79.68L541.92 79.68L541.44 79.68z" stroke="none" fill="#000000" fill-rule="evenodd" /><path transform="matrix(1 0 0 -1 0 792)" d="M103.08 79.68L103.56 79.68L103.56 79.68L103.56 96L103.56 96L103.08 96z" stroke="none" fill="#000000" fill-rule="evenodd" /><path transform="matrix(1 0 0 -1 0 792)" d="M541.44 79.68L541.92 79.68L541.92 79.68L541.92 96L541.92 96L541.44 96z" stroke="none" fill="#000000" fill-rule="evenodd" /><path transform="matrix(1 0 0 -1 0 792)" d="M67.56 713.04L68.04 713.04L68.04 713.04L68.04 713.52L68.04 713.52L67.56 713.52z" stroke="none" fill="#000000" fill-rule="evenodd" /><path transform="matrix(1 0 0 -1 0 792)" d="M67.56 713.04L68.04 713.04L68.04 713.04L68.04 713.52L68.04 713.52L67.56 713.52z" stroke="none" fill="#000000" fill-rule="evenodd" /><path transform="matrix(1 0 0 -1 0 792)" d="M68.04 713.04L543.96 713.04L543.96 713.04L543.96 713.52L543.96 713.52L68.04 713.52z" stroke="none" fill="#000000" fill-rule="evenodd" /><path transform="matrix(1 0 0 -1 0 792)" d="M543.96 713.04L544.44 713.04L544.44 713.04L544.44 713.52L544.44 713.52L543.96 713.52z" stroke="none" fill="#000000" fill-rule="evenodd" /><path transform="matrix(1 0 0 -1 0 792)" d="M543.96 713.04L544.44 713.04L544.44 713.04L544.44 713.52L544.44 713.52L543.96 713.52z" stroke="none" fill="#000000" fill-rule="evenodd" /><path transform="matrix(1 0 0 -1 0 792)" d="M67.56 69L68.04 69L68.04 69L68.04 713.04L68.04 713.04L67.56 713.04z" stroke="none" fill="#000000" fill-rule="evenodd" /><path transform="matrix(1 0 0 -1 0 792)" d="M543.96 69L544.44 69L544.44 69L544.44 713.04L544.44 713.04L543.96 713.04z" stroke="none" fill="#000000" fill-rule="evenodd" /><path transform="matrix(1 0 0 -1 0 792)" d="M67.56 68.52L68.04 68.52L68.04 68.52L68.04 69L68.04 69L67.56 69z" stroke="none" fill="#000000" fill-rule="evenodd" /><path transform="matrix(1 0 0 -1 0 792)" d="M67.56 68.52L68.04 68.52L68.04 68.52L68.04 69L68.04 69L67.56 69z" stroke="none" fill="#000000" fill-rule="evenodd" /><path transform="matrix(1 0 0 -1 0 792)" d="M68.04 68.52L543.96 68.52L543.96 68.52L543.96 69L543.96 69L68.04 69z" stroke="none" fill="#000000" fill-rule="evenodd" /><path transform="matrix(1 0 0 -1 0 792)" d="M543.96 68.52L544.44 68.52L544.44 68.52L544.44 69L544.44 69L543.96 69z" stroke="none" fill="#000000" fill-rule="evenodd" /><path transform="matrix(1 0 0 -1 0 792)" d="M543.96 68.52L544.44 68.52L544.44 68.52L544.44 69L544.44 69L543.96 69z" stroke="none" fill="#000000" fill-rule="evenodd" /></g></g></g></svg>