<svg xmlns="http://www.w3.org/2000/svg" xmlns:xlink="http://www.w3.org/1999/xlink" id="body_30" preserveAspectRatio="xMinYMin meet" viewBox="0 0 816 1056"><defs><clipPath id="1"><path clip-rule="evenodd" d="M0 792L0 0L0 0L612 0L612 0L612 792L612 792L0 792z" /></clipPath><clipPath id="2"><path clip-rule="evenodd" d="M0 792L612 792L612 792L612 0L612 0L0 0z" /></clipPath><clipPath id="3"><path clip-rule="evenodd" d="M72 402.4373L364.5451 402.4373L364.5451 402.4373L364.5451 388.6327L364.5451 388.6327L72 388.6327z" /></clipPath><clipPath id="4"><path clip-rule="evenodd" d="M72 402.4373L364.5451 402.4373L364.5451 402.4373L364.5451 388.6327L364.5451 388.6327L72 388.6327z" /></clipPath><clipPath id="5"><path clip-rule="evenodd" d="M72 333.4145L248.5609 333.4145L248.5609 333.4145L248.5609 319.6099L248.5609 319.6099L72 319.6099z" /></clipPath><clipPath id="6"><path clip-rule="evenodd" d="M72 333.4145L248.5609 333.4145L248.5609 333.4145L248.5609 319.6099L248.5609 319.6099L72 319.6099z" /></clipPath></defs><g transform="matrix(1.333333 0 0 1.333333 0 0)"><g clip-path="url(#1)"><g clip-path="url(#2)"><path transform="matrix(1 0 0 -1 0 792)" d="M66.12 719.52L66.60001 719.52L66.60001 719.52L66.60001 720L66.60001 720L66.12 720z" stroke="none" fill="#000000" fill-rule="evenodd" /><path transform="matrix(1 0 0 -1 0 792)" d="M66.12 719.52L66.60001 719.52L66.60001 719.52L66.60001 720L66.60001 720L66.12 720z" stroke="none" fill="#000000" fill-rule="evenodd" /><path transform="matrix(1 0 0 -1 0 792)" d="M66.6 719.52L545.4 719.52L545.4 719.52L545.4 720L545.4 720L66.6 720z" stroke="none" fill="#000000" fill-rule="evenodd" /><path transform="matrix(1 0 0 -1 0 792)" d="M545.4 719.52L545.88 719.52L545.88 719.52L545.88 720L545.88 720L545.4 720z" stroke="none" fill="#000000" fill-rule="evenodd" /><path transform="matrix(1 0 0 -1 0 792)" d="M545.4 719.52L545.88 719.52L545.88 719.52L545.88 720L545.88 720L545.4 720z" stroke="none" fill="#000000" fill-rule="evenodd" /><path transform="matrix(1 0 0 -1 0 792)" d="M66.12 705L66.60001 705L66.60001 705L66.60001 719.52L66.60001 719.52L66.12 719.52z" stroke="none" fill="#000000" fill-rule="evenodd" /><path transform="matrix(1 0 0 -1 0 792)" d="M545.4 705L545.88 705L545.88 705L545.88 719.52L545.88 719.52L545.4 719.52z" stroke="none" fill="#000000" fill-rule="evenodd" /><path transform="matrix(1 0 0 -1 0 792)" d="M66.12 693.48L66.60001 693.48L66.60001 693.48L66.60001 705L66.60001 705L66.12 705z" stroke="none" fill="#000000" fill-rule="evenodd" /><path transform="matrix(1 0 0 -1 0 792)" d="M545.4 693.48L545.88 693.48L545.88 693.48L545.88 705L545.88 705L545.4 705z" stroke="none" fill="#000000" fill-rule="evenodd" /><path transform="matrix(1 0 0 -1 0 792)" d="M66.12 678.48L66.60001 678.48L66.60001 678.48L66.60001 678.96L66.60001 678.96L66.12 678.96z" stroke="none" fill="#000000" fill-rule="evenodd" /><path transform="matrix(1 0 0 -1 0 792)" d="M66.12 678.48L66.60001 678.48L66.60001 678.48L66.60001 678.96L66.60001 678.96L66.12 678.96z" stroke="none" fill="#000000" fill-rule="evenodd" /><path transform="matrix(1 0 0 -1 0 792)" d="M66.6 678.48L545.4 678.48L545.4 678.48L545.4 678.96L545.4 678.96L66.6 678.96z" stroke="none" fill="#000000" fill-rule="evenodd" /><path transform="matrix(1 0 0 -1 0 792)" d="M545.4 678.48L545.88 678.48L545.88 678.48L545.88 678.96L545.88 678.96L545.4 678.96z" stroke="none" fill="#000000" fill-rule="evenodd" /><path transform="matrix(1 0 0 -1 0 792)" d="M545.4 678.48L545.88 678.48L545.88 678.48L545.88 678.96L545.88 678.96L545.4 678.96z" stroke="none" fill="#000000" fill-rule="evenodd" /><path transform="matrix(1 0 0 -1 0 792)" d="M66.12 678.96L66.60001 678.96L66.60001 678.96L66.60001 693.48L66.60001 693.48L66.12 693.48z" stroke="none" fill="#000000" fill-rule="evenodd" /><path transform="matrix(1 0 0 -1 0 792)" d="M545.4 678.96L545.88 678.96L545.88 678.96L545.88 693.48L545.88 693.48L545.4 693.48z" stroke="none" fill="#000000" fill-rule="evenodd" /><path transform="matrix(1 0 0 -1 0 792)" d="M72 130.2L216 130.2L216 130.2L216 130.92L216 130.92L72 130.92z" stroke="none" fill="#000000" fill-rule="evenodd" /><path transform="matrix(1 0 0 -1 0 792)" d="M66.12 287.04L66.60001 287.04L66.60001 287.04L66.60001 287.52L66.60001 287.52L66.12 287.52z" stroke="none" fill="#000000" fill-rule="evenodd" /><path transform="matrix(1 0 0 -1 0 792)" d="M66.12 287.04L66.60001 287.04L66.60001 287.04L66.60001 287.52L66.60001 287.52L66.12 287.52z" stroke="none" fill="#000000" fill-rule="evenodd" /><path transform="matrix(1 0 0 -1 0 792)" d="M66.6 287.04L545.4 287.04L545.4 287.04L545.4 287.52L545.4 287.52L66.6 287.52z" stroke="none" fill="#000000" fill-rule="evenodd" /><path transform="matrix(1 0 0 -1 0 792)" d="M545.4 287.04L545.88 287.04L545.88 287.04L545.88 287.52L545.88 287.52L545.4 287.52z" stroke="none" fill="#000000" fill-rule="evenodd" /><path transform="matrix(1 0 0 -1 0 792)" d="M545.4 287.04L545.88 287.04L545.88 287.04L545.88 287.52L545.88 287.52L545.4 287.52z" stroke="none" fill="#000000" fill-rule="evenodd" /><path transform="matrix(1 0 0 -1 0 792)" d="M66.12 272.52L66.60001 272.52L66.60001 272.52L66.60001 287.04L66.60001 287.04L66.12 287.04z" stroke="none" fill="#000000" fill-rule="evenodd" /><path transform="matrix(1 0 0 -1 0 792)" d="M545.4 272.52L545.88 272.52L545.88 272.52L545.88 287.04L545.88 287.04L545.4 287.04z" stroke="none" fill="#000000" fill-rule="evenodd" /><path transform="matrix(1 0 0 -1 0 792)" d="M66.12 261L66.60001 261L66.60001 261L66.60001 272.52L66.60001 272.52L66.12 272.52z" stroke="none" fill="#000000" fill-rule="evenodd" /><path transform="matrix(1 0 0 -1 0 792)" d="M545.4 261L545.88 261L545.88 261L545.88 272.52L545.88 272.52L545.4 272.52z" stroke="none" fill="#000000" fill-rule="evenodd" /><path transform="matrix(1 0 0 -1 0 792)" d="M66.12 249.48L66.60001 249.48L66.60001 249.48L66.60001 261L66.60001 261L66.12 261z" stroke="none" fill="#000000" fill-rule="evenodd" /><path transform="matrix(1 0 0 -1 0 792)" d="M545.4 249.48L545.88 249.48L545.88 249.48L545.88 261L545.88 261L545.4 261z" stroke="none" fill="#000000" fill-rule="evenodd" /><path transform="matrix(1 0 0 -1 0 792)" d="M66.12 238.08L66.60001 238.08L66.60001 238.08L66.60001 249.48L66.60001 249.48L66.12 249.48z" stroke="none" fill="#000000" fill-rule="evenodd" /><path transform="matrix(1 0 0 -1 0 792)" d="M545.4 238.08L545.88 238.08L545.88 238.08L545.88 249.48L545.88 249.48L545.4 249.48z" stroke="none" fill="#000000" fill-rule="evenodd" /><path transform="matrix(1 0 0 -1 0 792)" d="M66.12 226.56L66.60001 226.56L66.60001 226.56L66.60001 238.08L66.60001 238.08L66.12 238.08z" stroke="none" fill="#000000" fill-rule="evenodd" /><path transform="matrix(1 0 0 -1 0 792)" d="M545.4 226.56L545.88 226.56L545.88 226.56L545.88 238.08L545.88 238.08L545.4 238.08z" stroke="none" fill="#000000" fill-rule="evenodd" /><path transform="matrix(1 0 0 -1 0 792)" d="M66.12 211.56L66.60001 211.56L66.60001 211.56L66.60001 212.04L66.60001 212.04L66.12 212.04z" stroke="none" fill="#000000" fill-rule="evenodd" /><path transform="matrix(1 0 0 -1 0 792)" d="M66.12 211.56L66.60001 211.56L66.60001 211.56L66.60001 212.04L66.60001 212.04L66.12 212.04z" stroke="none" fill="#000000" fill-rule="evenodd" /><path transform="matrix(1 0 0 -1 0 792)" d="M66.6 211.56L545.4 211.56L545.4 211.56L545.4 212.04L545.4 212.04L66.6 212.04z" stroke="none" fill="#000000" fill-rule="evenodd" /><path transform="matrix(1 0 0 -1 0 792)" d="M545.4 211.56L545.88 211.56L545.88 211.56L545.88 212.04L545.88 212.04L545.4 212.04z" stroke="none" fill="#000000" fill-rule="evenodd" /><path transform="matrix(1 0 0 -1 0 792)" d="M545.4 211.56L545.88 211.56L545.88 211.56L545.88 212.04L545.88 212.04L545.4 212.04z" stroke="none" fill="#000000" fill-rule="evenodd" /><path transform="matrix(1 0 0 -1 0 792)" d="M66.12 212.04L66.60001 212.04L66.60001 212.04L66.60001 226.56L66.60001 226.56L66.12 226.56z" stroke="none" fill="#000000" fill-rule="evenodd" /><path transform="matrix(1 0 0 -1 0 792)" d="M545.4 212.04L545.88 212.04L545.88 212.04L545.88 226.56L545.88 226.56L545.4 226.56z" stroke="none" fill="#000000" fill-rule="evenodd" /></g><g clip-path="url(#3)"><g clip-path="url(#4)"><path transform="matrix(1 0 0 -1 0 792)" d="M70.61954 388.1823L365.9255 388.1823L365.9255 404.7478L70.61954 404.7478z" stroke="none" fill="#F6DB09" fill-rule="nonzero" /></g></g><g clip-path="url(#5)"><g clip-path="url(#6)"><path transform="matrix(1 0 0 -1 0 792)" d="M70.61954 457.205L249.9413 457.205L249.9413 473.7706L70.61954 473.7706z" stroke="none" fill="#F6DB09" fill-rule="nonzero" /></g></g></g></g></svg>