<svg xmlns="http://www.w3.org/2000/svg" xmlns:xlink="http://www.w3.org/1999/xlink" id="body_28" preserveAspectRatio="xMinYMin meet" viewBox="0 0 816 1056"><defs><clipPath id="1"><path clip-rule="evenodd" d="M0 792L0 0L0 0L612 0L612 0L612 792L612 792L0 792z" /></clipPath><clipPath id="2"><path clip-rule="evenodd" d="M0 792L612 792L612 792L612 0L612 0L0 0z" /></clipPath><clipPath id="3"><path clip-rule="evenodd" d="M71.99004 118.9286L529.662 118.9286L529.662 118.9286L529.662 94.2677L529.662 94.2677L71.99004 94.2677z" /></clipPath><clipPath id="4"><path clip-rule="evenodd" d="M71.99004 118.9286L529.662 118.9286L529.662 118.9286L529.662 94.2677L529.662 94.2677L71.99004 94.2677z" /></clipPath><clipPath id="5"><path clip-rule="evenodd" d="M71.99004 153.4998L531.1461 153.4998L531.1461 153.4998L531.1461 128.7193L531.1461 128.7193L71.99004 128.7193z" /></clipPath><clipPath id="6"><path clip-rule="evenodd" d="M71.99004 153.4998L531.1461 153.4998L531.1461 153.4998L531.1461 128.7193L531.1461 128.7193L71.99004 128.7193z" /></clipPath><clipPath id="7"><path clip-rule="evenodd" d="M71.99004 165.0235L492.6805 165.0235L492.6805 165.0235L492.6805 140.243L492.6805 140.243L71.99004 140.243z" /></clipPath><clipPath id="8"><path clip-rule="evenodd" d="M71.99004 165.0235L492.6805 165.0235L492.6805 165.0235L492.6805 140.243L492.6805 140.243L71.99004 140.243z" /></clipPath><clipPath id="9"><path clip-rule="evenodd" d="M71.99004 187.9514L535.877 187.9514L535.877 187.9514L535.877 151.7668L535.877 151.7668L71.99004 151.7668z" /></clipPath><clipPath id="10"><path clip-rule="evenodd" d="M71.99004 187.9514L535.877 187.9514L535.877 187.9514L535.877 151.7668L535.877 151.7668L71.99004 151.7668z" /></clipPath><clipPath id="11"><path clip-rule="evenodd" d="M71.99004 291.5454L536.0663 291.5454L536.0663 291.5454L536.0663 266.7649L536.0663 266.7649L71.99004 266.7649z" /></clipPath><clipPath id="12"><path clip-rule="evenodd" d="M71.99004 291.5454L536.0663 291.5454L536.0663 291.5454L536.0663 266.7649L536.0663 266.7649L71.99004 266.7649z" /></clipPath><clipPath id="13"><path clip-rule="evenodd" d="M126.9294 268.498L224.7167 268.498L224.7167 268.498L224.7167 255.2412L224.7167 255.2412L126.9294 255.2412z" /></clipPath><clipPath id="14"><path clip-rule="evenodd" d="M126.9294 268.498L224.7167 268.498L224.7167 268.498L224.7167 255.2412L224.7167 255.2412L126.9294 255.2412z" /></clipPath><clipPath id="15"><path clip-rule="evenodd" d="M72 634.6082L364.1965 634.6082L364.1965 634.6082L364.1965 620.8037L364.1965 620.8037L72 620.8037z" /></clipPath><clipPath id="16"><path clip-rule="evenodd" d="M72 634.6082L364.1965 634.6082L364.1965 634.6082L364.1965 620.8037L364.1965 620.8037L72 620.8037z" /></clipPath></defs><g transform="matrix(1.333333 0 0 1.333333 0 0)"><g clip-path="url(#1)"><g clip-path="url(#2)"><path transform="matrix(1 0 0 -1 0 792)" d="M66.12 386.04L66.60001 386.04L66.60001 386.04L66.60001 386.52L66.60001 386.52L66.12 386.52z" stroke="none" fill="#000000" fill-rule="evenodd" /><path transform="matrix(1 0 0 -1 0 792)" d="M66.12 386.04L66.60001 386.04L66.60001 386.04L66.60001 386.52L66.60001 386.52L66.12 386.52z" stroke="none" fill="#000000" fill-rule="evenodd" /><path transform="matrix(1 0 0 -1 0 792)" d="M66.6 386.04L545.4 386.04L545.4 386.04L545.4 386.52L545.4 386.52L66.6 386.52z" stroke="none" fill="#000000" fill-rule="evenodd" /><path transform="matrix(1 0 0 -1 0 792)" d="M545.4 386.04L545.88 386.04L545.88 386.04L545.88 386.52L545.88 386.52L545.4 386.52z" stroke="none" fill="#000000" fill-rule="evenodd" /><path transform="matrix(1 0 0 -1 0 792)" d="M545.4 386.04L545.88 386.04L545.88 386.04L545.88 386.52L545.88 386.52L545.4 386.52z" stroke="none" fill="#000000" fill-rule="evenodd" /><path transform="matrix(1 0 0 -1 0 792)" d="M66.12 371.52L66.60001 371.52L66.60001 371.52L66.60001 386.04L66.60001 386.04L66.12 386.04z" stroke="none" fill="#000000" fill-rule="evenodd" /><path transform="matrix(1 0 0 -1 0 792)" d="M545.4 371.52L545.88 371.52L545.88 371.52L545.88 386.04L545.88 386.04L545.4 386.04z" stroke="none" fill="#000000" fill-rule="evenodd" /><path transform="matrix(1 0 0 -1 0 792)" d="M66.12 360L66.60001 360L66.60001 360L66.60001 371.52L66.60001 371.52L66.12 371.52z" stroke="none" fill="#000000" fill-rule="evenodd" /><path transform="matrix(1 0 0 -1 0 792)" d="M545.4 360L545.88 360L545.88 360L545.88 371.52L545.88 371.52L545.4 371.52z" stroke="none" fill="#000000" fill-rule="evenodd" /><path transform="matrix(1 0 0 -1 0 792)" d="M66.12 348.48L66.60001 348.48L66.60001 348.48L66.60001 360L66.60001 360L66.12 360z" stroke="none" fill="#000000" fill-rule="evenodd" /><path transform="matrix(1 0 0 -1 0 792)" d="M545.4 348.48L545.88 348.48L545.88 348.48L545.88 360L545.88 360L545.4 360z" stroke="none" fill="#000000" fill-rule="evenodd" /><path transform="matrix(1 0 0 -1 0 792)" d="M66.12 337.08L66.60001 337.08L66.60001 337.08L66.60001 348.48L66.60001 348.48L66.12 348.48z" stroke="none" fill="#000000" fill-rule="evenodd" /><path transform="matrix(1 0 0 -1 0 792)" d="M545.4 337.08L545.88 337.08L545.88 337.08L545.88 348.48L545.88 348.48L545.4 348.48z" stroke="none" fill="#000000" fill-rule="evenodd" /><path transform="matrix(1 0 0 -1 0 792)" d="M66.12 325.56L66.60001 325.56L66.60001 325.56L66.60001 337.08L66.60001 337.08L66.12 337.08z" stroke="none" fill="#000000" fill-rule="evenodd" /><path transform="matrix(1 0 0 -1 0 792)" d="M545.4 325.56L545.88 325.56L545.88 325.56L545.88 337.08L545.88 337.08L545.4 337.08z" stroke="none" fill="#000000" fill-rule="evenodd" /><path transform="matrix(1 0 0 -1 0 792)" d="M66.12 314.04L66.60001 314.04L66.60001 314.04L66.60001 325.56L66.60001 325.56L66.12 325.56z" stroke="none" fill="#000000" fill-rule="evenodd" /><path transform="matrix(1 0 0 -1 0 792)" d="M545.4 314.04L545.88 314.04L545.88 314.04L545.88 325.56L545.88 325.56L545.4 325.56z" stroke="none" fill="#000000" fill-rule="evenodd" /><path transform="matrix(1 0 0 -1 0 792)" d="M66.12 302.52L66.60001 302.52L66.60001 302.52L66.60001 314.04L66.60001 314.04L66.12 314.04z" stroke="none" fill="#000000" fill-rule="evenodd" /><path transform="matrix(1 0 0 -1 0 792)" d="M545.4 302.52L545.88 302.52L545.88 302.52L545.88 314.04L545.88 314.04L545.4 314.04z" stroke="none" fill="#000000" fill-rule="evenodd" /><path transform="matrix(1 0 0 -1 0 792)" d="M66.12 291L66.60001 291L66.60001 291L66.60001 302.52L66.60001 302.52L66.12 302.52z" stroke="none" fill="#000000" fill-rule="evenodd" /><path transform="matrix(1 0 0 -1 0 792)" d="M545.4 291L545.88 291L545.88 291L545.88 302.52L545.88 302.52L545.4 302.52z" stroke="none" fill="#000000" fill-rule="evenodd" /><path transform="matrix(1 0 0 -1 0 792)" d="M66.12 279.48L66.60001 279.48L66.60001 279.48L66.60001 291L66.60001 291L66.12 291z" stroke="none" fill="#000000" fill-rule="evenodd" /><path transform="matrix(1 0 0 -1 0 792)" d="M545.4 279.48L545.88 279.48L545.88 279.48L545.88 291L545.88 291L545.4 291z" stroke="none" fill="#000000" fill-rule="evenodd" /><path transform="matrix(1 0 0 -1 0 792)" d="M66.12 264.48L66.60001 264.48L66.60001 264.48L66.60001 264.96L66.60001 264.96L66.12 264.96z" stroke="none" fill="#000000" fill-rule="evenodd" /><path transform="matrix(1 0 0 -1 0 792)" d="M66.12 264.48L66.60001 264.48L66.60001 264.48L66.60001 264.96L66.60001 264.96L66.12 264.96z" stroke="none" fill="#000000" fill-rule="evenodd" /><path transform="matrix(1 0 0 -1 0 792)" d="M66.6 264.48L545.4 264.48L545.4 264.48L545.4 264.96L545.4 264.96L66.6 264.96z" stroke="none" fill="#000000" fill-rule="evenodd" /><path transform="matrix(1 0 0 -1 0 792)" d="M545.4 264.48L545.88 264.48L545.88 264.48L545.88 264.96L545.88 264.96L545.4 264.96z" stroke="none" fill="#000000" fill-rule="evenodd" /><path transform="matrix(1 0 0 -1 0 792)" d="M545.4 264.48L545.88 264.48L545.88 264.48L545.88 264.96L545.88 264.96L545.4 264.96z" stroke="none" fill="#000000" fill-rule="evenodd" /><path transform="matrix(1 0 0 -1 0 792)" d="M66.12 264.96L66.60001 264.96L66.60001 264.96L66.60001 279.48L66.60001 279.48L66.12 279.48z" stroke="none" fill="#000000" fill-rule="evenodd" /><path transform="matrix(1 0 0 -1 0 792)" d="M545.4 264.96L545.88 264.96L545.88 264.96L545.88 279.48L545.88 279.48L545.4 279.48z" stroke="none" fill="#000000" fill-rule="evenodd" /></g><g clip-path="url(#3)"><g clip-path="url(#4)"><path transform="matrix(1 0 0 -1 0 792)" d="M243.6496 683.15L530.9876 683.15L530.9876 699.058L243.6496 699.058z" stroke="none" fill="#B3E508" fill-rule="nonzero" /><path transform="matrix(1 0 0 -1 0 792)" d="M70.66438 671.7457L316.7181 671.7457L316.7181 687.6537L70.66438 687.6537z" stroke="none" fill="#B3E508" fill-rule="nonzero" /></g></g><g clip-path="url(#5)"><g clip-path="url(#6)"><path transform="matrix(1 0 0 -1 0 792)" d="M348.4886 648.6982L532.4718 648.6982L532.4718 664.6064L348.4886 664.6064z" stroke="none" fill="#B3E508" fill-rule="nonzero" /><path transform="matrix(1 0 0 -1 0 792)" d="M70.66436 637.1745L353.8988 637.1745L353.8988 653.0827L70.66436 653.0827z" stroke="none" fill="#B3E508" fill-rule="nonzero" /></g></g><g clip-path="url(#7)"><g clip-path="url(#8)"><path transform="matrix(1 0 0 -1 0 792)" d="M351.2475 637.1745L494.0062 637.1745L494.0062 653.0827L351.2475 653.0827z" stroke="none" fill="#F6DB09" fill-rule="nonzero" /><path transform="matrix(1 0 0 -1 0 792)" d="M70.66438 625.6508L117.7075 625.6508L117.7075 641.5589L70.66438 641.5589z" stroke="none" fill="#F6DB09" fill-rule="nonzero" /></g></g><g clip-path="url(#9)"><g clip-path="url(#10)"><path transform="matrix(1 0 0 -1 0 792)" d="M193.9891 625.6508L536.0971 625.6508L536.0971 641.5589L193.9891 641.5589z" stroke="none" fill="#F6DB09" fill-rule="nonzero" /><path transform="matrix(1 0 0 -1 0 792)" d="M70.66438 614.1271L537.2026 614.1271L537.2026 630.0352L70.66438 630.0352z" stroke="none" fill="#F6DB09" fill-rule="nonzero" /><path transform="matrix(1 0 0 -1 0 792)" d="M70.66438 602.7229L131.512 602.7229L131.512 618.631L70.66438 618.631z" stroke="none" fill="#F6DB09" fill-rule="nonzero" /></g></g><g clip-path="url(#11)"><g clip-path="url(#12)"><path transform="matrix(1 0 0 -1 0 792)" d="M411.2764 510.6526L537.392 510.6526L537.392 526.5608L411.2764 526.5608z" stroke="none" fill="#F6DB09" fill-rule="nonzero" /><path transform="matrix(1 0 0 -1 0 792)" d="M70.66436 499.1289L140.9939 499.1289L140.9939 515.0371L70.66436 515.0371z" stroke="none" fill="#F6DB09" fill-rule="nonzero" /></g></g><g clip-path="url(#13)"><g clip-path="url(#14)"><path transform="matrix(1 0 0 -1 0 792)" d="M125.6037 522.1763L226.0424 522.1763L226.0424 538.0845L125.6037 538.0845z" stroke="none" fill="#F6DB09" fill-rule="nonzero" /></g></g><g clip-path="url(#15)"><g clip-path="url(#16)"><path transform="matrix(1 0 0 -1 0 792)" d="M70.61955 156.0114L365.5769 156.0114L365.5769 172.5768L70.61955 172.5768z" stroke="none" fill="#F6DB09" fill-rule="nonzero" /></g></g></g></g></svg>