<svg xmlns="http://www.w3.org/2000/svg" xmlns:xlink="http://www.w3.org/1999/xlink" id="body_26" preserveAspectRatio="xMinYMin meet" viewBox="0 0 816 1056"><defs><clipPath id="1"><path clip-rule="evenodd" d="M0 792L0 0L0 0L612 0L612 0L612 792L612 792L0 792z" /></clipPath><clipPath id="2"><path clip-rule="evenodd" d="M0 792L612 792L612 792L612 0L612 0L0 0z" /></clipPath><clipPath id="3"><path clip-rule="evenodd" d="M273.6701 96.00067L378.0509 96.00067L378.0509 96.00067L378.0509 82.74402L378.0509 82.74402L273.6701 82.74402z" /></clipPath><clipPath id="4"><path clip-rule="evenodd" d="M273.6701 96.00067L378.0509 96.00067L378.0509 96.00067L378.0509 82.74402L378.0509 82.74402L273.6701 82.74402z" /></clipPath><clipPath id="5"><path clip-rule="evenodd" d="M72 118.9286L533.8651 118.9286L533.8651 118.9286L533.8651 94.2677L533.8651 94.2677L72 94.2677z" /></clipPath><clipPath id="6"><path clip-rule="evenodd" d="M72 118.9286L533.8651 118.9286L533.8651 118.9286L533.8651 94.2677L533.8651 94.2677L72 94.2677z" /></clipPath><clipPath id="7"><path clip-rule="evenodd" d="M72 141.9761L504.8915 141.9761L504.8915 141.9761L504.8915 105.6719L504.8915 105.6719L72 105.6719z" /></clipPath><clipPath id="8"><path clip-rule="evenodd" d="M72 141.9761L504.8915 141.9761L504.8915 141.9761L504.8915 105.6719L504.8915 105.6719L72 105.6719z" /></clipPath><clipPath id="9"><path clip-rule="evenodd" d="M72 395.832L163.392 395.832L163.392 395.832L163.392 379.2L163.392 379.2L72 379.2z" /></clipPath><clipPath id="10"><path clip-rule="evenodd" d="M72 395.832L163.392 395.832L163.392 395.832L163.392 379.2L163.392 379.2L72 379.2z" /></clipPath><clipPath id="11"><path clip-rule="evenodd" d="M72.00996 475.5798L528.7058 475.5798L528.7058 475.5798L528.7058 450.7993L528.7058 450.7993L72.00996 450.7993z" /></clipPath><clipPath id="12"><path clip-rule="evenodd" d="M72.00996 475.5798L528.7058 475.5798L528.7058 475.5798L528.7058 450.7993L528.7058 450.7993L72.00996 450.7993z" /></clipPath><clipPath id="13"><path clip-rule="evenodd" d="M72.00996 487.1035L533.0883 487.1035L533.0883 487.1035L533.0883 462.323L533.0883 462.323L72.00996 462.323z" /></clipPath><clipPath id="14"><path clip-rule="evenodd" d="M72.00996 487.1035L533.0883 487.1035L533.0883 487.1035L533.0883 462.323L533.0883 462.323L72.00996 462.323z" /></clipPath><clipPath id="15"><path clip-rule="evenodd" d="M72.00996 533.0789L516.963 533.0789L516.963 533.0789L516.963 508.2984L516.963 508.2984L72.00996 508.2984z" /></clipPath><clipPath id="16"><path clip-rule="evenodd" d="M72.00996 533.0789L516.963 533.0789L516.963 533.0789L516.963 508.2984L516.963 508.2984L72.00996 508.2984z" /></clipPath><clipPath id="17"><path clip-rule="evenodd" d="M72.00996 567.5305L531.4747 567.5305L531.4747 567.5305L531.4747 542.8696L531.4747 542.8696L72.00996 542.8696z" /></clipPath><clipPath id="18"><path clip-rule="evenodd" d="M72.00996 567.5305L531.4747 567.5305L531.4747 567.5305L531.4747 542.8696L531.4747 542.8696L72.00996 542.8696z" /></clipPath><clipPath id="19"><path clip-rule="evenodd" d="M72.00996 694.5604L514.5826 694.5604L514.5826 694.5604L514.5826 669.2321L514.5826 669.2321L72.00996 669.2321z" /></clipPath><clipPath id="20"><path clip-rule="evenodd" d="M72.00996 694.5604L514.5826 694.5604L514.5826 694.5604L514.5826 669.2321L514.5826 669.2321L72.00996 669.2321z" /></clipPath></defs><g transform="matrix(1.333333 0 0 1.333333 0 0)"><g clip-path="url(#1)"><g clip-path="url(#2)"><path transform="matrix(1 0 0 -1 0 792)" d="M66.12 593.04L66.60001 593.04L66.60001 593.04L66.60001 593.52L66.60001 593.52L66.12 593.52z" stroke="none" fill="#000000" fill-rule="evenodd" /><path transform="matrix(1 0 0 -1 0 792)" d="M66.12 593.04L66.60001 593.04L66.60001 593.04L66.60001 593.52L66.60001 593.52L66.12 593.52z" stroke="none" fill="#000000" fill-rule="evenodd" /><path transform="matrix(1 0 0 -1 0 792)" d="M66.6 593.04L545.4 593.04L545.4 593.04L545.4 593.52L545.4 593.52L66.6 593.52z" stroke="none" fill="#000000" fill-rule="evenodd" /><path transform="matrix(1 0 0 -1 0 792)" d="M545.4 593.04L545.88 593.04L545.88 593.04L545.88 593.52L545.88 593.52L545.4 593.52z" stroke="none" fill="#000000" fill-rule="evenodd" /><path transform="matrix(1 0 0 -1 0 792)" d="M545.4 593.04L545.88 593.04L545.88 593.04L545.88 593.52L545.88 593.52L545.4 593.52z" stroke="none" fill="#000000" fill-rule="evenodd" /><path transform="matrix(1 0 0 -1 0 792)" d="M66.12 578.52L66.60001 578.52L66.60001 578.52L66.60001 593.04L66.60001 593.04L66.12 593.04z" stroke="none" fill="#000000" fill-rule="evenodd" /><path transform="matrix(1 0 0 -1 0 792)" d="M545.4 578.52L545.88 578.52L545.88 578.52L545.88 593.04L545.88 593.04L545.4 593.04z" stroke="none" fill="#000000" fill-rule="evenodd" /><path transform="matrix(1 0 0 -1 0 792)" d="M66.12 567L66.60001 567L66.60001 567L66.60001 578.52L66.60001 578.52L66.12 578.52z" stroke="none" fill="#000000" fill-rule="evenodd" /><path transform="matrix(1 0 0 -1 0 792)" d="M545.4 567L545.88 567L545.88 567L545.88 578.52L545.88 578.52L545.4 578.52z" stroke="none" fill="#000000" fill-rule="evenodd" /><path transform="matrix(1 0 0 -1 0 792)" d="M66.12 555.48L66.60001 555.48L66.60001 555.48L66.60001 567L66.60001 567L66.12 567z" stroke="none" fill="#000000" fill-rule="evenodd" /><path transform="matrix(1 0 0 -1 0 792)" d="M545.4 555.48L545.88 555.48L545.88 555.48L545.88 567L545.88 567L545.4 567z" stroke="none" fill="#000000" fill-rule="evenodd" /><path transform="matrix(1 0 0 -1 0 792)" d="M66.12 543.96L66.60001 543.96L66.60001 543.96L66.60001 555.48L66.60001 555.48L66.12 555.48z" stroke="none" fill="#000000" fill-rule="evenodd" /><path transform="matrix(1 0 0 -1 0 792)" d="M545.4 543.96L545.88 543.96L545.88 543.96L545.88 555.48L545.88 555.48L545.4 555.48z" stroke="none" fill="#000000" fill-rule="evenodd" /><path transform="matrix(1 0 0 -1 0 792)" d="M66.12 528.96L66.60001 528.96L66.60001 528.96L66.60001 529.44L66.60001 529.44L66.12 529.44z" stroke="none" fill="#000000" fill-rule="evenodd" /><path transform="matrix(1 0 0 -1 0 792)" d="M66.12 528.96L66.60001 528.96L66.60001 528.96L66.60001 529.44L66.60001 529.44L66.12 529.44z" stroke="none" fill="#000000" fill-rule="evenodd" /><path transform="matrix(1 0 0 -1 0 792)" d="M66.6 528.96L545.4 528.96L545.4 528.96L545.4 529.44L545.4 529.44L66.6 529.44z" stroke="none" fill="#000000" fill-rule="evenodd" /><path transform="matrix(1 0 0 -1 0 792)" d="M545.4 528.96L545.88 528.96L545.88 528.96L545.88 529.44L545.88 529.44L545.4 529.44z" stroke="none" fill="#000000" fill-rule="evenodd" /><path transform="matrix(1 0 0 -1 0 792)" d="M545.4 528.96L545.88 528.96L545.88 528.96L545.88 529.44L545.88 529.44L545.4 529.44z" stroke="none" fill="#000000" fill-rule="evenodd" /><path transform="matrix(1 0 0 -1 0 792)" d="M66.12 529.44L66.60001 529.44L66.60001 529.44L66.60001 543.96L66.60001 543.96L66.12 543.96z" stroke="none" fill="#000000" fill-rule="evenodd" /><path transform="matrix(1 0 0 -1 0 792)" d="M545.4 529.44L545.88 529.44L545.88 529.44L545.88 543.96L545.88 543.96L545.4 543.96z" stroke="none" fill="#000000" fill-rule="evenodd" /></g><g clip-path="url(#3)"><g clip-path="url(#4)"><path transform="matrix(1 0 0 -1 0 792)" d="M272.3444 694.6736L379.3765 694.6736L379.3765 710.5817L272.3444 710.5817z" stroke="none" fill="#B3E508" fill-rule="nonzero" /></g></g><g clip-path="url(#5)"><g clip-path="url(#6)"><path transform="matrix(1 0 0 -1 0 792)" d="M368.4185 683.15L535.1907 683.15L535.1907 699.058L368.4185 699.058z" stroke="none" fill="#F6DB09" fill-rule="nonzero" /><path transform="matrix(1 0 0 -1 0 792)" d="M70.67433 671.7457L112.9267 671.7457L112.9267 687.6537L70.67433 687.6537z" stroke="none" fill="#F6DB09" fill-rule="nonzero" /></g></g><g clip-path="url(#7)"><g clip-path="url(#8)"><path transform="matrix(1 0 0 -1 0 792)" d="M383.5378 671.7457L506.2171 671.7457L506.2171 687.6538L383.5378 687.6538z" stroke="none" fill="#F6DB09" fill-rule="nonzero" /><path transform="matrix(1 0 0 -1 0 792)" d="M70.67433 660.222L498.3587 660.222L498.3587 676.1301L70.67433 676.1301z" stroke="none" fill="#F6DB09" fill-rule="nonzero" /><path transform="matrix(1 0 0 -1 0 792)" d="M70.67432 648.6982L282.4458 648.6982L282.4458 664.6064L70.67432 664.6064z" stroke="none" fill="#F6DB09" fill-rule="nonzero" /></g></g><g clip-path="url(#9)"><g clip-path="url(#10)"><path transform="matrix(1 0 0 -1 0 792)" d="M70.3368 394.5048L165.0552 394.5048L165.0552 414.4632L70.3368 414.4632z" stroke="none" fill="#B3E508" fill-rule="nonzero" /></g></g><g clip-path="url(#11)"><g clip-path="url(#12)"><path transform="matrix(1 0 0 -1 0 792)" d="M260.7012 326.6182L530.0316 326.6182L530.0316 342.5264L260.7012 342.5264z" stroke="none" fill="#B3E508" fill-rule="nonzero" /><path transform="matrix(1 0 0 -1 0 792)" d="M70.68427 315.0945L218.8413 315.0945L218.8413 331.0027L70.68427 331.0027z" stroke="none" fill="#B3E508" fill-rule="nonzero" /></g></g><g clip-path="url(#13)"><g clip-path="url(#14)"><path transform="matrix(1 0 0 -1 0 792)" d="M492.341 315.0945L534.4141 315.0945L534.4141 331.0027L492.341 331.0027z" stroke="none" fill="#F6DB09" fill-rule="nonzero" /><path transform="matrix(1 0 0 -1 0 792)" d="M70.68429 303.5708L171.113 303.5708L171.113 319.4789L70.68429 319.4789z" stroke="none" fill="#F6DB09" fill-rule="nonzero" /></g></g><g clip-path="url(#15)"><g clip-path="url(#16)"><path transform="matrix(1 0 0 -1 0 792)" d="M386.7849 269.1192L518.2887 269.1192L518.2887 285.0273L386.7849 285.0273z" stroke="none" fill="#F6DB09" fill-rule="nonzero" /><path transform="matrix(1 0 0 -1 0 792)" d="M70.68427 257.5954L261.2012 257.5954L261.2012 273.5036L70.68427 273.5036z" stroke="none" fill="#F6DB09" fill-rule="nonzero" /></g></g><g clip-path="url(#17)"><g clip-path="url(#18)"><path transform="matrix(1 0 0 -1 0 792)" d="M204.5667 234.548L532.8004 234.548L532.8004 250.4561L204.5667 250.4561z" stroke="none" fill="#F6DB09" fill-rule="nonzero" /><path transform="matrix(1 0 0 -1 0 792)" d="M70.68429 223.1438L256.6495 223.1438L256.6495 239.0519L70.68429 239.0519z" stroke="none" fill="#F6DB09" fill-rule="nonzero" /></g></g><g clip-path="url(#19)"><g clip-path="url(#20)"><path transform="matrix(1 0 0 -1 0 792)" d="M148.3873 107.5829L515.9631 107.5829L515.9631 124.1483L148.3873 124.1483z" stroke="none" fill="#F6DB09" fill-rule="nonzero" /><path transform="matrix(1 0 0 -1 0 792)" d="M70.6295 96.05918L128.8179 96.05918L128.8179 112.6246L70.6295 112.6246z" stroke="none" fill="#F6DB09" fill-rule="nonzero" /></g></g></g></g></svg>