<?xml version="1.0" standalone="no"?><!DOCTYPE svg PUBLIC "-//W3C//DTD SVG 1.1//EN" "http://www.w3.org/Graphics/SVG/1.1/DTD/svg11.dtd">
<svg xmlns:xlink="http://www.w3.org/1999/xlink" xmlns="http://www.w3.org/2000/svg" version="1.1" width="600" height="400">
	<desc>Created with Highcharts 3.0.1</desc>
	<defs>
		<linearGradient x1="0" y1="0" x2="0" y2="1" id="highcharts-14">
			<stop offset="0" stop-color="rgb(96,96,96)" stop-opacity="0.8"></stop>
			<stop offset="1" stop-color="rgb(16,16,16)" stop-opacity="0.8"></stop>
		</linearGradient>
		<linearGradient x1="0" y1="0" x2="0" y2="1" id="highcharts-15">
			<stop offset="0" stop-color="rgb(96, 96, 96)" stop-opacity="1"></stop>
			<stop offset="1" stop-color="rgb(16, 16, 16)" stop-opacity="1"></stop>
		</linearGradient>
		<clipPath id="highcharts-16">
			<rect fill="none" x="0" y="0" width="518" height="259"></rect>
		</clipPath>
	</defs>
	<rect rx="0" ry="0" fill="url(#highcharts-15)" x="0" y="0" width="600" height="400"></rect>
	<g class="highcharts-grid" ></g>
	<g class="highcharts-grid" >
		<path fill="none" d="M 72 273.5 L 590 273.5" stroke-opacity="0.1" stroke="rgb(255,255,255)" stroke-width="1"  opacity="1"></path>
		<path fill="none" d="M 72 221.5 L 590 221.5" stroke-opacity="0.1" stroke="rgb(255,255,255)" stroke-width="1"  opacity="1"></path>
		<path fill="none" d="M 72 169.5 L 590 169.5" stroke-opacity="0.1" stroke="rgb(255,255,255)" stroke-width="1"  opacity="1"></path>
		<path fill="none" d="M 72 117.5 L 590 117.5" stroke-opacity="0.1" stroke="rgb(255,255,255)" stroke-width="1"  opacity="1"></path>
		<path fill="none" d="M 72 65.5 L 590 65.5" stroke-opacity="0.1" stroke="rgb(255,255,255)" stroke-width="1"  opacity="1"></path>
		<path fill="none" d="M 72 324.5 L 590 324.5" stroke-opacity="0.1" stroke="rgb(255,255,255)" stroke-width="1"  opacity="1"></path>
	</g>
	<g class="highcharts-axis" >
		<path fill="none" d="M 175.5 325 L 175.5 330" stroke="#999" stroke-width="1" opacity="1"></path>
		<path fill="none" d="M 226.5 325 L 226.5 330" stroke="#999" stroke-width="1" opacity="1"></path>
		<path fill="none" d="M 278.5 325 L 278.5 330" stroke="#999" stroke-width="1" opacity="1"></path>
		<path fill="none" d="M 330.5 325 L 330.5 330" stroke="#999" stroke-width="1" opacity="1"></path>
		<path fill="none" d="M 382.5 325 L 382.5 330" stroke="#999" stroke-width="1" opacity="1"></path>
		<path fill="none" d="M 434.5 325 L 434.5 330" stroke="#999" stroke-width="1" opacity="1"></path>
		<path fill="none" d="M 485.5 325 L 485.5 330" stroke="#999" stroke-width="1" opacity="1"></path>
		<path fill="none" d="M 537.5 325 L 537.5 330" stroke="#999" stroke-width="1" opacity="1"></path>
		<path fill="none" d="M 589.5 325 L 589.5 330" stroke="#999" stroke-width="1" opacity="1"></path>
		<path fill="none" d="M 123.5 325 L 123.5 330" stroke="#999" stroke-width="1" opacity="1"></path>
		<path fill="none" d="M 72.5 325 L 72.5 330" stroke="#999" stroke-width="1"></path>
		<path fill="none" d="M 72 324.5 L 590 324.5" stroke="#999" stroke-width="1"  visibility="visible"></path>
	</g>
	<g class="highcharts-axis" >
		<text x="27" y="195" style="font-family:'lucida grande', 'lucida sans unicode', verdana, arial, helvetica, sans-serif;font-size:12px;color:#aaa;font-weight:bold;font:14px lucida grande, lucida sans unicode, verdana, arial, helvetica, sans-serif;fill:#aaa;"  text-anchor="middle" transform="rotate(270 27 195)" visibility="visible">
			<tspan x="27">数据来源于国家环境保护部网站</tspan>
		</text>
	</g>
	<g class="highcharts-series-group" >
		<g class="highcharts-series highcharts-tracker" visibility="visible"  transform="translate(72,65) scale(1 1)" style="" clip-path="url(#highcharts-16)">
			<rect fill="none" x="16" y="249" width="19" height="11" rx="0" ry="0"  stroke="black" stroke-opacity="0.049999999999999996" stroke-width="5" transform="translate(1, 1)"></rect>
			<rect fill="none" x="16" y="249" width="19" height="11" rx="0" ry="0"  stroke="black" stroke-opacity="0.09999999999999999" stroke-width="3" transform="translate(1, 1)"></rect>
			<rect fill="none" x="16" y="249" width="19" height="11" rx="0" ry="0"  stroke="black" stroke-opacity="0.15" stroke-width="1" transform="translate(1, 1)"></rect>
			<rect fill="#A3C800" x="16" y="249" width="19" height="11" rx="0" ry="0"></rect>
			<rect fill="none" x="68" y="247" width="19" height="13" rx="0" ry="0"  stroke="black" stroke-opacity="0.049999999999999996" stroke-width="5" transform="translate(1, 1)"></rect>
			<rect fill="none" x="68" y="247" width="19" height="13" rx="0" ry="0"  stroke="black" stroke-opacity="0.09999999999999999" stroke-width="3" transform="translate(1, 1)"></rect>
			<rect fill="none" x="68" y="247" width="19" height="13" rx="0" ry="0"  stroke="black" stroke-opacity="0.15" stroke-width="1" transform="translate(1, 1)"></rect>
			<rect fill="#A3C800" x="68" y="247" width="19" height="13" rx="0" ry="0"></rect>
			<rect fill="none" x="120" y="247" width="19" height="13" rx="0" ry="0"  stroke="black" stroke-opacity="0.049999999999999996" stroke-width="5" transform="translate(1, 1)"></rect>
			<rect fill="none" x="120" y="247" width="19" height="13" rx="0" ry="0"  stroke="black" stroke-opacity="0.09999999999999999" stroke-width="3" transform="translate(1, 1)"></rect>
			<rect fill="none" x="120" y="247" width="19" height="13" rx="0" ry="0"  stroke="black" stroke-opacity="0.15" stroke-width="1" transform="translate(1, 1)"></rect>
			<rect fill="#A3C800" x="120" y="247" width="19" height="13" rx="0" ry="0"></rect>
			<rect fill="none" x="171" y="246" width="19" height="14" rx="0" ry="0"  stroke="black" stroke-opacity="0.049999999999999996" stroke-width="5" transform="translate(1, 1)"></rect>
			<rect fill="none" x="171" y="246" width="19" height="14" rx="0" ry="0"  stroke="black" stroke-opacity="0.09999999999999999" stroke-width="3" transform="translate(1, 1)"></rect>
			<rect fill="none" x="171" y="246" width="19" height="14" rx="0" ry="0"  stroke="black" stroke-opacity="0.15" stroke-width="1" transform="translate(1, 1)"></rect>
			<rect fill="#A3C800" x="171" y="246" width="19" height="14" rx="0" ry="0"></rect>
			<rect fill="none" x="223" y="245" width="19" height="15" rx="0" ry="0"  stroke="black" stroke-opacity="0.049999999999999996" stroke-width="5" transform="translate(1, 1)"></rect>
			<rect fill="none" x="223" y="245" width="19" height="15" rx="0" ry="0"  stroke="black" stroke-opacity="0.09999999999999999" stroke-width="3" transform="translate(1, 1)"></rect>
			<rect fill="none" x="223" y="245" width="19" height="15" rx="0" ry="0"  stroke="black" stroke-opacity="0.15" stroke-width="1" transform="translate(1, 1)"></rect>
			<rect fill="#A3C800" x="223" y="245" width="19" height="15" rx="0" ry="0"></rect>
			<rect fill="none" x="275" y="244" width="19" height="16" rx="0" ry="0"  stroke="black" stroke-opacity="0.049999999999999996" stroke-width="5" transform="translate(1, 1)"></rect>
			<rect fill="none" x="275" y="244" width="19" height="16" rx="0" ry="0"  stroke="black" stroke-opacity="0.09999999999999999" stroke-width="3" transform="translate(1, 1)"></rect>
			<rect fill="none" x="275" y="244" width="19" height="16" rx="0" ry="0"  stroke="black" stroke-opacity="0.15" stroke-width="1" transform="translate(1, 1)"></rect>
			<rect fill="#A3C800" x="275" y="244" width="19" height="16" rx="0" ry="0"></rect>
			<rect fill="none" x="327" y="243" width="19" height="17" rx="0" ry="0"  stroke="black" stroke-opacity="0.049999999999999996" stroke-width="5" transform="translate(1, 1)"></rect>
			<rect fill="none" x="327" y="243" width="19" height="17" rx="0" ry="0"  stroke="black" stroke-opacity="0.09999999999999999" stroke-width="3" transform="translate(1, 1)"></rect>
			<rect fill="none" x="327" y="243" width="19" height="17" rx="0" ry="0"  stroke="black" stroke-opacity="0.15" stroke-width="1" transform="translate(1, 1)"></rect>
			<rect fill="#A3C800" x="327" y="243" width="19" height="17" rx="0" ry="0"></rect>
			<rect fill="none" x="379" y="243" width="19" height="17" rx="0" ry="0"  stroke="black" stroke-opacity="0.049999999999999996" stroke-width="5" transform="translate(1, 1)"></rect>
			<rect fill="none" x="379" y="243" width="19" height="17" rx="0" ry="0"  stroke="black" stroke-opacity="0.09999999999999999" stroke-width="3" transform="translate(1, 1)"></rect>
			<rect fill="none" x="379" y="243" width="19" height="17" rx="0" ry="0"  stroke="black" stroke-opacity="0.15" stroke-width="1" transform="translate(1, 1)"></rect>
			<rect fill="#A3C800" x="379" y="243" width="19" height="17" rx="0" ry="0"></rect>
			<rect fill="none" x="430" y="243" width="19" height="17" rx="0" ry="0"  stroke="black" stroke-opacity="0.049999999999999996" stroke-width="5" transform="translate(1, 1)"></rect>
			<rect fill="none" x="430" y="243" width="19" height="17" rx="0" ry="0"  stroke="black" stroke-opacity="0.09999999999999999" stroke-width="3" transform="translate(1, 1)"></rect>
			<rect fill="none" x="430" y="243" width="19" height="17" rx="0" ry="0"  stroke="black" stroke-opacity="0.15" stroke-width="1" transform="translate(1, 1)"></rect>
			<rect fill="#A3C800" x="430" y="243" width="19" height="17" rx="0" ry="0"></rect>
			<rect fill="none" x="482" y="242" width="19" height="18" rx="0" ry="0"  stroke="black" stroke-opacity="0.049999999999999996" stroke-width="5" transform="translate(1, 1)"></rect>
			<rect fill="none" x="482" y="242" width="19" height="18" rx="0" ry="0"  stroke="black" stroke-opacity="0.09999999999999999" stroke-width="3" transform="translate(1, 1)"></rect>
			<rect fill="none" x="482" y="242" width="19" height="18" rx="0" ry="0"  stroke="black" stroke-opacity="0.15" stroke-width="1" transform="translate(1, 1)"></rect>
			<rect fill="#A3C800" x="482" y="242" width="19" height="18" rx="0" ry="0"></rect>
		</g>
		<g class="highcharts-markers" visibility="visible"  transform="translate(72,65) scale(1 1)" clip-path="none"></g>
	</g>
	<text x="300" y="30" style="font-family:'lucida grande', 'lucida sans unicode', verdana, arial, helvetica, sans-serif;font-size:16px;color:#fff;font:20px lucida grande, lucida sans unicode, verdana, arial, helvetica, sans-serif;fill:#fff;" text-anchor="middle" class="highcharts-title" >
		<tspan x="300">全国实时空气质量指数(AQI) 前十名</tspan>
	</text>
	<text x="300" y="50" style="font-family:'lucida grande', 'lucida sans unicode', verdana, arial, helvetica, sans-serif;font-size:12px;color:#ddd;font:14px lucida grande, lucida sans unicode, verdana, arial, helvetica, sans-serif;fill:#ddd;" text-anchor="middle" class="highcharts-subtitle" >
		<tspan x="300">http://www.pm25.in</tspan>
	</text>
	<g class="highcharts-data-labels highcharts-tracker" visibility="visible"  transform="translate(72,65) scale(1 1)" style="">
		<g  style="cursor:default;" transform="translate(15,227)" visibility="inherit">
			<text x="3" y="15" style="font-family:'lucida grande', 'lucida sans unicode', verdana, arial, helvetica, sans-serif;font-size:11px;color:#bbb;line-height:14px;fill:#bbb;" >
				<tspan x="3">22</tspan>
			</text>
		</g>
		<g  style="cursor:default;" transform="translate(67,225)" visibility="inherit">
			<text x="3" y="15" style="font-family:'lucida grande', 'lucida sans unicode', verdana, arial, helvetica, sans-serif;font-size:11px;color:#bbb;line-height:14px;fill:#bbb;" >
				<tspan x="3">26</tspan>
			</text>
		</g>
		<g  style="cursor:default;" transform="translate(119,225)" visibility="inherit">
			<text x="3" y="15" style="font-family:'lucida grande', 'lucida sans unicode', verdana, arial, helvetica, sans-serif;font-size:11px;color:#bbb;line-height:14px;fill:#bbb;" >
				<tspan x="3">26</tspan>
			</text>
		</g>
		<g  style="cursor:default;" transform="translate(170,224)" visibility="inherit">
			<text x="3" y="15" style="font-family:'lucida grande', 'lucida sans unicode', verdana, arial, helvetica, sans-serif;font-size:11px;color:#bbb;line-height:14px;fill:#bbb;" >
				<tspan x="3">28</tspan>
			</text>
		</g>
		<g  style="cursor:default;" transform="translate(222,223)" visibility="inherit">
			<text x="3" y="15" style="font-family:'lucida grande', 'lucida sans unicode', verdana, arial, helvetica, sans-serif;font-size:11px;color:#bbb;line-height:14px;fill:#bbb;" >
				<tspan x="3">30</tspan>
			</text>
		</g>
		<g  style="cursor:default;" transform="translate(274,222)" visibility="inherit">
			<text x="3" y="15" style="font-family:'lucida grande', 'lucida sans unicode', verdana, arial, helvetica, sans-serif;font-size:11px;color:#bbb;line-height:14px;fill:#bbb;" >
				<tspan x="3">31</tspan>
			</text>
		</g>
		<g  style="cursor:default;" transform="translate(326,221)" visibility="inherit">
			<text x="3" y="15" style="font-family:'lucida grande', 'lucida sans unicode', verdana, arial, helvetica, sans-serif;font-size:11px;color:#bbb;line-height:14px;fill:#bbb;" >
				<tspan x="3">33</tspan>
			</text>
		</g>
		<g  style="cursor:default;" transform="translate(378,221)" visibility="inherit">
			<text x="3" y="15" style="font-family:'lucida grande', 'lucida sans unicode', verdana, arial, helvetica, sans-serif;font-size:11px;color:#bbb;line-height:14px;fill:#bbb;" >
				<tspan x="3">33</tspan>
			</text>
		</g>
		<g  style="cursor:default;" transform="translate(429,221)" visibility="inherit">
			<text x="3" y="15" style="font-family:'lucida grande', 'lucida sans unicode', verdana, arial, helvetica, sans-serif;font-size:11px;color:#bbb;line-height:14px;fill:#bbb;" >
				<tspan x="3">33</tspan>
			</text>
		</g>
		<g  style="cursor:default;" transform="translate(481,220)" visibility="inherit">
			<text x="3" y="15" style="font-family:'lucida grande', 'lucida sans unicode', verdana, arial, helvetica, sans-serif;font-size:11px;color:#bbb;line-height:14px;fill:#bbb;" >
				<tspan x="3">35</tspan>
			</text>
		</g>
	</g>
	<g class="highcharts-axis-labels" >
		<text x="97.9" y="345" style="font-family:'lucida grande', 'lucida sans unicode', verdana, arial, helvetica, sans-serif;font-size:11px;width:32px;color:#999;cursor:default;line-height:14px;font-weight:bold;font:14px lucida grande, lucida sans unicode, verdana, arial, helvetica, sans-serif;fill:#999;" text-anchor="middle" opacity="1">
			<tspan x="97.9">舟山</tspan>
		</text>
		<text x="149.7" y="345" style="font-family:'lucida grande', 'lucida sans unicode', verdana, arial, helvetica, sans-serif;font-size:11px;width:32px;color:#999;cursor:default;line-height:14px;font-weight:bold;font:14px lucida grande, lucida sans unicode, verdana, arial, helvetica, sans-serif;fill:#999;" text-anchor="middle" opacity="1">
			<tspan x="149.7">三亚</tspan>
		</text>
		<text x="201.5" y="345" style="font-family:'lucida grande', 'lucida sans unicode', verdana, arial, helvetica, sans-serif;font-size:11px;width:32px;color:#999;cursor:default;line-height:14px;font-weight:bold;font:14px lucida grande, lucida sans unicode, verdana, arial, helvetica, sans-serif;fill:#999;" text-anchor="middle" opacity="1">
			<tspan x="201.5">张家界</tspan>
		</text>
		<text x="253.29999999999998" y="345" style="font-family:'lucida grande', 'lucida sans unicode', verdana, arial, helvetica, sans-serif;font-size:11px;width:32px;color:#999;cursor:default;line-height:14px;font-weight:bold;font:14px lucida grande, lucida sans unicode, verdana, arial, helvetica, sans-serif;fill:#999;" text-anchor="middle" opacity="1">
			<tspan x="253.29999999999998">丽水</tspan>
		</text>
		<text x="305.1" y="345" style="font-family:'lucida grande', 'lucida sans unicode', verdana, arial, helvetica, sans-serif;font-size:11px;width:32px;color:#999;cursor:default;line-height:14px;font-weight:bold;font:14px lucida grande, lucida sans unicode, verdana, arial, helvetica, sans-serif;fill:#999;" text-anchor="middle" opacity="1">
			<tspan x="305.1">玉溪</tspan>
		</text>
		<text x="356.9" y="345" style="font-family:'lucida grande', 'lucida sans unicode', verdana, arial, helvetica, sans-serif;font-size:11px;width:32px;color:#999;cursor:default;line-height:14px;font-weight:bold;font:14px lucida grande, lucida sans unicode, verdana, arial, helvetica, sans-serif;fill:#999;" text-anchor="middle" opacity="1">
			<tspan x="356.9">克拉玛依</tspan>
		</text>
		<text x="408.7" y="345" style="font-family:'lucida grande', 'lucida sans unicode', verdana, arial, helvetica, sans-serif;font-size:11px;width:32px;color:#999;cursor:default;line-height:14px;font-weight:bold;font:14px lucida grande, lucida sans unicode, verdana, arial, helvetica, sans-serif;fill:#999;" text-anchor="middle" opacity="1">
			<tspan x="408.7">昆明</tspan>
		</text>
		<text x="460.5" y="345" style="font-family:'lucida grande', 'lucida sans unicode', verdana, arial, helvetica, sans-serif;font-size:11px;width:32px;color:#999;cursor:default;line-height:14px;font-weight:bold;font:14px lucida grande, lucida sans unicode, verdana, arial, helvetica, sans-serif;fill:#999;" text-anchor="middle" opacity="1">
			<tspan x="460.5">湛江</tspan>
		</text>
		<text x="512.3" y="345" style="font-family:'lucida grande', 'lucida sans unicode', verdana, arial, helvetica, sans-serif;font-size:11px;width:32px;color:#999;cursor:default;line-height:14px;font-weight:bold;font:14px lucida grande, lucida sans unicode, verdana, arial, helvetica, sans-serif;fill:#999;" text-anchor="middle" opacity="1">
			<tspan x="512.3">泉州</tspan>
		</text>
		<text x="564.1" y="345" style="font-family:'lucida grande', 'lucida sans unicode', verdana, arial, helvetica, sans-serif;font-size:11px;width:32px;color:#999;cursor:default;line-height:14px;font-weight:bold;font:14px lucida grande, lucida sans unicode, verdana, arial, helvetica, sans-serif;fill:#999;" text-anchor="middle" opacity="1">
			<tspan x="564.1">阳江</tspan>
		</text>
	</g>
	<g class="highcharts-axis-labels" >
		<text x="64" y="329.6" style="font-family:'lucida grande', 'lucida sans unicode', verdana, arial, helvetica, sans-serif;font-size:11px;width:239px;color:#999;cursor:default;line-height:14px;font-weight:bold;fill:#999;" text-anchor="end" opacity="1">
			<tspan x="64">0</tspan>
		</text>
		<text x="64" y="277.6" style="font-family:'lucida grande', 'lucida sans unicode', verdana, arial, helvetica, sans-serif;font-size:11px;width:239px;color:#999;cursor:default;line-height:14px;font-weight:bold;fill:#999;" text-anchor="end" opacity="1">
			<tspan x="64">100</tspan>
		</text>
		<text x="64" y="225.6" style="font-family:'lucida grande', 'lucida sans unicode', verdana, arial, helvetica, sans-serif;font-size:11px;width:239px;color:#999;cursor:default;line-height:14px;font-weight:bold;fill:#999;" text-anchor="end" opacity="1">
			<tspan x="64">200</tspan>
		</text>
		<text x="64" y="173.6" style="font-family:'lucida grande', 'lucida sans unicode', verdana, arial, helvetica, sans-serif;font-size:11px;width:239px;color:#999;cursor:default;line-height:14px;font-weight:bold;fill:#999;" text-anchor="end" opacity="1">
			<tspan x="64">300</tspan>
		</text>
		<text x="64" y="121.6" style="font-family:'lucida grande', 'lucida sans unicode', verdana, arial, helvetica, sans-serif;font-size:11px;width:239px;color:#999;cursor:default;line-height:14px;font-weight:bold;fill:#999;" text-anchor="end" opacity="1">
			<tspan x="64">400</tspan>
		</text>
		<text x="64" y="69.6" style="font-family:'lucida grande', 'lucida sans unicode', verdana, arial, helvetica, sans-serif;font-size:11px;width:239px;color:#999;cursor:default;line-height:14px;font-weight:bold;fill:#999;" text-anchor="end" opacity="1">
			<tspan x="64">500</tspan>
		</text>
	</g>
	<g class="highcharts-tooltip"  style="cursor:default;padding:0;white-space:nowrap;" visibility="hidden">
		<rect rx="3" ry="3" fill="none" x="0" y="0" width="16" height="16"  stroke="black" stroke-opacity="0.049999999999999996" stroke-width="5" transform="translate(1, 1)"></rect>
		<rect rx="3" ry="3" fill="none" x="0" y="0" width="16" height="16"  stroke="black" stroke-opacity="0.09999999999999999" stroke-width="3" transform="translate(1, 1)"></rect>
		<rect rx="3" ry="3" fill="none" x="0" y="0" width="16" height="16"  stroke="black" stroke-opacity="0.15" stroke-width="1" transform="translate(1, 1)"></rect>
		<rect rx="3" ry="3" fill="url(#highcharts-14)" x="0" y="0" width="16" height="16"></rect>
		<text x="8" y="21" style="font-family:'lucida grande', 'lucida sans unicode', verdana, arial, helvetica, sans-serif;font-size:12px;color:#fff;fill:#fff;" ></text>
	</g>
	<text x="20" y="383" style="font-family:'lucida grande', 'lucida sans unicode', verdana, arial, helvetica, sans-serif;font-size:9px;cursor:pointer;color:#aaa;font:14px lucida grande, lucida sans unicode, verdana, arial, helvetica, sans-serif;fill:#aaa;" text-anchor="start" >
		<tspan x="20">2014-11-29 12:00 发布</tspan>
	</text>
</svg>